<?xml version="1.0" standalone="no"?>
 <!DOCTYPE svg PUBLIC "-//W3C//DTD SVG 1.1//EN" 
 "http://www.w3.org/Graphics/SVG/1.1/DTD/svg11.dtd"> 
<svg xmlns="http://www.w3.org/2000/svg" version="1.1" 
    width="5.19938cm" height="9.53262cm" viewBox="0 0 20470 37530 ">
<title>SVG Picture created as snowman_pcb-brd.svg date 2019/12/18 10:25:55 </title>
  <desc>Picture generated by PCBNEW </desc>
<g style="fill:#000000; fill-opacity:1;stroke:#000000; stroke-opacity:1;
stroke-linecap:round; stroke-linejoin:round; "
 transform="translate(0 0) scale(1 1)">
</g>
<g style="fill:#000000; fill-opacity:0.0; 
stroke:#000000; stroke-width:-0.000393701; stroke-opacity:1; 
stroke-linecap:round; stroke-linejoin:round;">
</g>
<g style="fill:#848484; fill-opacity:0.0; 
stroke:#848484; stroke-width:-0.000393701; stroke-opacity:1; 
stroke-linecap:round; stroke-linejoin:round;">
</g>
<g style="fill:#848484; fill-opacity:0.0; 
stroke:#848484; stroke-width:19.685; stroke-opacity:1; 
stroke-linecap:round; stroke-linejoin:round;">
<path d="M5796 28994
L8099 25491
" />
<path d="M5796 32498
L8099 36002
" />
<path d="M5402 28994
L5796 28994
" />
<path d="M5402 28994
L5402 32498
" />
<path d="M5402 32498
L5796 32498
" />
<path d="M11505 36002
L13611 36002
" />
<path d="M8099 25491
L9969 25491
" />
<path d="M11505 25491
L13611 25491
" />
<path d="M8099 36002
L9969 36002
" />
<path d="M11505.1 25491 A809.244 809.244 0.0 0 0 9970.22 25489.3 " />
<path d="M9970.22 36004.6 A809.244 809.244 0.0 0 0 11505.1 36002.8 " />
<path d="M14851.5 26750.9 A1259.84 1259.84 0.0 0 0 13591.7 25491 " />
<path d="M13591.7 36002.8 A1259.84 1259.84 0.0 0 0 14851.5 34743 " />
<path d="M14684.3 27154.5 A570.866 570.866 0.0 0 0 14851.5 26750.9 " />
<path d="M14851.5 34743 A570.866 570.866 0.0 0 0 14684.3 34339.3 " />
<path d="M14694 27144.6 A5618 5618 0.0 0 0 14499.7 27390.8 " />
<path d="M15776.7 30746.9 A5039.37 5039.37 0.0 0 0 14499.9 27394.6 " />
<path d="M14499.7 34103 A5618 5618 0.0 0 0 14694 34349.3 " />
<path d="M14499.9 34099.3 A5039.37 5039.37 0.0 0 0 15776.7 30746.9 " />
<path d="M3753 26983
L5304 27879
" />
<path d="M4294 26045
L3753 26983
" />
<path d="M3851 25789
L4294 26045
" />
<path d="M4501 24664
L3851 25789
" />
<path d="M4944 24920
L4501 24664
" />
<path d="M5485 23982
L4944 24920
" />
<path d="M7037 24878
L5485 23982
" />
<path d="M5304 27879
L7037 24878
" />
<path d="M9394 19711
L11190 19711
" />
<path d="M9394 18561
L9394 19711
" />
<path d="M11190 18561
L9394 18561
" />
<path d="M11190 19711
L11190 18561
" />
<path d="M9194 10057
L9194 11853
" />
<path d="M10343 10057
L9194 10057
" />
<path d="M10343 11853
L10343 10057
" />
<path d="M9194 11853
L10343 11853
" />
<path d="M8323 7624
L6528 7624
" />
<path d="M8323 8774
L8323 7624
" />
<path d="M6528 8774
L8323 8774
" />
<path d="M6528 7624
L6528 8774
" />
<path d="M9060 8199
L10855 8199
" />
<path d="M9060 7050
L9060 8199
" />
<path d="M10855 7050
L9060 7050
" />
<path d="M10855 8199
L10855 7050
" />
<g >
</g>
<g >
</g>
<g >
</g>
<g >
</g>
<g >
</g>
<g >
</g>
<g >
</g>
<g >
</g>
<g >
</g>
<g >
</g>
<g >
</g>
<g >
</g>
<g >
</g>
</g>
<g style="fill:#000000; fill-opacity:0.0; 
stroke:#000000; stroke-width:19.685; stroke-opacity:1; 
stroke-linecap:round; stroke-linejoin:round;">
</g>
<g style="fill:#840084; fill-opacity:0.0; 
stroke:#840084; stroke-width:19.685; stroke-opacity:1; 
stroke-linecap:round; stroke-linejoin:round;">
</g>
<g style="fill:#840084; fill-opacity:0.0; 
stroke:#840084; stroke-width:47.2441; stroke-opacity:1; 
stroke-linecap:round; stroke-linejoin:round;">
<path d="M5914 29191
L8217 25687
" />
<path d="M5599 29191
L5914 29191
" />
<path d="M5599 29191
L5599 32302
" />
<path d="M5599 32302
L5914 32302
" />
<path d="M5914 32302
L8217 35805
" />
<path d="M8217 25687
L9989 25687
" />
<path d="M8217 35805
L9989 35805
" />
<path d="M11485 25687
L13611 25687
" />
<path d="M11485 35805
L13611 35805
" />
<path d="M13591.7 35806 A1062.99 1062.99 0.0 0 0 14654.7 34743 " />
<path d="M14654.7 26750.9 A1062.99 1062.99 0.0 0 0 13591.7 25687.9 " />
<path d="M14545.1 27015.3 A374.016 374.016 0.0 0 0 14654.7 26750.9 " />
<path d="M14654.7 34743 A374.016 374.016 0.0 0 0 14545.1 34478.5 " />
<path d="M14568.1 26987.1 A5815.79 5815.79 0.0 0 0 14531.9 34463.7 " />
<path d="M5769 24578
L6038 24734
" />
<path d="M4680 27086
L4411 26931
" />
<path d="M5402 26662
L5737 26082
" />
<path d="M4184 26527
L5306 24584
" />
<path d="M4286 25336
L4726 25590
" />
<path d="M3998 25669
L4175 25363
" />
<path d="M4470 26033
L4030 25779
" />
<path d="M4286 25336
L4175 25363
" />
<path d="M4030 25779
L3998 25669
" />
<path d="M5993 25639
L6032 25571
" />
<path d="M11192 19711
L9662 19711
" />
<path d="M11192 18561
L11192 19711
" />
<path d="M9662 18561
L11192 18561
" />
<path d="M9194 11855
L9194 10325
" />
<path d="M10343 11855
L9194 11855
" />
<path d="M10343 10325
L10343 11855
" />
<path d="M6526 7624
L8056 7624
" />
<path d="M6526 8774
L6526 7624
" />
<path d="M8056 8774
L6526 8774
" />
<path d="M10857 8199
L9327 8199
" />
<path d="M10857 7050
L10857 8199
" />
<path d="M9327 7050
L10857 7050
" />
</g>
<g style="fill:#840084; fill-opacity:0.0; 
stroke:#840084; stroke-width:59.0551; stroke-opacity:1; 
stroke-linecap:round; stroke-linejoin:round;">
<path d="M5039 30437
L5058 30493
L5077 30512
L5114 30531
L5171 30531
L5208 30512
L5227 30493
L5246 30456
L5246 30306
L4852 30306
L4852 30437
L4871 30475
L4889 30493
L4927 30512
L4964 30512
L5002 30493
L5021 30475
L5039 30437
L5039 30306
" />
<path d="M4852 30643
L4852 30868
" />
<path d="M5246 30756
L4852 30756
" />
<path d="M5246 31206
L5246 30981
" />
<path d="M5246 31093
L4852 31093
L4908 31056
L4946 31018
L4964 30981
" />
<path d="M16972 17824
L16972 17430
L16878 17430
L16822 17449
L16784 17486
L16765 17524
L16747 17599
L16747 17655
L16765 17730
L16784 17768
L16822 17805
L16878 17824
L16972 17824
" />
<path d="M16390 17430
L16578 17430
L16597 17618
L16578 17599
L16540 17580
L16447 17580
L16409 17599
L16390 17618
L16372 17655
L16372 17749
L16390 17786
L16409 17805
L16447 17824
L16540 17824
L16578 17805
L16597 17786
" />
<path d="M18515 17065
L18815 17065
" />
<path d="M18665 17215
L18665 16915
" />
<path d="M17531 17065
L17831 17065
" />
<path d="M6827 26151
L6815 26209
L6768 26290
L6733 26313
L6707 26320
L6666 26318
L6633 26299
L6610 26264
L6603 26238
L6606 26197
L6627 26122
L6629 26080
L6623 26055
L6600 26020
L6567 26001
L6525 25999
L6500 26005
L6465 26029
L6418 26110
L6406 26168
" />
<path d="M6324 26272
L6618 26550
L6337 26474
L6543 26680
L6155 26564
" />
<path d="M6318 27070
L6431 26875
" />
<path d="M6374 26972
L6033 26775
L6101 26771
L6152 26757
L6187 26734
" />
<path d="M10583 18470
L10583 18076
L10489 18076
L10433 18095
L10395 18132
L10376 18170
L10358 18245
L10358 18301
L10376 18376
L10395 18414
L10433 18451
L10489 18470
L10583 18470
" />
<path d="M10020 18207
L10020 18470
" />
<path d="M10114 18057
L10208 18339
L9964 18339
" />
<path d="M10791 10665
L10397 10665
L10397 10758
L10416 10814
L10453 10852
L10491 10871
L10566 10889
L10622 10889
L10697 10871
L10735 10852
L10772 10814
L10791 10758
L10791 10665
" />
<path d="M10397 11021
L10397 11264
L10547 11133
L10547 11189
L10566 11227
L10585 11246
L10622 11264
L10716 11264
L10753 11246
L10772 11227
L10791 11189
L10791 11077
L10772 11039
L10753 11021
" />
<path d="M7716 9222
L7716 8828
L7623 8828
L7566 8847
L7529 8884
L7510 8922
L7491 8997
L7491 9053
L7510 9128
L7529 9166
L7566 9203
L7623 9222
L7716 9222
" />
<path d="M7341 8866
L7323 8847
L7285 8828
L7191 8828
L7154 8847
L7135 8866
L7116 8903
L7116 8941
L7135 8997
L7360 9222
L7116 9222
" />
<path d="M10248 6958
L10248 6564
L10154 6564
L10098 6583
L10060 6621
L10042 6658
L10023 6733
L10023 6789
L10042 6864
L10060 6902
L10098 6939
L10154 6958
L10248 6958
" />
<path d="M9648 6958
L9873 6958
" />
<path d="M9760 6958
L9760 6564
L9798 6621
L9835 6658
L9873 6677
" />
<g >
</g>
</g>
<g style="fill:#000000; fill-opacity:0.0; 
stroke:#000000; stroke-width:59.0551; stroke-opacity:1; 
stroke-linecap:round; stroke-linejoin:round;">
</g>
<g style="fill:#C2C200; fill-opacity:0.0; 
stroke:#C2C200; stroke-width:59.0551; stroke-opacity:1; 
stroke-linecap:round; stroke-linejoin:round;">
</g>
<g style="fill:#C2C200; fill-opacity:0.0; 
stroke:#C2C200; stroke-width:39.3701; stroke-opacity:1; 
stroke-linecap:round; stroke-linejoin:round;">
<path d="M9509 27
L9469 34
" />
<path d="M9469 34
L9431 44
" />
<path d="M9431 44
L9395 55
" />
<path d="M9395 55
L9360 68
" />
<path d="M9360 68
L9326 82
" />
<path d="M9326 82
L9294 96
" />
<path d="M9294 96
L9233 128
" />
<path d="M9233 128
L9178 161
" />
<path d="M9178 161
L9127 193
" />
<path d="M9127 193
L9079 224
" />
<path d="M9079 224
L9035 250
" />
<path d="M9035 250
L8933 301
" />
<path d="M8933 301
L8829 348
" />
<path d="M8829 348
L8723 391
" />
<path d="M8723 391
L8614 430
" />
<path d="M8614 430
L8504 466
" />
<path d="M8504 466
L8392 499
" />
<path d="M8392 499
L8279 529
" />
<path d="M8279 529
L8166 556
" />
<path d="M8166 556
L7927 606
" />
<path d="M7927 606
L7687 652
" />
<path d="M7687 652
L7446 695
" />
<path d="M7446 695
L7204 735
" />
<path d="M7204 735
L6961 772
" />
<path d="M6961 772
L6717 808
" />
<path d="M6717 808
L6472 842
" />
<path d="M6472 842
L6227 874
" />
<path d="M6227 874
L5735 936
" />
<path d="M5735 936
L5243 998
" />
<path d="M5243 998
L4752 1061
" />
<path d="M4752 1061
L4507 1094
" />
<path d="M4507 1094
L4262 1128
" />
<path d="M4262 1128
L4262 1128
" />
<path d="M4262 1128
L4222 1135
" />
<path d="M4222 1135
L4182 1146
" />
<path d="M4182 1146
L4143 1160
" />
<path d="M4143 1160
L4106 1177
" />
<path d="M4106 1177
L4070 1198
" />
<path d="M4070 1198
L4038 1222
" />
<path d="M4038 1222
L4008 1249
" />
<path d="M4008 1249
L3981 1279
" />
<path d="M3981 1279
L3958 1311
" />
<path d="M3958 1311
L3939 1344
" />
<path d="M3939 1344
L3923 1378
" />
<path d="M3923 1378
L3910 1413
" />
<path d="M3910 1413
L3900 1448
" />
<path d="M3900 1448
L3892 1483
" />
<path d="M3892 1483
L3886 1519
" />
<path d="M3886 1519
L3882 1554
" />
<path d="M3882 1554
L3878 1626
" />
<path d="M3878 1626
L3879 1698
" />
<path d="M3879 1698
L3883 1773
" />
<path d="M3883 1773
L3890 1850
" />
<path d="M3890 1850
L3900 1928
" />
<path d="M3900 1928
L3912 2009
" />
<path d="M3912 2009
L3938 2178
" />
<path d="M3938 2178
L3939 2179
" />
<path d="M3939 2179
L3939 2180
" />
<path d="M3939 2180
L3960 2317
" />
<path d="M3960 2317
L3984 2451
" />
<path d="M3984 2451
L4009 2583
" />
<path d="M4009 2583
L4036 2713
" />
<path d="M4036 2713
L4091 2971
" />
<path d="M4091 2971
L4148 3228
" />
<path d="M4148 3228
L4087 3257
" />
<path d="M4087 3257
L4028 3289
" />
<path d="M4028 3289
L3970 3322
" />
<path d="M3970 3322
L3914 3356
" />
<path d="M3914 3356
L3859 3393
" />
<path d="M3859 3393
L3805 3431
" />
<path d="M3805 3431
L3754 3471
" />
<path d="M3754 3471
L3703 3512
" />
<path d="M3703 3512
L3655 3555
" />
<path d="M3655 3555
L3608 3600
" />
<path d="M3608 3600
L3562 3646
" />
<path d="M3562 3646
L3519 3694
" />
<path d="M3519 3694
L3477 3743
" />
<path d="M3477 3743
L3438 3794
" />
<path d="M3438 3794
L3400 3846
" />
<path d="M3400 3846
L3364 3899
" />
<path d="M3364 3899
L3330 3954
" />
<path d="M3330 3954
L3298 4010
" />
<path d="M3298 4010
L3268 4067
" />
<path d="M3268 4067
L3241 4125
" />
<path d="M3241 4125
L3215 4185
" />
<path d="M3215 4185
L3192 4246
" />
<path d="M3192 4246
L3171 4308
" />
<path d="M3171 4308
L3152 4371
" />
<path d="M3152 4371
L3136 4435
" />
<path d="M3136 4435
L3122 4500
" />
<path d="M3122 4500
L3110 4566
" />
<path d="M3110 4566
L3101 4633
" />
<path d="M3101 4633
L3095 4701
" />
<path d="M3095 4701
L3091 4769
" />
<path d="M3091 4769
L3089 4839
" />
<path d="M3089 4839
L3091 4909
" />
<path d="M3091 4909
L3095 4983
" />
<path d="M3095 4983
L3100 5019
" />
<path d="M3100 5019
L3105 5055
" />
<path d="M3105 5055
L3112 5089
" />
<path d="M3112 5089
L3120 5124
" />
<path d="M3120 5124
L3130 5157
" />
<path d="M3130 5157
L3141 5190
" />
<path d="M3141 5190
L3153 5222
" />
<path d="M3153 5222
L3167 5254
" />
<path d="M3167 5254
L3181 5284
" />
<path d="M3181 5284
L3198 5314
" />
<path d="M3198 5314
L3215 5342
" />
<path d="M3215 5342
L3234 5370
" />
<path d="M3234 5370
L3255 5396
" />
<path d="M3255 5396
L3277 5422
" />
<path d="M3277 5422
L3300 5447
" />
<path d="M3300 5447
L3324 5470
" />
<path d="M3324 5470
L3349 5492
" />
<path d="M3349 5492
L3375 5513
" />
<path d="M3375 5513
L3402 5532
" />
<path d="M3402 5532
L3431 5550
" />
<path d="M3431 5550
L3460 5568
" />
<path d="M3460 5568
L3490 5584
" />
<path d="M3490 5584
L3520 5599
" />
<path d="M3520 5599
L3552 5612
" />
<path d="M3552 5612
L3617 5637
" />
<path d="M3617 5637
L3685 5657
" />
<path d="M3685 5657
L3755 5672
" />
<path d="M3755 5672
L3758 5673
" />
<path d="M3758 5673
L3913 5698
" />
<path d="M3913 5698
L4061 5718
" />
<path d="M4061 5718
L4205 5734
" />
<path d="M4205 5734
L4347 5744
" />
<path d="M4347 5744
L4488 5751
" />
<path d="M4488 5751
L4631 5753
" />
<path d="M4631 5753
L4776 5752
" />
<path d="M4776 5752
L4926 5748
" />
<path d="M4926 5748
L4981 5888
" />
<path d="M4981 5888
L5035 6017
" />
<path d="M5035 6017
L5093 6147
" />
<path d="M5093 6147
L5161 6294
" />
<path d="M5161 6294
L5124 6356
" />
<path d="M5124 6356
L5090 6418
" />
<path d="M5090 6418
L5056 6481
" />
<path d="M5056 6481
L5024 6544
" />
<path d="M5024 6544
L4964 6671
" />
<path d="M4964 6671
L4909 6800
" />
<path d="M4909 6800
L4858 6929
" />
<path d="M4858 6929
L4813 7060
" />
<path d="M4813 7060
L4771 7192
" />
<path d="M4771 7192
L4734 7325
" />
<path d="M4734 7325
L4701 7458
" />
<path d="M4701 7458
L4671 7593
" />
<path d="M4671 7593
L4645 7728
" />
<path d="M4645 7728
L4622 7864
" />
<path d="M4622 7864
L4601 8001
" />
<path d="M4601 8001
L4584 8138
" />
<path d="M4584 8138
L4569 8275
" />
<path d="M4569 8275
L4557 8413
" />
<path d="M4557 8413
L4557 8413
" />
<path d="M4557 8413
L4545 8560
" />
<path d="M4545 8560
L4536 8709
" />
<path d="M4536 8709
L4527 8858
" />
<path d="M4527 8858
L4521 9008
" />
<path d="M4521 9008
L4516 9159
" />
<path d="M4516 9159
L4514 9310
" />
<path d="M4514 9310
L4514 9462
" />
<path d="M4514 9462
L4517 9613
" />
<path d="M4517 9613
L4522 9765
" />
<path d="M4522 9765
L4530 9917
" />
<path d="M4530 9917
L4541 10068
" />
<path d="M4541 10068
L4556 10219
" />
<path d="M4556 10219
L4574 10369
" />
<path d="M4574 10369
L4595 10518
" />
<path d="M4595 10518
L4621 10667
" />
<path d="M4621 10667
L4650 10815
" />
<path d="M4650 10815
L4650 10815
" />
<path d="M4650 10815
L4666 10886
" />
<path d="M4666 10886
L4685 10959
" />
<path d="M4685 10959
L4707 11035
" />
<path d="M4707 11035
L4732 11113
" />
<path d="M4732 11113
L4759 11194
" />
<path d="M4759 11194
L4789 11276
" />
<path d="M4789 11276
L4822 11361
" />
<path d="M4822 11361
L4858 11447
" />
<path d="M4858 11447
L4897 11534
" />
<path d="M4897 11534
L4938 11623
" />
<path d="M4938 11623
L4983 11713
" />
<path d="M4983 11713
L5031 11804
" />
<path d="M5031 11804
L5082 11895
" />
<path d="M5082 11895
L5136 11987
" />
<path d="M5136 11987
L5194 12079
" />
<path d="M5194 12079
L5254 12171
" />
<path d="M5254 12171
L5318 12263
" />
<path d="M5318 12263
L5385 12355
" />
<path d="M5385 12355
L5456 12446
" />
<path d="M5456 12446
L5530 12536
" />
<path d="M5530 12536
L5607 12626
" />
<path d="M5607 12626
L5688 12714
" />
<path d="M5688 12714
L5773 12801
" />
<path d="M5773 12801
L5860 12886
" />
<path d="M5860 12886
L5952 12969
" />
<path d="M5952 12969
L6047 13051
" />
<path d="M6047 13051
L6146 13130
" />
<path d="M6146 13130
L6248 13207
" />
<path d="M6248 13207
L6355 13282
" />
<path d="M6355 13282
L6465 13354
" />
<path d="M6465 13354
L6578 13422
" />
<path d="M6578 13422
L6696 13488
" />
<path d="M6696 13488
L6621 13560
" />
<path d="M6621 13560
L6545 13636
" />
<path d="M6545 13636
L6469 13716
" />
<path d="M6469 13716
L6392 13800
" />
<path d="M6392 13800
L6315 13886
" />
<path d="M6315 13886
L6239 13976
" />
<path d="M6239 13976
L6162 14068
" />
<path d="M6162 14068
L6086 14164
" />
<path d="M6086 14164
L6010 14262
" />
<path d="M6010 14262
L5934 14362
" />
<path d="M5934 14362
L5859 14464
" />
<path d="M5859 14464
L5785 14569
" />
<path d="M5785 14569
L5712 14675
" />
<path d="M5712 14675
L5640 14783
" />
<path d="M5640 14783
L5569 14892
" />
<path d="M5569 14892
L5499 15002
" />
<path d="M5499 15002
L5431 15114
" />
<path d="M5431 15114
L5364 15226
" />
<path d="M5364 15226
L5299 15340
" />
<path d="M5299 15340
L5235 15453
" />
<path d="M5235 15453
L5174 15567
" />
<path d="M5174 15567
L5115 15682
" />
<path d="M5115 15682
L5058 15796
" />
<path d="M5058 15796
L5003 15910
" />
<path d="M5003 15910
L4951 16023
" />
<path d="M4951 16023
L4902 16136
" />
<path d="M4902 16136
L4855 16248
" />
<path d="M4855 16248
L4811 16360
" />
<path d="M4811 16360
L4770 16470
" />
<path d="M4770 16470
L4732 16579
" />
<path d="M4732 16579
L4697 16686
" />
<path d="M4697 16686
L4666 16792
" />
<path d="M4666 16792
L4588 16763
" />
<path d="M4588 16763
L4510 16737
" />
<path d="M4510 16737
L4431 16713
" />
<path d="M4431 16713
L4352 16690
" />
<path d="M4352 16690
L4273 16668
" />
<path d="M4273 16668
L4194 16649
" />
<path d="M4194 16649
L4115 16631
" />
<path d="M4115 16631
L4036 16615
" />
<path d="M4036 16615
L3956 16600
" />
<path d="M3956 16600
L3877 16586
" />
<path d="M3877 16586
L3797 16575
" />
<path d="M3797 16575
L3717 16564
" />
<path d="M3717 16564
L3637 16556
" />
<path d="M3637 16556
L3557 16548
" />
<path d="M3557 16548
L3477 16542
" />
<path d="M3477 16542
L3397 16537
" />
<path d="M3397 16537
L3237 16532
" />
<path d="M3237 16532
L3076 16532
" />
<path d="M3076 16532
L2916 16536
" />
<path d="M2916 16536
L2755 16546
" />
<path d="M2755 16546
L2595 16559
" />
<path d="M2595 16559
L2435 16577
" />
<path d="M2435 16577
L2275 16599
" />
<path d="M2275 16599
L2115 16624
" />
<path d="M2115 16624
L2115 16624
" />
<path d="M2115 16624
L2027 16639
" />
<path d="M2027 16639
L1939 16657
" />
<path d="M1939 16657
L1850 16678
" />
<path d="M1850 16678
L1762 16701
" />
<path d="M1762 16701
L1674 16727
" />
<path d="M1674 16727
L1586 16755
" />
<path d="M1586 16755
L1498 16786
" />
<path d="M1498 16786
L1412 16819
" />
<path d="M1412 16819
L1326 16855
" />
<path d="M1326 16855
L1241 16894
" />
<path d="M1241 16894
L1158 16936
" />
<path d="M1158 16936
L1075 16980
" />
<path d="M1075 16980
L995 17027
" />
<path d="M995 17027
L916 17077
" />
<path d="M916 17077
L839 17130
" />
<path d="M839 17130
L764 17185
" />
<path d="M764 17185
L691 17244
" />
<path d="M691 17244
L620 17306
" />
<path d="M620 17306
L553 17371
" />
<path d="M553 17371
L488 17438
" />
<path d="M488 17438
L426 17509
" />
<path d="M426 17509
L368 17583
" />
<path d="M368 17583
L314 17660
" />
<path d="M314 17660
L263 17740
" />
<path d="M263 17740
L216 17823
" />
<path d="M216 17823
L174 17909
" />
<path d="M174 17909
L155 17953
" />
<path d="M155 17953
L136 17998
" />
<path d="M136 17998
L119 18043
" />
<path d="M119 18043
L103 18090
" />
<path d="M103 18090
L89 18137
" />
<path d="M89 18137
L75 18184
" />
<path d="M75 18184
L63 18232
" />
<path d="M63 18232
L53 18282
" />
<path d="M53 18282
L44 18331
" />
<path d="M44 18331
L36 18382
" />
<path d="M36 18382
L29 18433
" />
<path d="M29 18433
L24 18485
" />
<path d="M24 18485
L24 18485
" />
<path d="M24 18485
L21 18532
" />
<path d="M21 18532
L19 18579
" />
<path d="M19 18579
L19 18626
" />
<path d="M19 18626
L20 18672
" />
<path d="M20 18672
L26 18762
" />
<path d="M26 18762
L37 18851
" />
<path d="M37 18851
L53 18938
" />
<path d="M53 18938
L74 19024
" />
<path d="M74 19024
L100 19107
" />
<path d="M100 19107
L129 19188
" />
<path d="M129 19188
L163 19267
" />
<path d="M163 19267
L201 19343
" />
<path d="M201 19343
L242 19417
" />
<path d="M242 19417
L288 19489
" />
<path d="M288 19489
L336 19559
" />
<path d="M336 19559
L388 19626
" />
<path d="M388 19626
L442 19690
" />
<path d="M442 19690
L500 19752
" />
<path d="M500 19752
L560 19811
" />
<path d="M560 19811
L622 19868
" />
<path d="M622 19868
L686 19922
" />
<path d="M686 19922
L753 19973
" />
<path d="M753 19973
L822 20022
" />
<path d="M822 20022
L892 20069
" />
<path d="M892 20069
L964 20113
" />
<path d="M964 20113
L1037 20154
" />
<path d="M1037 20154
L1112 20193
" />
<path d="M1112 20193
L1188 20229
" />
<path d="M1188 20229
L1265 20263
" />
<path d="M1265 20263
L1343 20294
" />
<path d="M1343 20294
L1421 20322
" />
<path d="M1421 20322
L1501 20348
" />
<path d="M1501 20348
L1580 20371
" />
<path d="M1580 20371
L1660 20391
" />
<path d="M1660 20391
L1661 20391
" />
<path d="M1661 20391
L1661 20392
" />
<path d="M1661 20392
L1755 20413
" />
<path d="M1755 20413
L1849 20433
" />
<path d="M1849 20433
L1942 20450
" />
<path d="M1942 20450
L2036 20465
" />
<path d="M2036 20465
L2129 20478
" />
<path d="M2129 20478
L2221 20489
" />
<path d="M2221 20489
L2314 20497
" />
<path d="M2314 20497
L2406 20503
" />
<path d="M2406 20503
L2498 20508
" />
<path d="M2498 20508
L2589 20510
" />
<path d="M2589 20510
L2680 20510
" />
<path d="M2680 20510
L2771 20508
" />
<path d="M2771 20508
L2862 20504
" />
<path d="M2862 20504
L2952 20499
" />
<path d="M2952 20499
L3042 20491
" />
<path d="M3042 20491
L3132 20481
" />
<path d="M3132 20481
L3221 20470
" />
<path d="M3221 20470
L3310 20456
" />
<path d="M3310 20456
L3399 20441
" />
<path d="M3399 20441
L3487 20424
" />
<path d="M3487 20424
L3575 20405
" />
<path d="M3575 20405
L3663 20384
" />
<path d="M3663 20384
L3750 20362
" />
<path d="M3750 20362
L3837 20338
" />
<path d="M3837 20338
L3924 20312
" />
<path d="M3924 20312
L4010 20285
" />
<path d="M4010 20285
L4096 20256
" />
<path d="M4096 20256
L4181 20225
" />
<path d="M4181 20225
L4266 20193
" />
<path d="M4266 20193
L4351 20160
" />
<path d="M4351 20160
L4435 20124
" />
<path d="M4435 20124
L4519 20088
" />
<path d="M4519 20088
L4548 20191
" />
<path d="M4548 20191
L4579 20293
" />
<path d="M4579 20293
L4611 20395
" />
<path d="M4611 20395
L4644 20494
" />
<path d="M4644 20494
L4679 20593
" />
<path d="M4679 20593
L4715 20691
" />
<path d="M4715 20691
L4753 20787
" />
<path d="M4753 20787
L4792 20882
" />
<path d="M4792 20882
L4833 20976
" />
<path d="M4833 20976
L4875 21068
" />
<path d="M4875 21068
L4918 21160
" />
<path d="M4918 21160
L4963 21250
" />
<path d="M4963 21250
L5010 21339
" />
<path d="M5010 21339
L5058 21427
" />
<path d="M5058 21427
L5107 21513
" />
<path d="M5107 21513
L5158 21599
" />
<path d="M5158 21599
L5210 21683
" />
<path d="M5210 21683
L5264 21766
" />
<path d="M5264 21766
L5319 21848
" />
<path d="M5319 21848
L5376 21929
" />
<path d="M5376 21929
L5434 22009
" />
<path d="M5434 22009
L5493 22087
" />
<path d="M5493 22087
L5554 22165
" />
<path d="M5554 22165
L5617 22241
" />
<path d="M5617 22241
L5681 22316
" />
<path d="M5681 22316
L5746 22390
" />
<path d="M5746 22390
L5813 22462
" />
<path d="M5813 22462
L5881 22534
" />
<path d="M5881 22534
L5951 22604
" />
<path d="M5951 22604
L6023 22674
" />
<path d="M6023 22674
L6095 22742
" />
<path d="M6095 22742
L6170 22809
" />
<path d="M6170 22809
L6075 22858
" />
<path d="M6075 22858
L5982 22910
" />
<path d="M5982 22910
L5891 22965
" />
<path d="M5891 22965
L5801 23023
" />
<path d="M5801 23023
L5714 23083
" />
<path d="M5714 23083
L5629 23145
" />
<path d="M5629 23145
L5545 23210
" />
<path d="M5545 23210
L5463 23276
" />
<path d="M5463 23276
L5383 23345
" />
<path d="M5383 23345
L5304 23416
" />
<path d="M5304 23416
L5228 23489
" />
<path d="M5228 23489
L5152 23563
" />
<path d="M5152 23563
L5079 23639
" />
<path d="M5079 23639
L5007 23717
" />
<path d="M5007 23717
L4936 23796
" />
<path d="M4936 23796
L4867 23876
" />
<path d="M4867 23876
L4799 23957
" />
<path d="M4799 23957
L4732 24040
" />
<path d="M4732 24040
L4667 24124
" />
<path d="M4667 24124
L4604 24209
" />
<path d="M4604 24209
L4541 24294
" />
<path d="M4541 24294
L4480 24380
" />
<path d="M4480 24380
L4361 24554
" />
<path d="M4361 24554
L4246 24730
" />
<path d="M4246 24730
L4135 24906
" />
<path d="M4135 24906
L4028 25082
" />
<path d="M4028 25082
L3925 25258
" />
<path d="M3925 25258
L3925 25258
" />
<path d="M3925 25258
L3856 25378
" />
<path d="M3856 25378
L3789 25500
" />
<path d="M3789 25500
L3723 25621
" />
<path d="M3723 25621
L3658 25744
" />
<path d="M3658 25744
L3594 25868
" />
<path d="M3594 25868
L3532 25992
" />
<path d="M3532 25992
L3471 26117
" />
<path d="M3471 26117
L3411 26243
" />
<path d="M3411 26243
L3353 26370
" />
<path d="M3353 26370
L3297 26497
" />
<path d="M3297 26497
L3242 26626
" />
<path d="M3242 26626
L3189 26755
" />
<path d="M3189 26755
L3137 26884
" />
<path d="M3137 26884
L3087 27015
" />
<path d="M3087 27015
L3039 27146
" />
<path d="M3039 27146
L2992 27278
" />
<path d="M2992 27278
L2948 27410
" />
<path d="M2948 27410
L2905 27543
" />
<path d="M2905 27543
L2864 27677
" />
<path d="M2864 27677
L2825 27811
" />
<path d="M2825 27811
L2788 27946
" />
<path d="M2788 27946
L2753 28081
" />
<path d="M2753 28081
L2721 28217
" />
<path d="M2721 28217
L2690 28354
" />
<path d="M2690 28354
L2661 28491
" />
<path d="M2661 28491
L2635 28629
" />
<path d="M2635 28629
L2610 28767
" />
<path d="M2610 28767
L2589 28906
" />
<path d="M2589 28906
L2569 29045
" />
<path d="M2569 29045
L2552 29184
" />
<path d="M2552 29184
L2537 29324
" />
<path d="M2537 29324
L2524 29465
" />
<path d="M2524 29465
L2524 29466
" />
<path d="M2524 29466
L2515 29601
" />
<path d="M2515 29601
L2508 29736
" />
<path d="M2508 29736
L2504 29872
" />
<path d="M2504 29872
L2502 30008
" />
<path d="M2502 30008
L2503 30144
" />
<path d="M2503 30144
L2506 30281
" />
<path d="M2506 30281
L2512 30417
" />
<path d="M2512 30417
L2520 30554
" />
<path d="M2520 30554
L2531 30690
" />
<path d="M2531 30690
L2545 30826
" />
<path d="M2545 30826
L2561 30962
" />
<path d="M2561 30962
L2580 31098
" />
<path d="M2580 31098
L2601 31233
" />
<path d="M2601 31233
L2625 31368
" />
<path d="M2625 31368
L2652 31502
" />
<path d="M2652 31502
L2681 31636
" />
<path d="M2681 31636
L2713 31769
" />
<path d="M2713 31769
L2748 31902
" />
<path d="M2748 31902
L2786 32034
" />
<path d="M2786 32034
L2826 32165
" />
<path d="M2826 32165
L2870 32295
" />
<path d="M2870 32295
L2916 32424
" />
<path d="M2916 32424
L2965 32552
" />
<path d="M2965 32552
L3016 32679
" />
<path d="M3016 32679
L3071 32805
" />
<path d="M3071 32805
L3129 32930
" />
<path d="M3129 32930
L3189 33053
" />
<path d="M3189 33053
L3252 33175
" />
<path d="M3252 33175
L3319 33296
" />
<path d="M3319 33296
L3388 33415
" />
<path d="M3388 33415
L3460 33533
" />
<path d="M3460 33533
L3536 33649
" />
<path d="M3536 33649
L3536 33649
" />
<path d="M3536 33649
L3610 33759
" />
<path d="M3610 33759
L3687 33867
" />
<path d="M3687 33867
L3766 33973
" />
<path d="M3766 33973
L3847 34079
" />
<path d="M3847 34079
L3929 34183
" />
<path d="M3929 34183
L4014 34286
" />
<path d="M4014 34286
L4100 34387
" />
<path d="M4100 34387
L4188 34487
" />
<path d="M4188 34487
L4278 34585
" />
<path d="M4278 34585
L4369 34682
" />
<path d="M4369 34682
L4462 34778
" />
<path d="M4462 34778
L4556 34872
" />
<path d="M4556 34872
L4652 34965
" />
<path d="M4652 34965
L4750 35056
" />
<path d="M4750 35056
L4849 35146
" />
<path d="M4849 35146
L4949 35235
" />
<path d="M4949 35235
L5050 35321
" />
<path d="M5050 35321
L5153 35407
" />
<path d="M5153 35407
L5256 35491
" />
<path d="M5256 35491
L5361 35573
" />
<path d="M5361 35573
L5467 35653
" />
<path d="M5467 35653
L5574 35733
" />
<path d="M5574 35733
L5682 35810
" />
<path d="M5682 35810
L5791 35886
" />
<path d="M5791 35886
L5900 35960
" />
<path d="M5900 35960
L6011 36033
" />
<path d="M6011 36033
L6122 36104
" />
<path d="M6122 36104
L6234 36174
" />
<path d="M6234 36174
L6346 36241
" />
<path d="M6346 36241
L6459 36308
" />
<path d="M6459 36308
L6573 36372
" />
<path d="M6573 36372
L6687 36435
" />
<path d="M6687 36435
L6687 36435
" />
<path d="M6687 36435
L6799 36494
" />
<path d="M6799 36494
L6912 36552
" />
<path d="M6912 36552
L7026 36609
" />
<path d="M7026 36609
L7140 36664
" />
<path d="M7140 36664
L7256 36718
" />
<path d="M7256 36718
L7372 36770
" />
<path d="M7372 36770
L7488 36821
" />
<path d="M7488 36821
L7606 36870
" />
<path d="M7606 36870
L7724 36917
" />
<path d="M7724 36917
L7842 36963
" />
<path d="M7842 36963
L7961 37007
" />
<path d="M7961 37007
L8081 37050
" />
<path d="M8081 37050
L8202 37090
" />
<path d="M8202 37090
L8323 37130
" />
<path d="M8323 37130
L8444 37167
" />
<path d="M8444 37167
L8567 37202
" />
<path d="M8567 37202
L8689 37236
" />
<path d="M8689 37236
L8812 37268
" />
<path d="M8812 37268
L8936 37298
" />
<path d="M8936 37298
L9060 37327
" />
<path d="M9060 37327
L9184 37353
" />
<path d="M9184 37353
L9309 37377
" />
<path d="M9309 37377
L9435 37400
" />
<path d="M9435 37400
L9560 37420
" />
<path d="M9560 37420
L9686 37439
" />
<path d="M9686 37439
L9813 37455
" />
<path d="M9813 37455
L9939 37470
" />
<path d="M9939 37470
L10066 37482
" />
<path d="M10066 37482
L10193 37492
" />
<path d="M10193 37492
L10321 37500
" />
<path d="M10321 37500
L10449 37506
" />
<path d="M10449 37506
L10577 37510
" />
<path d="M10577 37510
L10713 37512
" />
<path d="M10713 37512
L10850 37511
" />
<path d="M10850 37511
L10987 37508
" />
<path d="M10987 37508
L11124 37502
" />
<path d="M11124 37502
L11261 37494
" />
<path d="M11261 37494
L11399 37483
" />
<path d="M11399 37483
L11537 37470
" />
<path d="M11537 37470
L11674 37455
" />
<path d="M11674 37455
L11812 37437
" />
<path d="M11812 37437
L11950 37417
" />
<path d="M11950 37417
L12087 37395
" />
<path d="M12087 37395
L12225 37371
" />
<path d="M12225 37371
L12362 37344
" />
<path d="M12362 37344
L12498 37316
" />
<path d="M12498 37316
L12635 37286
" />
<path d="M12635 37286
L12771 37254
" />
<path d="M12771 37254
L12906 37221
" />
<path d="M12906 37221
L13041 37185
" />
<path d="M13041 37185
L13176 37148
" />
<path d="M13176 37148
L13310 37109
" />
<path d="M13310 37109
L13443 37069
" />
<path d="M13443 37069
L13575 37027
" />
<path d="M13575 37027
L13707 36984
" />
<path d="M13707 36984
L13838 36939
" />
<path d="M13838 36939
L13968 36893
" />
<path d="M13968 36893
L14097 36846
" />
<path d="M14097 36846
L14225 36798
" />
<path d="M14225 36798
L14351 36748
" />
<path d="M14351 36748
L14477 36698
" />
<path d="M14477 36698
L14602 36646
" />
<path d="M14602 36646
L14847 36540
" />
<path d="M14847 36540
L14848 36540
" />
<path d="M14848 36540
L14977 36479
" />
<path d="M14977 36479
L15103 36415
" />
<path d="M15103 36415
L15228 36346
" />
<path d="M15228 36346
L15350 36274
" />
<path d="M15350 36274
L15471 36197
" />
<path d="M15471 36197
L15589 36117
" />
<path d="M15589 36117
L15705 36034
" />
<path d="M15705 36034
L15819 35948
" />
<path d="M15819 35948
L15931 35858
" />
<path d="M15931 35858
L16041 35765
" />
<path d="M16041 35765
L16149 35670
" />
<path d="M16149 35670
L16255 35572
" />
<path d="M16255 35572
L16358 35472
" />
<path d="M16358 35472
L16460 35369
" />
<path d="M16460 35369
L16560 35264
" />
<path d="M16560 35264
L16657 35157
" />
<path d="M16657 35157
L16753 35048
" />
<path d="M16753 35048
L16846 34938
" />
<path d="M16846 34938
L16938 34826
" />
<path d="M16938 34826
L17028 34713
" />
<path d="M17028 34713
L17115 34598
" />
<path d="M17115 34598
L17201 34483
" />
<path d="M17201 34483
L17284 34366
" />
<path d="M17284 34366
L17366 34249
" />
<path d="M17366 34249
L17445 34131
" />
<path d="M17445 34131
L17523 34013
" />
<path d="M17523 34013
L17599 33894
" />
<path d="M17599 33894
L17672 33776
" />
<path d="M17672 33776
L17744 33657
" />
<path d="M17744 33657
L17814 33539
" />
<path d="M17814 33539
L17882 33421
" />
<path d="M17882 33421
L17948 33303
" />
<path d="M17948 33303
L17948 33303
" />
<path d="M17948 33303
L18016 33177
" />
<path d="M18016 33177
L18082 33050
" />
<path d="M18082 33050
L18145 32922
" />
<path d="M18145 32922
L18207 32793
" />
<path d="M18207 32793
L18266 32663
" />
<path d="M18266 32663
L18323 32532
" />
<path d="M18323 32532
L18378 32401
" />
<path d="M18378 32401
L18430 32268
" />
<path d="M18430 32268
L18481 32134
" />
<path d="M18481 32134
L18529 32000
" />
<path d="M18529 32000
L18574 31865
" />
<path d="M18574 31865
L18618 31729
" />
<path d="M18618 31729
L18659 31592
" />
<path d="M18659 31592
L18698 31455
" />
<path d="M18698 31455
L18735 31317
" />
<path d="M18735 31317
L18769 31178
" />
<path d="M18769 31178
L18801 31039
" />
<path d="M18801 31039
L18831 30900
" />
<path d="M18831 30900
L18858 30760
" />
<path d="M18858 30760
L18883 30619
" />
<path d="M18883 30619
L18906 30478
" />
<path d="M18906 30478
L18926 30337
" />
<path d="M18926 30337
L18944 30196
" />
<path d="M18944 30196
L18960 30054
" />
<path d="M18960 30054
L18973 29912
" />
<path d="M18973 29912
L18983 29770
" />
<path d="M18983 29770
L18992 29628
" />
<path d="M18992 29628
L18998 29485
" />
<path d="M18998 29485
L19001 29343
" />
<path d="M19001 29343
L19002 29200
" />
<path d="M19002 29200
L19000 29058
" />
<path d="M19000 29058
L18997 28916
" />
<path d="M18997 28916
L18997 28915
" />
<path d="M18997 28915
L18991 28795
" />
<path d="M18991 28795
L18984 28674
" />
<path d="M18984 28674
L18976 28552
" />
<path d="M18976 28552
L18965 28430
" />
<path d="M18965 28430
L18954 28308
" />
<path d="M18954 28308
L18940 28185
" />
<path d="M18940 28185
L18925 28062
" />
<path d="M18925 28062
L18908 27939
" />
<path d="M18908 27939
L18889 27815
" />
<path d="M18889 27815
L18869 27692
" />
<path d="M18869 27692
L18847 27568
" />
<path d="M18847 27568
L18824 27444
" />
<path d="M18824 27444
L18799 27321
" />
<path d="M18799 27321
L18772 27197
" />
<path d="M18772 27197
L18743 27074
" />
<path d="M18743 27074
L18713 26951
" />
<path d="M18713 26951
L18680 26828
" />
<path d="M18680 26828
L18647 26706
" />
<path d="M18647 26706
L18611 26584
" />
<path d="M18611 26584
L18574 26462
" />
<path d="M18574 26462
L18534 26341
" />
<path d="M18534 26341
L18493 26220
" />
<path d="M18493 26220
L18451 26100
" />
<path d="M18451 26100
L18406 25981
" />
<path d="M18406 25981
L18360 25862
" />
<path d="M18360 25862
L18312 25744
" />
<path d="M18312 25744
L18262 25627
" />
<path d="M18262 25627
L18211 25511
" />
<path d="M18211 25511
L18157 25396
" />
<path d="M18157 25396
L18102 25282
" />
<path d="M18102 25282
L18045 25169
" />
<path d="M18045 25169
L17986 25057
" />
<path d="M17986 25057
L17929 24954
" />
<path d="M17929 24954
L17871 24852
" />
<path d="M17871 24852
L17812 24752
" />
<path d="M17812 24752
L17750 24653
" />
<path d="M17750 24653
L17687 24554
" />
<path d="M17687 24554
L17623 24457
" />
<path d="M17623 24457
L17556 24362
" />
<path d="M17556 24362
L17488 24268
" />
<path d="M17488 24268
L17419 24175
" />
<path d="M17419 24175
L17348 24083
" />
<path d="M17348 24083
L17275 23994
" />
<path d="M17275 23994
L17200 23905
" />
<path d="M17200 23905
L17124 23818
" />
<path d="M17124 23818
L17045 23733
" />
<path d="M17045 23733
L16966 23650
" />
<path d="M16966 23650
L16884 23568
" />
<path d="M16884 23568
L16801 23488
" />
<path d="M16801 23488
L16716 23410
" />
<path d="M16716 23410
L16630 23334
" />
<path d="M16630 23334
L16542 23260
" />
<path d="M16542 23260
L16452 23188
" />
<path d="M16452 23188
L16360 23118
" />
<path d="M16360 23118
L16267 23049
" />
<path d="M16267 23049
L16171 22983
" />
<path d="M16171 22983
L16075 22920
" />
<path d="M16075 22920
L15976 22858
" />
<path d="M15976 22858
L15876 22799
" />
<path d="M15876 22799
L15774 22741
" />
<path d="M15774 22741
L15670 22687
" />
<path d="M15670 22687
L15564 22635
" />
<path d="M15564 22635
L15457 22585
" />
<path d="M15457 22585
L15348 22537
" />
<path d="M15348 22537
L15465 22427
" />
<path d="M15465 22427
L15577 22313
" />
<path d="M15577 22313
L15686 22196
" />
<path d="M15686 22196
L15738 22137
" />
<path d="M15738 22137
L15790 22076
" />
<path d="M15790 22076
L15841 22015
" />
<path d="M15841 22015
L15890 21952
" />
<path d="M15890 21952
L15938 21889
" />
<path d="M15938 21889
L15985 21825
" />
<path d="M15985 21825
L16031 21760
" />
<path d="M16031 21760
L16076 21695
" />
<path d="M16076 21695
L16119 21628
" />
<path d="M16119 21628
L16161 21561
" />
<path d="M16161 21561
L16202 21492
" />
<path d="M16202 21492
L16241 21423
" />
<path d="M16241 21423
L16279 21353
" />
<path d="M16279 21353
L16316 21282
" />
<path d="M16316 21282
L16351 21210
" />
<path d="M16351 21210
L16385 21137
" />
<path d="M16385 21137
L16417 21063
" />
<path d="M16417 21063
L16448 20988
" />
<path d="M16448 20988
L16477 20912
" />
<path d="M16477 20912
L16505 20836
" />
<path d="M16505 20836
L16531 20758
" />
<path d="M16531 20758
L16555 20679
" />
<path d="M16555 20679
L16578 20600
" />
<path d="M16578 20600
L16599 20519
" />
<path d="M16599 20519
L16619 20438
" />
<path d="M16619 20438
L16637 20355
" />
<path d="M16637 20355
L16637 20355
" />
<path d="M16637 20355
L16664 20223
" />
<path d="M16664 20223
L16686 20107
" />
<path d="M16686 20107
L16703 20007
" />
<path d="M16703 20007
L16716 19920
" />
<path d="M16716 19920
L16726 19845
" />
<path d="M16726 19845
L16732 19781
" />
<path d="M16732 19781
L16737 19724
" />
<path d="M16737 19724
L16740 19674
" />
<path d="M16740 19674
L16869 19688
" />
<path d="M16869 19688
L16999 19699
" />
<path d="M16999 19699
L17064 19704
" />
<path d="M17064 19704
L17129 19706
" />
<path d="M17129 19706
L17194 19707
" />
<path d="M17194 19707
L17259 19706
" />
<path d="M17259 19706
L17386 19698
" />
<path d="M17386 19698
L17514 19687
" />
<path d="M17514 19687
L17641 19670
" />
<path d="M17641 19670
L17767 19650
" />
<path d="M17767 19650
L17892 19624
" />
<path d="M17892 19624
L18017 19595
" />
<path d="M18017 19595
L18140 19561
" />
<path d="M18140 19561
L18262 19522
" />
<path d="M18262 19522
L18383 19480
" />
<path d="M18383 19480
L18502 19433
" />
<path d="M18502 19433
L18620 19381
" />
<path d="M18620 19381
L18735 19325
" />
<path d="M18735 19325
L18849 19265
" />
<path d="M18849 19265
L18961 19200
" />
<path d="M18961 19200
L19071 19131
" />
<path d="M19071 19131
L19178 19058
" />
<path d="M19178 19058
L19179 19058
" />
<path d="M19179 19058
L19251 19005
" />
<path d="M19251 19005
L19322 18949
" />
<path d="M19322 18949
L19393 18891
" />
<path d="M19393 18891
L19463 18831
" />
<path d="M19463 18831
L19532 18769
" />
<path d="M19532 18769
L19599 18705
" />
<path d="M19599 18705
L19665 18638
" />
<path d="M19665 18638
L19729 18570
" />
<path d="M19729 18570
L19792 18499
" />
<path d="M19792 18499
L19853 18427
" />
<path d="M19853 18427
L19912 18352
" />
<path d="M19912 18352
L19969 18276
" />
<path d="M19969 18276
L20023 18199
" />
<path d="M20023 18199
L20075 18119
" />
<path d="M20075 18119
L20124 18039
" />
<path d="M20124 18039
L20171 17956
" />
<path d="M20171 17956
L20214 17872
" />
<path d="M20214 17872
L20254 17787
" />
<path d="M20254 17787
L20291 17701
" />
<path d="M20291 17701
L20325 17613
" />
<path d="M20325 17613
L20355 17524
" />
<path d="M20355 17524
L20381 17434
" />
<path d="M20381 17434
L20404 17343
" />
<path d="M20404 17343
L20422 17251
" />
<path d="M20422 17251
L20436 17158
" />
<path d="M20436 17158
L20446 17065
" />
<path d="M20446 17065
L20451 16970
" />
<path d="M20451 16970
L20452 16875
" />
<path d="M20452 16875
L20447 16779
" />
<path d="M20447 16779
L20438 16683
" />
<path d="M20438 16683
L20424 16586
" />
<path d="M20424 16586
L20404 16488
" />
<path d="M20404 16488
L20379 16394
" />
<path d="M20379 16394
L20351 16304
" />
<path d="M20351 16304
L20319 16216
" />
<path d="M20319 16216
L20282 16133
" />
<path d="M20282 16133
L20242 16053
" />
<path d="M20242 16053
L20199 15976
" />
<path d="M20199 15976
L20151 15903
" />
<path d="M20151 15903
L20101 15833
" />
<path d="M20101 15833
L20047 15767
" />
<path d="M20047 15767
L19991 15705
" />
<path d="M19991 15705
L19931 15646
" />
<path d="M19931 15646
L19869 15590
" />
<path d="M19869 15590
L19804 15538
" />
<path d="M19804 15538
L19737 15489
" />
<path d="M19737 15489
L19668 15444
" />
<path d="M19668 15444
L19596 15403
" />
<path d="M19596 15403
L19522 15365
" />
<path d="M19522 15365
L19447 15330
" />
<path d="M19447 15330
L19370 15298
" />
<path d="M19370 15298
L19291 15269
" />
<path d="M19291 15269
L19211 15243
" />
<path d="M19211 15243
L19129 15221
" />
<path d="M19129 15221
L19047 15200
" />
<path d="M19047 15200
L18963 15183
" />
<path d="M18963 15183
L18878 15168
" />
<path d="M18878 15168
L18792 15156
" />
<path d="M18792 15156
L18705 15147
" />
<path d="M18705 15147
L18618 15139
" />
<path d="M18618 15139
L18529 15134
" />
<path d="M18529 15134
L18440 15132
" />
<path d="M18440 15132
L18351 15131
" />
<path d="M18351 15131
L18261 15133
" />
<path d="M18261 15133
L18179 15136
" />
<path d="M18179 15136
L18097 15140
" />
<path d="M18097 15140
L18014 15147
" />
<path d="M18014 15147
L17932 15155
" />
<path d="M17932 15155
L17849 15164
" />
<path d="M17849 15164
L17767 15175
" />
<path d="M17767 15175
L17685 15187
" />
<path d="M17685 15187
L17603 15201
" />
<path d="M17603 15201
L17521 15216
" />
<path d="M17521 15216
L17440 15233
" />
<path d="M17440 15233
L17278 15270
" />
<path d="M17278 15270
L17119 15311
" />
<path d="M17119 15311
L16962 15357
" />
<path d="M16962 15357
L16808 15408
" />
<path d="M16808 15408
L16658 15462
" />
<path d="M16658 15462
L16511 15520
" />
<path d="M16511 15520
L16370 15581
" />
<path d="M16370 15581
L16233 15645
" />
<path d="M16233 15645
L16101 15713
" />
<path d="M16101 15713
L15976 15782
" />
<path d="M15976 15782
L15857 15854
" />
<path d="M15857 15854
L15800 15744
" />
<path d="M15800 15744
L15736 15629
" />
<path d="M15736 15629
L15666 15511
" />
<path d="M15666 15511
L15592 15390
" />
<path d="M15592 15390
L15513 15268
" />
<path d="M15513 15268
L15431 15146
" />
<path d="M15431 15146
L15347 15024
" />
<path d="M15347 15024
L15261 14903
" />
<path d="M15261 14903
L15173 14785
" />
<path d="M15173 14785
L15086 14670
" />
<path d="M15086 14670
L15000 14560
" />
<path d="M15000 14560
L14915 14455
" />
<path d="M14915 14455
L14832 14357
" />
<path d="M14832 14357
L14753 14267
" />
<path d="M14753 14267
L14677 14185
" />
<path d="M14677 14185
L14607 14113
" />
<path d="M14607 14113
L14606 14113
" />
<path d="M14606 14113
L14547 14056
" />
<path d="M14547 14056
L14488 14001
" />
<path d="M14488 14001
L14429 13947
" />
<path d="M14429 13947
L14369 13896
" />
<path d="M14369 13896
L14249 13797
" />
<path d="M14249 13797
L14127 13703
" />
<path d="M14127 13703
L14005 13615
" />
<path d="M14005 13615
L13883 13530
" />
<path d="M13883 13530
L13760 13448
" />
<path d="M13760 13448
L13636 13369
" />
<path d="M13636 13369
L13389 13215
" />
<path d="M13389 13215
L13143 13061
" />
<path d="M13143 13061
L13021 12982
" />
<path d="M13021 12982
L12899 12901
" />
<path d="M12899 12901
L12778 12817
" />
<path d="M12778 12817
L12658 12729
" />
<path d="M12658 12729
L12728 12621
" />
<path d="M12728 12621
L12794 12512
" />
<path d="M12794 12512
L12858 12404
" />
<path d="M12858 12404
L12919 12295
" />
<path d="M12919 12295
L12977 12187
" />
<path d="M12977 12187
L13031 12078
" />
<path d="M13031 12078
L13084 11970
" />
<path d="M13084 11970
L13133 11861
" />
<path d="M13133 11861
L13180 11752
" />
<path d="M13180 11752
L13224 11642
" />
<path d="M13224 11642
L13265 11532
" />
<path d="M13265 11532
L13304 11422
" />
<path d="M13304 11422
L13341 11310
" />
<path d="M13341 11310
L13375 11199
" />
<path d="M13375 11199
L13407 11086
" />
<path d="M13407 11086
L13437 10973
" />
<path d="M13437 10973
L13465 10858
" />
<path d="M13465 10858
L13490 10743
" />
<path d="M13490 10743
L13514 10627
" />
<path d="M13514 10627
L13536 10510
" />
<path d="M13536 10510
L13555 10391
" />
<path d="M13555 10391
L13573 10271
" />
<path d="M13573 10271
L13589 10150
" />
<path d="M13589 10150
L13603 10028
" />
<path d="M13603 10028
L13616 9904
" />
<path d="M13616 9904
L13627 9778
" />
<path d="M13627 9778
L13637 9651
" />
<path d="M13637 9651
L13645 9523
" />
<path d="M13645 9523
L13652 9392
" />
<path d="M13652 9392
L13657 9260
" />
<path d="M13657 9260
L13664 8989
" />
<path d="M13664 8989
L13664 8977
" />
<path d="M13664 8977
L13654 8818
" />
<path d="M13654 8818
L13641 8660
" />
<path d="M13641 8660
L13623 8503
" />
<path d="M13623 8503
L13602 8348
" />
<path d="M13602 8348
L13577 8193
" />
<path d="M13577 8193
L13548 8040
" />
<path d="M13548 8040
L13516 7889
" />
<path d="M13516 7889
L13480 7738
" />
<path d="M13480 7738
L13440 7589
" />
<path d="M13440 7589
L13396 7442
" />
<path d="M13396 7442
L13349 7296
" />
<path d="M13349 7296
L13298 7151
" />
<path d="M13298 7151
L13244 7008
" />
<path d="M13244 7008
L13186 6867
" />
<path d="M13186 6867
L13124 6727
" />
<path d="M13124 6727
L13059 6588
" />
<path d="M13059 6588
L12991 6452
" />
<path d="M12991 6452
L12919 6317
" />
<path d="M12919 6317
L12844 6184
" />
<path d="M12844 6184
L12765 6053
" />
<path d="M12765 6053
L12683 5923
" />
<path d="M12683 5923
L12598 5796
" />
<path d="M12598 5796
L12509 5670
" />
<path d="M12509 5670
L12417 5547
" />
<path d="M12417 5547
L12322 5425
" />
<path d="M12322 5425
L12223 5306
" />
<path d="M12223 5306
L12122 5188
" />
<path d="M12122 5188
L12017 5073
" />
<path d="M12017 5073
L11909 4959
" />
<path d="M11909 4959
L11798 4848
" />
<path d="M11798 4848
L11684 4740
" />
<path d="M11684 4740
L11566 4633
" />
<path d="M11566 4633
L11447 4174
" />
<path d="M11447 4174
L11325 3724
" />
<path d="M11325 3724
L11202 3279
" />
<path d="M11202 3279
L11075 2838
" />
<path d="M11075 2838
L10944 2398
" />
<path d="M10944 2398
L10808 1956
" />
<path d="M10808 1956
L10665 1510
" />
<path d="M10665 1510
L10515 1059
" />
<path d="M10515 1059
L10496 997
" />
<path d="M10496 997
L10474 930
" />
<path d="M10474 930
L10449 861
" />
<path d="M10449 861
L10420 788
" />
<path d="M10420 788
L10387 714
" />
<path d="M10387 714
L10350 638
" />
<path d="M10350 638
L10310 562
" />
<path d="M10310 562
L10266 487
" />
<path d="M10266 487
L10219 413
" />
<path d="M10219 413
L10167 341
" />
<path d="M10167 341
L10140 306
" />
<path d="M10140 306
L10112 272
" />
<path d="M10112 272
L10082 240
" />
<path d="M10082 240
L10051 208
" />
<path d="M10051 208
L10018 179
" />
<path d="M10018 179
L9984 151
" />
<path d="M9984 151
L9948 125
" />
<path d="M9948 125
L9911 102
" />
<path d="M9911 102
L9871 81
" />
<path d="M9871 81
L9830 63
" />
<path d="M9830 63
L9787 48
" />
<path d="M9787 48
L9742 35
" />
<path d="M9742 35
L9712 29
" />
<path d="M9712 29
L9682 24
" />
<path d="M9682 24
L9652 21
" />
<path d="M9652 21
L9623 19
" />
<path d="M9623 19
L9593 19
" />
<path d="M9593 19
L9565 20
" />
<path d="M9565 20
L9537 23
" />
<path d="M9537 23
L9509 27
" />
<path d="M9509 27
L9509 27
" />
<path d="M9509 27
L9509 27
" />
<g >
</g>
<g >
</g>
<g >
</g>
<g >
</g>
<g >
</g>
<g >
</g>
<g >
</g>
<g >
</g>
<g >
</g>
<g >
</g>
<g >
</g>
<g >
</g>
<g >
</g>
</g> 
</svg>
