  0
SECTION
  2
HEADER
  9
$ACADVER
  1
AC1014
  9
$HANDSEED
  5
FFFF
  9
$MEASUREMENT
 70
     1
  0
ENDSEC
  0
SECTION
  2
TABLES
  0
TABLE
  2
VPORT
  5
8
330
0
100
AcDbSymbolTable
 70
     4
  0
VPORT
  5
2E
330
8
100
AcDbSymbolTableRecord
100
AcDbViewportTableRecord
  2
*ACTIVE
 70
     0
 10
0.0
 20
0.0
 11
1.0
 21
1.0
 12
210.0
 22
148.5
 13
0.0
 23
0.0
 14
10.0
 24
10.0
 15
10.0
 25
10.0
 16
0.0
 26
0.0
 36
1.0
 17
0.0
 27
0.0
 37
0.0
 40
341.0
 41
1.24
 42
50.0
 43
0.0
 44
0.0
 50
0.0
 51
0.0
 71
     0
 72
   100
 73
     1
 74
     3
 75
     0
 76
     0
 77
     0
 78
     0
  0
ENDTAB
  0
TABLE
  2
LTYPE
  5
5
330
0
100
AcDbSymbolTable
 70
     1
  0
LTYPE
  5
14
330
5
100
AcDbSymbolTableRecord
100
AcDbLinetypeTableRecord
  2
BYBLOCK
 70
     0
  3

 72
    65
 73
     0
 40
0.0
  0
LTYPE
  5
15
330
5
100
AcDbSymbolTableRecord
100
AcDbLinetypeTableRecord
  2
BYLAYER
 70
     0
  3

 72
    65
 73
     0
 40
0.0
  0
LTYPE
  5
16
330
5
100
AcDbSymbolTableRecord
100
AcDbLinetypeTableRecord
  2
CONTINUOUS
 70
     0
  3
Solid line
 72
    65
 73
     0
 40
0.0
  0
ENDTAB
  0
TABLE
  2
LAYER
  5
2
100
AcDbSymbolTable
 70
2
  0
LAYER
  5
50
100
AcDbSymbolTableRecord
100
AcDbLayerTableRecord
  2
0
 70
0
  6
CONTINUOUS
  0
LAYER
  5
51
100
AcDbSymbolTableRecord
100
AcDbLayerTableRecord
  2
Layer_1
 70
0
  6
CONTINUOUS
  0
ENDTAB
  0
TABLE
  2
STYLE
  5
3
330
0
100
AcDbSymbolTable
 70
     1
  0
STYLE
  5
11
330
3
100
AcDbSymbolTableRecord
100
AcDbTextStyleTableRecord
  2
STANDARD
 70
     0
 40
0.0
 41
1.0
 50
0.0
 71
     0
 42
2.5
  3
txt
  4

  0
ENDTAB
  0
TABLE
  2
VIEW
  5
6
330
0
100
AcDbSymbolTable
 70
     0
  0
ENDTAB
  0
TABLE
  2
UCS
  5
7
330
0
100
AcDbSymbolTable
 70
     0
  0
ENDTAB
  0
TABLE
  2
APPID
  5
9
330
0
100
AcDbSymbolTable
 70
     2
  0
APPID
  5
12
330
9
100
AcDbSymbolTableRecord
100
AcDbRegAppTableRecord
  2
ACAD
 70
     0
  0
ENDTAB
  0
TABLE
  2
DIMSTYLE
  5
A
330
0
100
AcDbSymbolTable
 70
     1
  0
DIMSTYLE
105
27
330
A
100
AcDbSymbolTableRecord
100
AcDbDimStyleTableRecord
  2
ISO-25
 70
     0
  3

  4

  5

  6

  7

 40
1.0
 41
2.5
 42
0.625
 43
3.75
 44
1.25
 45
0.0
 46
0.0
 47
0.0
 48
0.0
140
2.5
141
2.5
142
0.0
143
0.03937007874016
144
1.0
145
0.0
146
1.0
147
0.625
 71
     0
 72
     0
 73
     0
 74
     0
 75
     0
 76
     0
 77
     1
 78
     8
170
     0
171
     3
172
     1
173
     0
174
     0
175
     0
176
     0
177
     0
178
     0
270
     2
271
     2
272
     2
273
     2
274
     3
340
11
275
     0
280
     0
281
     0
282
     0
283
     0
284
     8
285
     0
286
     0
287
     3
288
     0
  0
ENDTAB
  0
TABLE
  2
BLOCK_RECORD
  5
1
330
0
100
AcDbSymbolTable
 70
     1
  0
BLOCK_RECORD
  5
1F
330
1
100
AcDbSymbolTableRecord
100
AcDbBlockTableRecord
  2
*MODEL_SPACE
  0
BLOCK_RECORD
  5
1B
330
1
100
AcDbSymbolTableRecord
100
AcDbBlockTableRecord
  2
*PAPER_SPACE
  0
ENDTAB
  0
ENDSEC
  0
SECTION
  2
BLOCKS
  0
BLOCK
  5
20
330
1F
100
AcDbEntity
  8
0
100
AcDbBlockBegin
  2
*MODEL_SPACE
 70
     0
 10
0.0
 20
0.0
 30
0.0
  3
*MODEL_SPACE
  1

  0
ENDBLK
  5
21
330
1F
100
AcDbEntity
  8
0
100
AcDbBlockEnd
  0
BLOCK
  5
1C
330
1B
100
AcDbEntity
 67
     1
  8
0
100
AcDbBlockBegin
  2
*PAPER_SPACE
  1

  0
ENDBLK
  5
1D
330
1B
100
AcDbEntity
 67
     1
  8
0
100
AcDbBlockEnd
  0
ENDSEC
  0
SECTION
  2
ENTITIES
  0
SPLINE
  5
100
100
AcDbEntity
  8
Layer_1
 62
5
100
AcDbSpline
 70
8
 71
3
 72
8
 73
4
 74
0
 40
0
 40
0
 40
0
 40
0
 40
1
 40
1
 40
1
 40
1
 10
153.182883
 20
143.556627
 30
0.0
 10
152.672677
 20
144.821727
 30
0.0
 10
150.798690
 20
147.379949
 30
0.0
 10
149.862205
 20
148.305014
 30
0.0
  0
SPLINE
  5
101
100
AcDbEntity
  8
Layer_1
 62
5
100
AcDbSpline
 70
8
 71
3
 72
8
 73
4
 74
0
 40
0
 40
0
 40
0
 40
0
 40
1
 40
1
 40
1
 40
1
 10
149.862205
 20
148.305014
 30
0.0
 10
148.240487
 20
149.903891
 30
0.0
 10
146.384167
 20
150.594656
 30
0.0
 10
144.602561
 20
152.033646
 30
0.0
  0
SPLINE
  5
102
100
AcDbEntity
  8
Layer_1
 62
5
100
AcDbSpline
 70
8
 71
3
 72
8
 73
4
 74
0
 40
0
 40
0
 40
0
 40
0
 40
1
 40
1
 40
1
 40
1
 10
144.602561
 20
152.033646
 30
0.0
 10
146.702472
 20
155.050236
 30
0.0
 10
147.260857
 20
157.823420
 30
0.0
 10
147.326842
 20
161.667059
 30
0.0
  0
SPLINE
  5
103
100
AcDbEntity
  8
Layer_1
 62
5
100
AcDbSpline
 70
8
 71
3
 72
8
 73
4
 74
0
 40
0
 40
0
 40
0
 40
0
 40
1
 40
1
 40
1
 40
1
 10
147.326842
 20
161.667059
 30
0.0
 10
147.121272
 20
165.915505
 30
0.0
 10
145.248302
 20
169.684287
 30
0.0
 10
142.050547
 20
172.470902
 30
0.0
  0
SPLINE
  5
104
100
AcDbEntity
  8
Layer_1
 62
5
100
AcDbSpline
 70
8
 71
3
 72
8
 73
4
 74
0
 40
0
 40
0
 40
0
 40
0
 40
1
 40
1
 40
1
 40
1
 10
142.050547
 20
172.470902
 30
0.0
 10
141.228268
 20
175.668654
 30
0.0
 10
140.405988
 20
178.546635
 30
0.0
 10
139.343877
 20
181.675866
 30
0.0
  0
SPLINE
  5
105
100
AcDbEntity
  8
Layer_1
 62
5
100
AcDbSpline
 70
8
 71
3
 72
8
 73
4
 74
0
 40
0
 40
0
 40
0
 40
0
 40
1
 40
1
 40
1
 40
1
 10
139.343877
 20
181.675866
 30
0.0
 10
139.149727
 20
182.383941
 30
0.0
 10
138.533017
 20
183.754407
 30
0.0
 10
137.733579
 20
183.937136
 30
0.0
  0
SPLINE
  5
106
100
AcDbEntity
  8
Layer_1
 62
5
100
AcDbSpline
 70
8
 71
3
 72
8
 73
4
 74
0
 40
0
 40
0
 40
0
 40
0
 40
1
 40
1
 40
1
 40
1
 10
137.733579
 20
183.937136
 30
0.0
 10
137.162551
 20
184.074182
 30
0.0
 10
136.728570
 20
183.685884
 30
0.0
 10
136.271748
 20
183.434631
 30
0.0
  0
SPLINE
  5
107
100
AcDbEntity
  8
Layer_1
 62
5
100
AcDbSpline
 70
8
 71
3
 72
8
 73
4
 74
0
 40
0
 40
0
 40
0
 40
0
 40
1
 40
1
 40
1
 40
1
 10
136.271748
 20
183.434631
 30
0.0
 10
135.540833
 20
183.046333
 30
0.0
 10
134.741394
 20
182.795081
 30
0.0
 10
133.941955
 20
182.612352
 30
0.0
  0
SPLINE
  5
108
100
AcDbEntity
  8
Layer_1
 62
5
100
AcDbSpline
 70
8
 71
3
 72
8
 73
4
 74
0
 40
0
 40
0
 40
0
 40
0
 40
1
 40
1
 40
1
 40
1
 10
133.941955
 20
182.612352
 30
0.0
 10
130.675678
 20
181.904278
 30
0.0
 10
127.272353
 20
181.630184
 30
0.0
 10
123.983234
 20
181.150521
 30
0.0
  0
SPLINE
  5
109
100
AcDbEntity
  8
Layer_1
 62
5
100
AcDbSpline
 70
8
 71
3
 72
8
 73
4
 74
0
 40
0
 40
0
 40
0
 40
0
 40
1
 40
1
 40
1
 40
1
 10
123.983234
 20
181.150521
 30
0.0
 10
123.252319
 20
181.059157
 30
0.0
 10
123.389365
 20
180.214036
 30
0.0
 10
123.574442
 20
179.027180
 30
0.0
  0
SPLINE
  5
10a
100
AcDbEntity
  8
Layer_1
 62
5
100
AcDbSpline
 70
8
 71
3
 72
8
 73
4
 74
0
 40
0
 40
0
 40
0
 40
0
 40
1
 40
1
 40
1
 40
1
 10
123.574442
 20
179.027180
 30
0.0
 10
123.722542
 20
178.001509
 30
0.0
 10
123.960953
 20
177.051760
 30
0.0
 10
124.170093
 20
176.044253
 30
0.0
  0
SPLINE
  5
10b
100
AcDbEntity
  8
Layer_1
 62
5
100
AcDbSpline
 70
8
 71
3
 72
8
 73
4
 74
0
 40
0
 40
0
 40
0
 40
0
 40
1
 40
1
 40
1
 40
1
 10
124.170093
 20
176.044253
 30
0.0
 10
122.457010
 20
175.427543
 30
0.0
 10
121.356507
 20
173.909891
 30
0.0
 10
121.425030
 20
172.036921
 30
0.0
  0
SPLINE
  5
10c
100
AcDbEntity
  8
Layer_1
 62
5
100
AcDbSpline
 70
8
 71
3
 72
8
 73
4
 74
0
 40
0
 40
0
 40
0
 40
0
 40
1
 40
1
 40
1
 40
1
 10
121.425030
 20
172.036921
 30
0.0
 10
121.447872
 20
171.191800
 30
0.0
 10
121.904694
 20
170.712137
 30
0.0
 10
122.726973
 20
170.552249
 30
0.0
  0
SPLINE
  5
10d
100
AcDbEntity
  8
Layer_1
 62
5
100
AcDbSpline
 70
8
 71
3
 72
8
 73
4
 74
0
 40
0
 40
0
 40
0
 40
0
 40
1
 40
1
 40
1
 40
1
 10
122.726973
 20
170.552249
 30
0.0
 10
123.891870
 20
170.346679
 30
0.0
 10
124.735065
 20
170.302516
 30
0.0
 10
125.922802
 20
170.371039
 30
0.0
  0
SPLINE
  5
10e
100
AcDbEntity
  8
Layer_1
 62
5
100
AcDbSpline
 70
8
 71
3
 72
8
 73
4
 74
0
 40
0
 40
0
 40
0
 40
0
 40
1
 40
1
 40
1
 40
1
 10
125.922802
 20
170.371039
 30
0.0
 10
126.274699
 20
169.406359
 30
0.0
 10
126.299790
 20
169.427462
 30
0.0
 10
126.733771
 20
168.485264
 30
0.0
  0
SPLINE
  5
10f
100
AcDbEntity
  8
Layer_1
 62
5
100
AcDbSpline
 70
8
 71
3
 72
8
 73
4
 74
0
 40
0
 40
0
 40
0
 40
0
 40
1
 40
1
 40
1
 40
1
 10
126.733771
 20
168.485264
 30
0.0
 10
125.683081
 20
166.840704
 30
0.0
 10
125.308018
 20
165.001861
 30
0.0
 10
125.148130
 20
163.083208
 30
0.0
  0
SPLINE
  5
110
100
AcDbEntity
  8
Layer_1
 62
5
100
AcDbSpline
 70
8
 71
3
 72
8
 73
4
 74
0
 40
0
 40
0
 40
0
 40
0
 40
1
 40
1
 40
1
 40
1
 10
125.148130
 20
163.083208
 30
0.0
 10
124.988243
 20
161.118873
 30
0.0
 10
124.965402
 20
159.040332
 30
0.0
 10
125.376541
 20
157.121680
 30
0.0
  0
SPLINE
  5
111
100
AcDbEntity
  8
Layer_1
 62
5
100
AcDbSpline
 70
8
 71
3
 72
8
 73
4
 74
0
 40
0
 40
0
 40
0
 40
0
 40
1
 40
1
 40
1
 40
1
 10
125.376541
 20
157.121680
 30
0.0
 10
125.776261
 20
155.282971
 30
0.0
 10
127.421474
 20
151.880354
 30
0.0
 10
130.923476
 20
150.334448
 30
0.0
  0
SPLINE
  5
112
100
AcDbEntity
  8
Layer_1
 62
5
100
AcDbSpline
 70
8
 71
3
 72
8
 73
4
 74
0
 40
0
 40
0
 40
0
 40
0
 40
1
 40
1
 40
1
 40
1
 10
130.923476
 20
150.334448
 30
0.0
 10
128.830359
 20
148.646120
 30
0.0
 10
125.922282
 20
144.163165
 30
0.0
 10
125.270260
 20
141.234447
 30
0.0
  0
SPLINE
  5
113
100
AcDbEntity
  8
Layer_1
 62
5
100
AcDbSpline
 70
8
 71
3
 72
8
 73
4
 74
0
 40
0
 40
0
 40
0
 40
0
 40
1
 40
1
 40
1
 40
1
 10
125.270260
 20
141.234447
 30
0.0
 10
123.109911
 20
142.178541
 30
0.0
 10
120.831162
 20
142.183595
 30
0.0
 10
118.547051
 20
141.795297
 30
0.0
  0
SPLINE
  5
114
100
AcDbEntity
  8
Layer_1
 62
5
100
AcDbSpline
 70
8
 71
3
 72
8
 73
4
 74
0
 40
0
 40
0
 40
0
 40
0
 40
1
 40
1
 40
1
 40
1
 10
118.547051
 20
141.795297
 30
0.0
 10
116.308623
 20
141.429839
 30
0.0
 10
113.841784
 20
140.036534
 30
0.0
 10
113.636214
 20
137.501171
 30
0.0
  0
SPLINE
  5
115
100
AcDbEntity
  8
Layer_1
 62
5
100
AcDbSpline
 70
8
 71
3
 72
8
 73
4
 74
0
 40
0
 40
0
 40
0
 40
0
 40
1
 40
1
 40
1
 40
1
 10
113.636214
 20
137.501171
 30
0.0
 10
113.453485
 20
135.217061
 30
0.0
 10
115.417820
 20
133.641025
 30
0.0
 10
117.427837
 20
133.161362
 30
0.0
  0
SPLINE
  5
116
100
AcDbEntity
  8
Layer_1
 62
5
100
AcDbSpline
 70
8
 71
3
 72
8
 73
4
 74
0
 40
0
 40
0
 40
0
 40
0
 40
1
 40
1
 40
1
 40
1
 10
117.427837
 20
133.161362
 30
0.0
 10
120.054564
 20
132.521811
 30
0.0
 10
122.546896
 20
132.948572
 30
0.0
 10
124.874476
 20
134.104612
 30
0.0
  0
SPLINE
  5
117
100
AcDbEntity
  8
Layer_1
 62
5
100
AcDbSpline
 70
8
 71
3
 72
8
 73
4
 74
0
 40
0
 40
0
 40
0
 40
0
 40
1
 40
1
 40
1
 40
1
 10
124.874476
 20
134.104612
 30
0.0
 10
125.650774
 20
130.853560
 30
0.0
 10
127.199871
 20
128.338794
 30
0.0
 10
129.600382
 20
126.426064
 30
0.0
  0
SPLINE
  5
118
100
AcDbEntity
  8
Layer_1
 62
5
100
AcDbSpline
 70
8
 71
3
 72
8
 73
4
 74
0
 40
0
 40
0
 40
0
 40
0
 40
1
 40
1
 40
1
 40
1
 10
129.600382
 20
126.426064
 30
0.0
 10
126.799040
 20
125.330045
 30
0.0
 10
124.959470
 20
122.637184
 30
0.0
 10
123.480730
 20
120.096250
 30
0.0
  0
SPLINE
  5
119
100
AcDbEntity
  8
Layer_1
 62
5
100
AcDbSpline
 70
8
 71
3
 72
8
 73
4
 74
0
 40
0
 40
0
 40
0
 40
0
 40
1
 40
1
 40
1
 40
1
 10
123.480730
 20
120.096250
 30
0.0
 10
121.630600
 20
116.898496
 30
0.0
 10
120.282975
 20
113.335283
 30
0.0
 10
119.986041
 20
109.612183
 30
0.0
  0
SPLINE
  5
11a
100
AcDbEntity
  8
Layer_1
 62
5
100
AcDbSpline
 70
8
 71
3
 72
8
 73
4
 74
0
 40
0
 40
0
 40
0
 40
0
 40
1
 40
1
 40
1
 40
1
 10
119.986041
 20
109.612183
 30
0.0
 10
119.711948
 20
106.048971
 30
0.0
 10
120.465704
 20
102.303030
 30
0.0
 10
122.475721
 20
99.288004
 30
0.0
  0
SPLINE
  5
11b
100
AcDbEntity
  8
Layer_1
 62
5
100
AcDbSpline
 70
8
 71
3
 72
8
 73
4
 74
0
 40
0
 40
0
 40
0
 40
0
 40
1
 40
1
 40
1
 40
1
 10
122.475721
 20
99.288004
 30
0.0
 10
124.417215
 20
96.387184
 30
0.0
 10
127.272353
 20
94.011709
 30
0.0
 10
130.310220
 20
92.367150
 30
0.0
  0
SPLINE
  5
11c
100
AcDbEntity
  8
Layer_1
 62
5
100
AcDbSpline
 70
8
 71
3
 72
8
 73
4
 74
0
 40
0
 40
0
 40
0
 40
0
 40
1
 40
1
 40
1
 40
1
 10
130.310220
 20
92.367150
 30
0.0
 10
133.279563
 20
90.768273
 30
0.0
 10
136.591524
 20
89.763264
 30
0.0
 10
139.972007
 20
89.694741
 30
0.0
  0
SPLINE
  5
11d
100
AcDbEntity
  8
Layer_1
 62
5
100
AcDbSpline
 70
8
 71
3
 72
8
 73
4
 74
0
 40
0
 40
0
 40
0
 40
0
 40
1
 40
1
 40
1
 40
1
 10
139.972007
 20
89.694741
 30
0.0
 10
143.558060
 20
89.603376
 30
0.0
 10
147.372525
 20
90.676908
 30
0.0
 10
150.615961
 20
92.115898
 30
0.0
  0
SPLINE
  5
11e
100
AcDbEntity
  8
Layer_1
 62
5
100
AcDbSpline
 70
8
 71
3
 72
8
 73
4
 74
0
 40
0
 40
0
 40
0
 40
0
 40
1
 40
1
 40
1
 40
1
 10
150.615961
 20
92.115898
 30
0.0
 10
153.973604
 20
93.623411
 30
0.0
 10
156.531807
 20
97.003894
 30
0.0
 10
158.267731
 20
100.133125
 30
0.0
  0
SPLINE
  5
11f
100
AcDbEntity
  8
Layer_1
 62
5
100
AcDbSpline
 70
8
 71
3
 72
8
 73
4
 74
0
 40
0
 40
0
 40
0
 40
0
 40
1
 40
1
 40
1
 40
1
 10
158.267731
 20
100.133125
 30
0.0
 10
160.095020
 20
103.445085
 30
0.0
 10
161.008664
 20
107.259550
 30
0.0
 10
160.871617
 20
111.028332
 30
0.0
  0
SPLINE
  5
120
100
AcDbEntity
  8
Layer_1
 62
5
100
AcDbSpline
 70
8
 71
3
 72
8
 73
4
 74
0
 40
0
 40
0
 40
0
 40
0
 40
1
 40
1
 40
1
 40
1
 10
160.871617
 20
111.028332
 30
0.0
 10
160.630534
 20
117.406057
 30
0.0
 10
157.634592
 20
124.877311
 30
0.0
 10
151.215529
 20
127.084381
 30
0.0
  0
SPLINE
  5
121
100
AcDbEntity
  8
Layer_1
 62
5
100
AcDbSpline
 70
8
 71
3
 72
8
 73
4
 74
0
 40
0
 40
0
 40
0
 40
0
 40
1
 40
1
 40
1
 40
1
 10
151.215529
 20
127.084381
 30
0.0
 10
153.047180
 20
128.584055
 30
0.0
 10
154.400106
 20
130.492159
 30
0.0
 10
154.887248
 20
132.887268
 30
0.0
  0
SPLINE
  5
122
100
AcDbEntity
  8
Layer_1
 62
5
100
AcDbSpline
 70
8
 71
3
 72
8
 73
4
 74
0
 40
0
 40
0
 40
0
 40
0
 40
1
 40
1
 40
1
 40
1
 10
154.887248
 20
132.887268
 30
0.0
 10
155.207023
 20
134.406202
 30
0.0
 10
155.139336
 20
134.664939
 30
0.0
 10
155.157234
 20
135.022176
 30
0.0
  0
SPLINE
  5
123
100
AcDbEntity
  8
Layer_1
 62
5
100
AcDbSpline
 70
8
 71
3
 72
8
 73
4
 74
0
 40
0
 40
0
 40
0
 40
0
 40
1
 40
1
 40
1
 40
1
 10
155.157234
 20
135.022176
 30
0.0
 10
155.737940
 20
134.927794
 30
0.0
 10
156.328770
 20
134.892471
 30
0.0
 10
156.915542
 20
134.915844
 30
0.0
  0
SPLINE
  5
124
100
AcDbEntity
  8
Layer_1
 62
5
100
AcDbSpline
 70
8
 71
3
 72
8
 73
4
 74
0
 40
0
 40
0
 40
0
 40
0
 40
1
 40
1
 40
1
 40
1
 10
156.915542
 20
134.915844
 30
0.0
 10
158.560337
 20
134.981364
 30
0.0
 10
160.173227
 20
135.508116
 30
0.0
 10
161.534009
 20
136.473322
 30
0.0
  0
SPLINE
  5
125
100
AcDbEntity
  8
Layer_1
 62
5
100
AcDbSpline
 70
8
 71
3
 72
8
 73
4
 74
0
 40
0
 40
0
 40
0
 40
0
 40
1
 40
1
 40
1
 40
1
 10
161.534009
 20
136.473322
 30
0.0
 10
163.384139
 20
137.798106
 30
0.0
 10
165.005857
 20
140.127898
 30
0.0
 10
164.457670
 20
142.503373
 30
0.0
  0
SPLINE
  5
126
100
AcDbEntity
  8
Layer_1
 62
5
100
AcDbSpline
 70
8
 71
3
 72
8
 73
4
 74
0
 40
0
 40
0
 40
0
 40
0
 40
1
 40
1
 40
1
 40
1
 10
164.457670
 20
142.503373
 30
0.0
 10
163.368273
 20
147.216687
 30
0.0
 10
156.068099
 20
145.632664
 30
0.0
 10
153.194384
 20
143.564923
 30
0.0
  0
ENDSEC
  0
SECTION
  2
OBJECTS
  0
DICTIONARY
  5
C
330
0
100
AcDbDictionary
  3
ACAD_GROUP
350
D
  3
ACAD_MLINESTYLE
350
17
  0
DICTIONARY
  5
D
330
C
100
AcDbDictionary
  0
DICTIONARY
  5
1A
330
C
100
AcDbDictionary
  0
DICTIONARY
  5
17
330
C
100
AcDbDictionary
  3
STANDARD
350
18
  0
DICTIONARY
  5
19
330
C
100
AcDbDictionary
  0
ENDSEC
  0
EOF
