<?xml version="1.0" encoding="UTF-8" standalone="no"?>
<!-- Created with Inkscape (http://www.inkscape.org/) -->

<svg
   xmlns:dc="http://purl.org/dc/elements/1.1/"
   xmlns:cc="http://creativecommons.org/ns#"
   xmlns:rdf="http://www.w3.org/1999/02/22-rdf-syntax-ns#"
   xmlns:svg="http://www.w3.org/2000/svg"
   xmlns="http://www.w3.org/2000/svg"
   xmlns:sodipodi="http://sodipodi.sourceforge.net/DTD/sodipodi-0.dtd"
   xmlns:inkscape="http://www.inkscape.org/namespaces/inkscape"
   width="100.0mm"
   height="100.0mm"
   viewBox="0 0 100.0 100.0"
   version="1.1"
   id="svg8"
   inkscape:version="0.92.4 (5da689c313, 2019-01-14)"
   sodipodi:docname="footprint.svg">
  <defs
     id="defs2" />
  <sodipodi:namedview
     id="base"
     pagecolor="#ffffff"
     bordercolor="#666666"
     borderopacity="1.0"
     inkscape:pageopacity="0.0"
     inkscape:pageshadow="2"
     inkscape:zoom="16"
     inkscape:cx="209.29601"
     inkscape:cy="203.69854"
     inkscape:document-units="mm"
     inkscape:current-layer="g834"
     showgrid="true"
     inkscape:window-width="1920"
     inkscape:window-height="1019"
     inkscape:window-x="0"
     inkscape:window-y="27"
     inkscape:window-maximized="1"
     borderlayer="true"
     inkscape:snap-grids="false"
     inkscape:snap-to-guides="false"
     inkscape:snap-midpoints="false"
     inkscape:snap-smooth-nodes="true"
     inkscape:snap-intersection-paths="true"
     inkscape:object-paths="true"
     inkscape:snap-nodes="true"
     inkscape:snap-global="false">
    <inkscape:grid
       id="grid816"
       units="mm"
       type="xygrid"
       empspacing="1"
       spacingy="2.54"
       spacingx="2.54"
       dotted="true"
       enabled="false" />
    <inkscape:grid
       type="xygrid"
       id="grid2231"
       spacingy="0.099999999"
       dotted="false"
       empspacing="10"
       spacingx="0.099999999" />
  </sodipodi:namedview>
  <metadata
     id="metadata5">
    <rdf:RDF>
      <cc:Work
         rdf:about="">
        <dc:format>image/svg+xml</dc:format>
        <dc:type
           rdf:resource="http://purl.org/dc/dcmitype/StillImage" />
        <dc:title></dc:title>
      </cc:Work>
    </rdf:RDF>
  </metadata>
  <g
     inkscape:groupmode="layer"
     id="layer2"
     inkscape:label="Snowman"
     style="display:inline"
     sodipodi:insensitive="true">
    <g
       id="g6"
       transform="matrix(0.22841104,0,0,0.22841104,-13.378865,-37.295662)"
       style="display:inline;opacity:0.49800002;fill:#460045;fill-opacity:1">
      <g
         id="g4"
         style="fill:#460045;fill-opacity:1">
        <path
           id="path2"
           d="m 212.9,189.6 c 2.6,18 7.2,35.3 14.8,51.8 1.3,2.9 5.7,0.4 4.3,-2.5 -7.4,-16.1 -11.8,-33.1 -14.3,-50.6 -0.4,-3.2 -5.2,-1.8 -4.8,1.3 z"
           inkscape:connector-curvature="0"
           style="fill:#460045;fill-opacity:1" />
      </g>
    </g>
    <g
       id="g12"
       transform="matrix(0.22841104,0,0,0.22841104,-13.378865,-37.295662)"
       style="display:inline;opacity:0.49800002;fill:#460045;fill-opacity:1">
      <g
         id="g10"
         style="fill:#460045;fill-opacity:1">
        <path
           id="path8"
           d="m 229.9,242.7 c 21.8,-2.2 43.1,-7.2 63.6,-14.8 1.3,-0.5 2.1,-1.7 1.7,-3.1 -3.6,-14 -7.8,-27.9 -12.4,-41.6 -1,-3 -5.9,-1.7 -4.8,1.3 4.6,13.7 8.8,27.6 12.4,41.6 0.6,-1 1.2,-2.1 1.7,-3.1 -20.1,7.5 -41,12.4 -62.3,14.6 -3.1,0.4 -3.1,5.4 0.1,5.1 z"
           inkscape:connector-curvature="0"
           style="fill:#460045;fill-opacity:1" />
      </g>
    </g>
    <g
       id="g18"
       transform="matrix(0.22841104,0,0,0.22841104,-13.378865,-37.295662)"
       style="display:inline;opacity:0.49800002;fill:#460045;fill-opacity:1">
      <g
         id="g16"
         style="fill:#460045;fill-opacity:1">
        <path
           id="path14"
           d="m 216.8,190.3 c 11.8,-1.7 23.6,-3.3 35.4,-5.1 4.9,-0.7 9.9,-1.5 14.5,-3.2 1.9,-0.7 4.7,-2.9 6.5,-3.1 2.6,-0.3 4.2,3.5 4.7,5.6 0.8,3.1 5.6,1.8 4.8,-1.3 -0.8,-3.1 -3.5,-9.1 -7,-9.9 -2.5,-0.6 -4.4,1.1 -6.4,2.2 -3.2,1.7 -6.7,2.8 -10.2,3.6 -14.3,3.1 -29.2,4.3 -43.6,6.4 -3.2,0.4 -1.8,5.2 1.3,4.8 z"
           inkscape:connector-curvature="0"
           style="fill:#460045;fill-opacity:1" />
      </g>
    </g>
    <g
       id="g24"
       transform="matrix(0.22841104,0,0,0.22841104,-13.378865,-37.295662)"
       style="display:inline;opacity:0.49800002;fill:#460045;fill-opacity:1">
      <g
         id="g22"
         style="fill:#460045;fill-opacity:1">
        <path
           id="path20"
           d="m 217.2,207.3 c -7.5,2.7 -13.2,9.9 -12.9,18.1 0.1,3.7 2.1,5.8 5.7,6.5 5.1,0.9 10.4,1.1 15.6,0.8 3.2,-0.2 3.2,-5.2 0,-5 -2.7,0.2 -5.4,0.2 -8.1,0 -2.7,-0.2 -7.6,0.3 -8.1,-2.8 -0.9,-5.4 4.6,-11 9.2,-12.7 2.9,-1.2 1.6,-6 -1.4,-4.9 z"
           inkscape:connector-curvature="0"
           style="fill:#460045;fill-opacity:1" />
      </g>
    </g>
    <g
       id="g30"
       transform="matrix(0.22841104,0,0,0.22841104,-13.378865,-37.295662)"
       style="display:inline;opacity:0.49800002;fill:#460045;fill-opacity:1">
      <g
         id="g28"
         style="fill:#460045;fill-opacity:1">
        <path
           id="path26"
           d="m 227.7,240.7 c -4.6,7.2 -6.4,15.5 -7.1,23.9 -0.7,8.6 -0.8,17.7 1,26.1 3.5,16.1 16.5,27.4 31.5,32.9 15.3,5.6 37,8.7 48.8,-5.5 10.9,-13 16.5,-30.4 15.8,-47.3 -0.9,-18.6 -9.1,-35.1 -23.1,-47.3 -2.4,-2.1 -6,1.4 -3.5,3.5 22.9,19.9 28.2,52.9 13,79.2 -4.3,7.4 -8.9,12.5 -17.1,15.3 -8.5,2.8 -16.5,1.6 -25,-0.6 -14.3,-3.6 -28.8,-12 -34,-26.6 -2.9,-8.2 -2.9,-17.3 -2.5,-25.9 0.4,-8.8 1.8,-17.8 6.7,-25.4 1.6,-2.4 -2.7,-5 -4.5,-2.3 z"
           inkscape:connector-curvature="0"
           style="fill:#460045;fill-opacity:1" />
      </g>
    </g>
    <g
       id="g36"
       transform="matrix(0.22841104,0,0,0.22841104,-13.378865,-37.295662)"
       style="display:inline;opacity:0.49800002;fill:#460045;fill-opacity:1">
      <g
         id="g34"
         style="fill:#460045;fill-opacity:1">
        <path
           id="path32"
           d="m 270,247.1 c -0.1,0.8 -0.2,1.5 -0.2,2.3 1.7,0 3.3,0 5,0 0,-0.1 0,-0.2 0,-0.3 0.3,-3.2 -4.7,-3.2 -5,0 -0.2,2.3 0.2,4.9 0.5,7.1 0.3,2.7 1.3,5.6 3.3,7.5 4.7,4.4 10.6,0.7 12.8,-4.3 2.3,-5.2 2.1,-12.8 -2.9,-16.4 -4.1,-3 -10.9,-2.2 -13.1,2.8 -1.3,2.9 3,5.5 4.3,2.5 1.2,-2.8 5,-2.6 6.7,-0.3 2.2,2.8 1.6,7.7 -0.2,10.6 -2.4,3.9 -5.2,1.3 -5.9,-2.1 -0.3,-1.5 -0.1,-3 -0.3,-4.5 -0.1,-1 -0.4,-1.8 -0.3,-2.9 -1.7,0 -3.3,0 -5,0 0,0.1 0,0.2 0,0.3 -0.3,3.2 4.6,3.1 5,0 0.1,-0.8 0.2,-1.5 0.2,-2.3 0.4,-3.2 -4.6,-3.2 -4.9,0 z"
           inkscape:connector-curvature="0"
           style="fill:#460045;fill-opacity:1" />
      </g>
    </g>
    <g
       id="g42"
       transform="matrix(0.22841104,0,0,0.22841104,-13.378865,-37.295662)"
       style="display:inline;opacity:0.49800002;fill:#460045;fill-opacity:1">
      <g
         id="g40"
         style="fill:#460045;fill-opacity:1">
        <path
           id="path38"
           d="m 250.5,246.6 c -11.2,2.4 -11.6,27.5 1.1,25.5 7,-1.1 7.8,-9.4 7.5,-15 -0.1,-2.7 -0.5,-5.9 -2.5,-7.9 -1.3,-1.2 -3,-1.8 -4.6,-2.6 -2.9,-1.3 -5.4,3 -2.5,4.3 1.5,0.7 3.4,1.2 4.2,2.8 1.2,2.4 0.9,7.5 0.2,10 -0.3,1.3 -1,2.4 -2.1,3.2 -2.6,0.1 -4,-1 -4.3,-3.1 -0.3,-1.4 -0.2,-2.8 -0.1,-4.2 0.2,-3.4 0.6,-7.3 4.5,-8.1 3.1,-0.8 1.8,-5.6 -1.4,-4.9 z"
           inkscape:connector-curvature="0"
           style="fill:#460045;fill-opacity:1" />
      </g>
    </g>
    <g
       id="g48"
       transform="matrix(0.22841104,0,0,0.22841104,-13.378865,-37.295662)"
       style="display:inline;opacity:0.49800002;fill:#460045;fill-opacity:1">
      <g
         id="g46"
         style="fill:#460045;fill-opacity:1">
        <path
           id="path44"
           d="m 240,293.8 c 4.8,0 4.8,-7.5 0,-7.5 -4.8,0 -4.8,7.5 0,7.5 z"
           inkscape:connector-curvature="0"
           style="fill:#460045;fill-opacity:1" />
      </g>
    </g>
    <g
       id="g54"
       transform="matrix(0.22841104,0,0,0.22841104,-13.378865,-37.295662)"
       style="display:inline;opacity:0.49800002;fill:#460045;fill-opacity:1">
      <g
         id="g52"
         style="fill:#460045;fill-opacity:1">
        <path
           id="path50"
           d="m 252.8,300 c 0,-0.3 0,-0.7 0,-1 0,-2 -1.7,-3.8 -3.8,-3.8 -2,0.1 -3.8,1.6 -3.8,3.8 0,0.3 0,0.7 0,1 0,2 1.7,3.8 3.8,3.8 2,-0.1 3.8,-1.7 3.8,-3.8 z"
           inkscape:connector-curvature="0"
           style="fill:#460045;fill-opacity:1" />
      </g>
    </g>
    <g
       id="g60"
       transform="matrix(0.22841104,0,0,0.22841104,-13.378865,-37.295662)"
       style="display:inline;opacity:0.49800002;fill:#460045;fill-opacity:1">
      <g
         id="g58"
         style="fill:#460045;fill-opacity:1">
        <path
           id="path56"
           d="m 275.4,307.8 c 4.8,0 4.8,-7.5 0,-7.5 -4.8,0 -4.8,7.5 0,7.5 z"
           inkscape:connector-curvature="0"
           style="fill:#460045;fill-opacity:1" />
      </g>
    </g>
    <g
       id="g66"
       transform="matrix(0.22841104,0,0,0.22841104,-13.378865,-37.295662)"
       style="display:inline;opacity:0.49800002;fill:#460045;fill-opacity:1">
      <g
         id="g64"
         style="fill:#460045;fill-opacity:1">
        <path
           id="path62"
           d="m 286.3,303.8 c 4.8,0 4.8,-7.5 0,-7.5 -4.8,0 -4.8,7.5 0,7.5 z"
           inkscape:connector-curvature="0"
           style="fill:#460045;fill-opacity:1" />
      </g>
    </g>
    <g
       id="g72"
       transform="matrix(0.22841104,0,0,0.22841104,-13.378865,-37.295662)"
       style="display:inline;opacity:0.49800002;fill:#460045;fill-opacity:1">
      <g
         id="g70"
         style="fill:#460045;fill-opacity:1">
        <path
           id="path68"
           d="m 299,287.8 c 4.8,0 4.8,-7.5 0,-7.5 -4.8,0 -4.8,7.5 0,7.5 z"
           inkscape:connector-curvature="0"
           style="fill:#460045;fill-opacity:1" />
      </g>
    </g>
    <g
       id="g78"
       transform="matrix(0.22841104,0,0,0.22841104,-13.378865,-37.295662)"
       style="display:inline;opacity:0.49800002;fill:#460045;fill-opacity:1">
      <g
         id="g76"
         style="fill:#460045;fill-opacity:1">
        <path
           id="path74"
           d="m 266.5,275.4 c 12.4,8.9 24.8,17.8 37.1,26.8 0.6,-1.5 1.3,-3 1.9,-4.6 -13.3,-5.2 -26.6,-10.4 -39.9,-15.5 0.6,0.8 1.2,1.6 1.8,2.4 0.3,-4.1 1.9,-7.2 3.6,-10.8 1.4,-2.9 -3,-5.4 -4.3,-2.5 -2.1,4.5 -3.9,8.3 -4.3,13.3 -0.1,1.2 0.9,2 1.8,2.4 13.3,5.2 26.6,10.4 39.9,15.5 2.8,1.1 4,-3 1.9,-4.6 -12.4,-8.9 -24.8,-17.8 -37.1,-26.8 -2.5,-1.8 -5,2.6 -2.4,4.4 z"
           inkscape:connector-curvature="0"
           style="fill:#460045;fill-opacity:1" />
      </g>
    </g>
    <g
       id="g84"
       transform="matrix(0.22841104,0,0,0.22841104,-13.378865,-37.295662)"
       style="display:inline;opacity:0.49800002;fill:#460045;fill-opacity:1">
      <g
         id="g82"
         style="fill:#460045;fill-opacity:1">
        <path
           id="path80"
           d="m 247.8,318.7 c -19,16.5 -31.9,42.7 -29.1,68.2 2.4,22.1 18.7,40.6 39.1,48.5 23.9,9.4 53.2,4 73.8,-10.8 9.6,-6.9 16.8,-16 19.2,-27.8 2.8,-13.3 0.8,-26.7 -4.2,-39.2 -4.2,-10.7 -9.6,-20.2 -17.8,-28.3 -7.1,-7 -17,-11.4 -24.8,-17.7 -2.5,-2 -6,1.5 -3.5,3.5 11.8,9.6 25.9,15.6 34.2,29.1 12.3,19.9 19.7,50.5 1.9,69.5 -30.9,33.1 -98.8,27.9 -111.7,-20.1 -7,-25.8 7,-54.7 26.3,-71.4 2.6,-2 -0.9,-5.6 -3.4,-3.5 z"
           inkscape:connector-curvature="0"
           style="fill:#460045;fill-opacity:1" />
      </g>
    </g>
    <g
       id="g90"
       transform="matrix(0.22841104,0,0,0.22841104,-13.378865,-37.295662)"
       style="display:inline;opacity:0.49800002;fill:#460045;fill-opacity:1">
      <g
         id="g88"
         style="fill:#460045;fill-opacity:1">
        <path
           id="path86"
           d="m 236.6,338.3 c 5.3,3.3 11.3,4.3 17.4,5.1 7.4,1 15,1.9 22.5,1.8 14.2,-0.2 26.1,-10.1 37.7,-17.2 2.7,-1.7 0.2,-6 -2.5,-4.3 -10.6,6.5 -22.3,16.4 -35.2,16.5 -6.3,0.1 -12.7,-0.5 -19,-1.3 -6.3,-0.8 -12.9,-1.4 -18.4,-4.9 -2.7,-1.7 -5.2,2.6 -2.5,4.3 z"
           inkscape:connector-curvature="0"
           style="fill:#460045;fill-opacity:1" />
      </g>
    </g>
    <g
       id="g96"
       transform="matrix(0.22841104,0,0,0.22841104,-13.378865,-37.295662)"
       style="display:inline;opacity:0.49800002;fill:#460045;fill-opacity:1">
      <g
         id="g94"
         style="fill:#460045;fill-opacity:1">
        <path
           id="path92"
           d="m 291.5,339.5 c -1.1,15.1 -1.5,30.2 -1.1,45.3 0.1,4.1 -1.3,12.9 2.7,15.6 1.8,1.2 3.8,0.6 5.9,0.2 3.4,-0.7 6.8,-1.4 10.3,-2.1 1.1,-0.2 1.7,-1.4 1.8,-2.4 0.4,-5.2 0.5,-10.4 0.3,-15.6 -0.1,-3.2 -5.1,-3.2 -5,0 0.2,5.2 0.1,10.4 -0.3,15.6 0.6,-0.8 1.2,-1.6 1.8,-2.4 -2.6,0.5 -5.1,1.1 -7.7,1.6 -1,0.2 -2.5,0.8 -3.5,0.3 -1.5,-0.7 -1,-2.4 -1.1,-4.1 -0.3,-5.8 -0.4,-11.6 -0.4,-17.4 0,-11.6 0.4,-23.2 1.3,-34.7 0.3,-3.1 -4.7,-3.1 -5,0.1 z"
           inkscape:connector-curvature="0"
           style="fill:#460045;fill-opacity:1" />
      </g>
    </g>
    <g
       id="g102"
       transform="matrix(0.22841104,0,0,0.22841104,-13.378865,-37.295662)"
       style="display:inline;opacity:0.49800002;fill:#460045;fill-opacity:1">
      <g
         id="g100"
         style="fill:#460045;fill-opacity:1">
        <path
           id="path98"
           d="m 298,338.2 c 2.3,14.5 3.2,29.2 2.7,43.9 -0.1,1.8 2.2,3.2 3.8,2.2 2.3,-1.5 4.6,-3 6.9,-4.5 1.6,-1.1 4.1,-2.1 5.3,-3.8 2.1,-3 0.6,-9 0.4,-12.5 -0.6,-11.7 -1.6,-23.3 -3,-35 -0.4,-3.2 -5.4,-3.2 -5,0 1.1,9.7 2,19.4 2.6,29.1 0.3,4 1.5,9.7 0.7,13.6 0.6,1.5 0.2,2.4 -1.2,2.6 -1,0.7 -2.1,1.3 -3.1,2 -2.1,1.3 -4.1,2.7 -6.2,4 1.3,0.7 2.5,1.4 3.8,2.2 0.5,-15.1 -0.5,-30.2 -2.9,-45.2 -0.5,-3.1 -5.3,-1.8 -4.8,1.4 z"
           inkscape:connector-curvature="0"
           style="fill:#460045;fill-opacity:1" />
      </g>
    </g>
    <g
       id="g108"
       transform="matrix(0.22841104,0,0,0.22841104,-13.378865,-37.295662)"
       style="display:inline;opacity:0.49800002;fill:#460045;fill-opacity:1">
      <g
         id="g106"
         style="fill:#460045;fill-opacity:1">
        <path
           id="path104"
           d="m 222.6,361.1 c -9,-5.6 -20.9,-5 -30.9,-3.3 -9.8,1.6 -20.6,7.7 -21.5,18.8 -0.8,10 7.8,16.9 16.6,19 11.5,2.8 23.6,0.7 33.9,-4.8 2.8,-1.5 0.3,-5.8 -2.5,-4.3 -7.8,4.1 -16.4,6 -25.2,5.1 -8.3,-0.8 -20.1,-5.7 -17.6,-16.2 2.2,-9.4 12.7,-12.4 21,-13.2 8,-0.8 16.6,-1.1 23.7,3.2 2.7,1.7 5.2,-2.6 2.5,-4.3 z"
           inkscape:connector-curvature="0"
           style="fill:#460045;fill-opacity:1" />
      </g>
    </g>
    <g
       id="g114"
       transform="matrix(0.22841104,0,0,0.22841104,-13.378865,-37.295662)"
       style="display:inline;opacity:0.49800002;fill:#460045;fill-opacity:1">
      <g
         id="g112"
         style="fill:#460045;fill-opacity:1">
        <path
           id="path110"
           d="m 345.8,354.3 c 8.9,-7 38.8,-15.1 42,2.1 1.6,8.8 -5.3,17.2 -12.3,21.6 -7.2,4.5 -15.8,6.1 -24.1,4.3 -3.1,-0.7 -4.5,4.2 -1.3,4.8 10.3,2.2 21.2,0.1 29.8,-6 8.1,-5.8 15.2,-16 12.8,-26.4 -4.9,-21.2 -38.5,-13.3 -50.3,-3.9 -2.7,1.9 0.9,5.4 3.4,3.5 z"
           inkscape:connector-curvature="0"
           style="fill:#460045;fill-opacity:1" />
      </g>
    </g>
    <g
       id="g120"
       transform="matrix(0.22841104,0,0,0.22841104,-13.378865,-37.295662)"
       style="display:inline;opacity:0.49800002;fill:#460045;fill-opacity:1">
      <g
         id="g118"
         style="fill:#460045;fill-opacity:1">
        <path
           id="path116"
           d="m 243.8,423.9 c -14.4,3.7 -23.4,16.7 -30.5,28.9 -8.1,14 -14,29.6 -15.3,45.9 -1.2,15.6 2.1,32 10.9,45.2 8.5,12.7 21,23.1 34.3,30.3 13,7 27.5,11.4 42.3,11.7 15.7,0.4 32.4,-4.3 46.6,-10.6 14.7,-6.6 25.9,-21.4 33.5,-35.1 8,-14.5 12,-31.2 11.4,-47.7 -1.1,-29.1 -15.3,-63.4 -45.9,-71.4 -3.1,-0.8 -4.4,4 -1.3,4.8 25,6.5 37,31.7 41.1,55.2 5.3,30.4 -7,62.7 -30.3,82.8 -6.2,5.4 -13.6,8.2 -21.3,10.7 -7,2.2 -14.1,4.5 -21.5,5.5 -13.8,2 -28.1,-0.2 -41,-5.2 -26.9,-10.4 -50.8,-33.1 -53.7,-62.9 -1.6,-17 2.8,-34 10.3,-49.1 6.7,-13.4 16,-30.2 31.6,-34.2 3.2,-0.8 1.9,-5.6 -1.2,-4.8 z"
           inkscape:connector-curvature="0"
           style="opacity:1;fill:#460045;fill-opacity:1;stroke:none;stroke-width:0.4378072;stroke-miterlimit:4;stroke-dasharray:none;stroke-opacity:1" />
      </g>
    </g>
    <g
       id="g126"
       transform="matrix(0.22841104,0,0,0.22841104,-13.378865,-37.295662)"
       style="display:inline;opacity:0.49800002;fill:#460045;fill-opacity:1">
      <g
         id="g124"
         style="fill:#460045;fill-opacity:1">
        <path
           id="path122"
           d="m 261,308.8 c 4.8,0 4.8,-7.5 0,-7.5 -4.8,0 -4.8,7.5 0,7.5 z"
           inkscape:connector-curvature="0"
           style="fill:#460045;fill-opacity:1" />
      </g>
    </g>
    <g
       id="g132"
       transform="matrix(0.22841104,0,0,0.22841104,-13.378865,-37.295662)"
       style="display:inline;opacity:0.49800002;fill:#460045;fill-opacity:1">
      <g
         id="g130"
         style="fill:#460045;fill-opacity:1">
        <path
           id="path128"
           d="m 251,268 c 6.4,0 6.4,-10 0,-10 -6.4,0 -6.4,10 0,10 z"
           inkscape:connector-curvature="0"
           style="fill:#460045;fill-opacity:1" />
      </g>
    </g>
    <g
       id="g138"
       transform="matrix(0.22841104,0,0,0.22841104,-13.378865,-37.295662)"
       style="display:inline;opacity:0.49800002;fill:#460045;fill-opacity:1">
      <g
         id="g136"
         style="fill:#460045;fill-opacity:1">
        <path
           id="path134"
           d="m 278.5,261 c 6.4,0 6.4,-10 0,-10 -6.4,0 -6.4,10 0,10 z"
           inkscape:connector-curvature="0"
           style="fill:#460045;fill-opacity:1" />
      </g>
    </g>
    <g
       id="g144"
       transform="matrix(0.22841104,0,0,0.22841104,-13.378865,-37.295662)"
       style="display:inline;opacity:0.49800002;fill:#460045;fill-opacity:1">
      <g
         id="g142"
         style="fill:#460045;fill-opacity:1">
        <path
           id="path140"
           d="m 277.8,352.3 c -0.2,0.2 -0.3,0.3 -0.5,0.5 -1.4,1.4 -1.5,3.9 0,5.3 1.5,1.4 3.8,1.5 5.3,0 0.2,-0.2 0.3,-0.3 0.5,-0.5 1.4,-1.4 1.5,-3.9 0,-5.3 -1.4,-1.3 -3.8,-1.4 -5.3,0 z"
           inkscape:connector-curvature="0"
           style="fill:#460045;fill-opacity:1" />
      </g>
    </g>
    <g
       id="g150"
       transform="matrix(0.22841104,0,0,0.22841104,-13.378865,-37.295662)"
       style="display:inline;opacity:0.49800002;fill:#460045;fill-opacity:1">
      <g
         id="g148"
         style="fill:#460045;fill-opacity:1">
        <path
           id="path146"
           d="m 281,377.3 c 4.8,0 4.8,-7.5 0,-7.5 -4.8,0 -4.8,7.5 0,7.5 z"
           inkscape:connector-curvature="0"
           style="fill:#460045;fill-opacity:1" />
      </g>
    </g>
    <g
       id="g156"
       transform="matrix(0.22841104,0,0,0.22841104,-13.378865,-37.295662)"
       style="display:inline;opacity:0.49800002;fill:#460045;fill-opacity:1">
      <g
         id="g154"
         style="fill:#460045;fill-opacity:1">
        <path
           id="path152"
           d="m 286.8,394 c 0,-0.2 0,-0.3 0,-0.5 0,-2 -1.7,-3.8 -3.8,-3.8 -2,0.1 -3.8,1.6 -3.8,3.8 0,0.2 0,0.3 0,0.5 0,2 1.7,3.8 3.8,3.8 2,-0.1 3.8,-1.7 3.8,-3.8 z"
           inkscape:connector-curvature="0"
           style="fill:#460045;fill-opacity:1" />
      </g>
    </g>
    <g
       id="g162"
       transform="matrix(0.22841104,0,0,0.22841104,-13.378865,-37.295662)"
       style="display:inline;opacity:0.49800002;fill:#460045;fill-opacity:1">
      <g
         id="g160"
         style="fill:#460045;fill-opacity:1">
        <path
           id="path158"
           d="m 283.5,416.3 c 4.8,0 4.8,-7.5 0,-7.5 -4.8,0 -4.8,7.5 0,7.5 z"
           inkscape:connector-curvature="0"
           style="fill:#460045;fill-opacity:1" />
      </g>
    </g>
    <g
       id="g168"
       transform="matrix(0.22841104,0,0,0.22841104,-13.378865,-37.295662)"
       style="display:inline;opacity:0.49800002;fill:#460045;fill-opacity:1">
      <g
         id="g166"
         style="fill:#460045;fill-opacity:1">
        <path
           id="path164"
           d="m 286.5,430.8 c 4.8,0 4.8,-7.5 0,-7.5 -4.8,0 -4.8,7.5 0,7.5 z"
           inkscape:connector-curvature="0"
           style="fill:#460045;fill-opacity:1" />
      </g>
    </g>
    <g
       id="g174"
       transform="matrix(0.22841104,0,0,0.22841104,-13.378865,-37.295662)"
       style="display:inline;opacity:0.49800002;fill:#460045;fill-opacity:1">
      <g
         id="g172"
         style="fill:#460045;fill-opacity:1">
        <path
           id="path170"
           d="m 283.3,455.5 c 0,0.3 0,0.7 0,1 0,2 1.7,3.8 3.8,3.8 2,-0.1 3.8,-1.6 3.8,-3.8 0,-0.3 0,-0.7 0,-1 0,-2 -1.7,-3.8 -3.8,-3.8 -2.1,0.1 -3.8,1.7 -3.8,3.8 z"
           inkscape:connector-curvature="0"
           style="fill:#460045;fill-opacity:1" />
      </g>
    </g>
    <g
       id="g180"
       transform="matrix(0.22841104,0,0,0.22841104,-13.378865,-37.295662)"
       style="display:inline;opacity:0.49800002;fill:#460045;fill-opacity:1">
      <g
         id="g178"
         style="fill:#460045;fill-opacity:1">
        <path
           id="path176"
           d="m 289,479.8 c 4.8,0 4.8,-7.5 0,-7.5 -4.8,0 -4.8,7.5 0,7.5 z"
           inkscape:connector-curvature="0"
           style="fill:#460045;fill-opacity:1" />
      </g>
    </g>
    <g
       id="g186"
       transform="matrix(0.22841104,0,0,0.22841104,-13.378865,-37.295662)"
       style="display:inline;opacity:0.49800002;fill:#460045;fill-opacity:1">
      <g
         id="g184"
         style="fill:#460045;fill-opacity:1">
        <path
           id="path182"
           d="m 284.8,498 c 0,0.3 0,0.7 0,1 0,2 1.7,3.8 3.8,3.8 2,-0.1 3.8,-1.6 3.8,-3.8 0,-0.3 0,-0.7 0,-1 0,-2 -1.7,-3.8 -3.8,-3.8 -2.1,0.1 -3.8,1.7 -3.8,3.8 z"
           inkscape:connector-curvature="0"
           style="fill:#460045;fill-opacity:1" />
      </g>
    </g>
    <g
       id="g192"
       transform="matrix(0.22841104,0,0,0.22841104,-13.378865,-37.295662)"
       style="display:inline;opacity:0.49800002;fill:#460045;fill-opacity:1">
      <g
         id="g190"
         style="fill:#460045;fill-opacity:1">
        <path
           id="path188"
           d="m 291,522.8 c -0.2,0 -0.3,0 -0.5,0 -2,0 -3.8,1.7 -3.8,3.8 0.1,2 1.6,3.8 3.8,3.8 0.2,0 0.3,0 0.5,0 2,0 3.8,-1.7 3.8,-3.8 -0.1,-2.1 -1.7,-3.8 -3.8,-3.8 z"
           inkscape:connector-curvature="0"
           style="fill:#460045;fill-opacity:1" />
      </g>
    </g>
    <g
       id="g198"
       transform="matrix(0.22841104,0,0,0.22841104,-13.378865,-37.295662)"
       style="display:inline;opacity:0.49800002;fill:#460045;fill-opacity:1">
      <g
         id="g196"
         style="fill:#460045;fill-opacity:1">
        <path
           id="path194"
           d="m 289.3,550.3 c -0.2,0.2 -0.3,0.3 -0.5,0.5 -1.4,1.4 -1.5,3.9 0,5.3 1.5,1.4 3.8,1.5 5.3,0 0.2,-0.2 0.3,-0.3 0.5,-0.5 1.4,-1.4 1.5,-3.9 0,-5.3 -1.4,-1.3 -3.8,-1.4 -5.3,0 z"
           inkscape:connector-curvature="0"
           style="fill:#460045;fill-opacity:1" />
      </g>
    </g>
    <g
       id="g204"
       transform="matrix(0.22841104,0,0,0.22841104,-13.378865,-37.295662)"
       style="display:inline;opacity:0.49800002;fill:#460045;fill-opacity:1">
      <g
         id="g202"
         style="fill:#460045;fill-opacity:1">
        <path
           id="path200"
           d="m 291.1,397.3 c 0.1,3.6 0.3,7.1 0.4,10.7 0.1,3.2 5.1,3.2 5,0 -0.1,-3.6 -0.3,-7.1 -0.4,-10.7 -0.1,-3.2 -5.1,-3.2 -5,0 z"
           inkscape:connector-curvature="0"
           style="fill:#460045;fill-opacity:1" />
      </g>
    </g>
    <g
       id="g210"
       transform="matrix(0.22841104,0,0,0.22841104,-13.378865,-37.295662)"
       style="display:inline;opacity:0.49800002;fill:#460045;fill-opacity:1">
      <g
         id="g208"
         style="fill:#460045;fill-opacity:1">
        <path
           id="path206"
           d="m 297.6,400.6 c 1.3,3.1 3,5.8 5.1,8.4 2,2.5 5.6,-1.1 3.5,-3.5 -1.8,-2.2 -3.2,-4.7 -4.4,-7.4 -0.5,-1.2 -2.4,-1.5 -3.4,-0.9 -1.2,0.7 -1.4,2.1 -0.8,3.4 z"
           inkscape:connector-curvature="0"
           style="fill:#460045;fill-opacity:1" />
      </g>
    </g>
    <g
       id="g216"
       transform="matrix(0.22841104,0,0,0.22841104,-13.378865,-37.295662)"
       style="display:inline;opacity:0.49800002;fill:#460045;fill-opacity:1">
      <g
         id="g214"
         style="fill:#460045;fill-opacity:1">
        <path
           id="path212"
           d="m 308.7,400.1 c 0.9,-0.2 2.3,0.5 2.7,1.5 0.5,1.3 1.7,2.1 3.1,1.7 1.2,-0.3 2.2,-1.8 1.7,-3.1 -1.3,-3.7 -5,-5.7 -8.8,-5 -1.3,0.3 -2.1,1.8 -1.7,3.1 0.3,1.5 1.7,2.1 3,1.8 z"
           inkscape:connector-curvature="0"
           style="fill:#460045;fill-opacity:1" />
      </g>
    </g>
    <g
       id="g222"
       transform="matrix(0.22841104,0,0,0.22841104,-13.378865,-37.295662)"
       style="display:inline;opacity:0.49800002;fill:#460045;fill-opacity:1">
      <g
         id="g220"
         style="fill:#460045;fill-opacity:1">
        <path
           id="path218"
           d="m 301.2,382.7 c 0.4,2.8 0.6,5.5 0.7,8.3 0.1,3.2 5.1,3.2 5,0 -0.1,-3.2 -0.4,-6.4 -0.9,-9.7 -0.2,-1.3 -1.9,-2.1 -3.1,-1.7 -1.4,0.4 -1.9,1.7 -1.7,3.1 z"
           inkscape:connector-curvature="0"
           style="fill:#460045;fill-opacity:1" />
      </g>
    </g>
    <g
       id="g228"
       transform="matrix(0.22841104,0,0,0.22841104,-13.378865,-37.295662)"
       style="display:inline;opacity:0.49800002;fill:#460045;fill-opacity:1">
      <g
         id="g226"
         style="fill:#460045;fill-opacity:1">
        <path
           id="path224"
           d="m 309,380.8 c 0.6,0 1.8,2 2.2,2.5 0.9,1.3 1.9,2.6 2.8,3.8 1.8,2.6 6.2,0.1 4.3,-2.5 -1.3,-1.9 -2.7,-3.8 -4.1,-5.6 -1.3,-1.7 -2.8,-3.3 -5.2,-3.2 -3.2,0.2 -3.2,5.2 0,5 z"
           inkscape:connector-curvature="0"
           style="fill:#460045;fill-opacity:1" />
      </g>
    </g>
    <g
       id="g234"
       transform="matrix(0.22841104,0,0,0.22841104,-13.378865,-37.295662)"
       style="display:inline;opacity:0.49800002;fill:#460045;fill-opacity:1">
      <g
         id="g232"
         style="fill:#460045;fill-opacity:1">
        <path
           id="path230"
           d="m 314.7,376.2 c 2.2,1.3 4.5,2.7 6.7,4 2.8,1.7 5.3,-2.7 2.5,-4.3 -2.2,-1.3 -4.5,-2.7 -6.7,-4 -2.7,-1.7 -5.2,2.6 -2.5,4.3 z"
           inkscape:connector-curvature="0"
           style="fill:#460045;fill-opacity:1" />
      </g>
    </g>
  </g>
  <g
     inkscape:groupmode="layer"
     id="layer1"
     inkscape:label="SnowanPath"
     style="display:inline"
     sodipodi:insensitive="true">
    <g
       id="g6-9-2"
       transform="matrix(0.22841104,0,0,0.22841104,-13.378865,-37.295663)"
       style="display:inline;fill:none;stroke:#000014;stroke-width:0.4378072;stroke-miterlimit:4;stroke-dasharray:none;stroke-opacity:1">
      <g
         id="g4-1-2"
         style="fill:none;stroke:#000014;stroke-width:0.4378072;stroke-miterlimit:4;stroke-dasharray:none;stroke-opacity:1" />
    </g>
    <g
       id="g12-7-5"
       transform="matrix(0.22841104,0,0,0.22841104,-13.378865,-37.295663)"
       style="display:inline;fill:none;stroke:#000014;stroke-width:0.4378072;stroke-miterlimit:4;stroke-dasharray:none;stroke-opacity:1">
      <g
         id="g10-0-5"
         style="fill:none;stroke:#000014;stroke-width:0.4378072;stroke-miterlimit:4;stroke-dasharray:none;stroke-opacity:1" />
    </g>
    <g
       id="g18-3-9"
       transform="matrix(0.22841104,0,0,0.22841104,-13.378865,-37.295663)"
       style="display:inline;fill:none;stroke:#000014;stroke-width:0.4378072;stroke-miterlimit:4;stroke-dasharray:none;stroke-opacity:1">
      <g
         id="g16-6-0"
         style="fill:none;stroke:#000014;stroke-width:0.4378072;stroke-miterlimit:4;stroke-dasharray:none;stroke-opacity:1" />
    </g>
    <g
       id="g24-6-8"
       transform="matrix(0.22841104,0,0,0.22841104,-13.378865,-37.295663)"
       style="display:inline;fill:none;stroke:#000014;stroke-width:0.4378072;stroke-miterlimit:4;stroke-dasharray:none;stroke-opacity:1">
      <g
         id="g22-2-3"
         style="fill:none;stroke:#000014;stroke-width:0.4378072;stroke-miterlimit:4;stroke-dasharray:none;stroke-opacity:1" />
    </g>
    <g
       id="g30-1-0"
       transform="matrix(0.22841104,0,0,0.22841104,-13.378865,-37.295663)"
       style="display:inline;fill:none;stroke:#000014;stroke-width:0.4378072;stroke-miterlimit:4;stroke-dasharray:none;stroke-opacity:1">
      <g
         id="g28-8-4"
         style="fill:none;stroke:#000014;stroke-width:0.4378072;stroke-miterlimit:4;stroke-dasharray:none;stroke-opacity:1" />
    </g>
    <g
       id="g84-4-9"
       transform="matrix(0.22841104,0,0,0.22841104,-13.378865,-37.295663)"
       style="display:inline;fill:none;stroke:#000014;stroke-width:0.4378072;stroke-miterlimit:4;stroke-dasharray:none;stroke-opacity:1">
      <g
         id="g82-5-1"
         style="fill:none;stroke:#000014;stroke-width:0.4378072;stroke-miterlimit:4;stroke-dasharray:none;stroke-opacity:1" />
    </g>
    <g
       id="g108-1-6"
       style="display:inline;fill:none;stroke:#000014;stroke-width:0.4378072;stroke-miterlimit:4;stroke-dasharray:none;stroke-opacity:1"
       transform="matrix(0.22841104,0,0,0.22841104,-13.378865,-37.295663)">
      <g
         id="g106-5-2"
         style="fill:none;stroke:#000014;stroke-width:0.4378072;stroke-miterlimit:4;stroke-dasharray:none;stroke-opacity:1">
        <path
           id="path104-5-5"
           style="fill:none;stroke:#000014;stroke-width:0.4378072;stroke-miterlimit:4;stroke-dasharray:none;stroke-opacity:1"
           d="M 343.33817,350.08878 C 341.10445,344.55008 332.9,333.35 328.8,329.3 c -7.1,-7 -15.2271,-10.02422 -23.0271,-16.32422 9.19356,-13.20685 11.63821,-25.34805 11.9271,-42.17578 -0.9,-18.6 -9.1,-35.1 -23.1,-47.3 -3.6,-13.99999 -7.2,-26.6 -11.85,-40.3 -0.85,-3.1 -3.55,-9.1 -7.05,-9.9 -2.5,-0.6 -4.4,1.1 -6.4,2.2 -3.2,1.7 -6.7,2.8 -10.2,3.6 -14.3,3.1 -29.2,4.3 -43.6,6.4 -3.2,0.4 -2.6,4.1 -1.78972,9.29614 0.64839,4.49046 1.69217,8.64853 2.6078,13.05947 -7.5,2.7 -12.31808,9.34439 -12.01808,17.54439 0.1,3.7 2.1,5.8 5.7,6.5 5.1,0.9 8.79157,1.09335 13.99157,0.79335 1.54063,4.22344 1.65048,4.13105 3.55048,8.25606 -4.6,7.2 -6.24205,15.25059 -6.94205,23.65059 -0.7,8.6 -0.8,17.7 1,26.1 1.75,8.05 8.95286,22.9469 24.28488,29.71499 -9.16382,7.39162 -21.89559,27.01832 -24.75019,39.84046 -9.45816,-4.13331 -19.43469,-4.15544 -29.43469,-2.45544 -9.8,1.6 -20.6,7.69999 -21.5,18.79999 -0.8,10 7.8,16.9 16.6,19 11.5,2.8 22.41161,0.93161 32.60192,-4.12962 3.39869,14.23334 10.18075,25.24317 20.69036,33.61724 C 227.8278,429.88607 219.77403,441.67561 213.3,452.8 c -8.1,14 -14,29.6 -15.3,45.9 -1.2,15.6 2.1,32 10.9,45.2 8.5,12.7 21,23.1 34.3,30.3 13,7 27.5,11.4 42.3,11.7 15.7,0.4 32.4,-4.3 46.6,-10.6 14.7,-6.6 25.9,-21.4 33.5,-35.1 8,-14.5 12,-31.2 11.4,-47.7 -1.05548,-27.92214 -14.17193,-60.63183 -42.27505,-70.29454 8.0191,-6.56568 13.94231,-14.9195 16.07505,-25.40546 1.4,-6.65 1.10366,-7.78277 1.18202,-9.34678 2.54237,0.41321 5.12907,0.56786 7.698,0.46553 7.20103,-0.28685 14.26238,-2.59301 20.21998,-6.81875 8.1,-5.8 15.2,-16 12.8,-26.4 -4.76946,-20.63523 -36.73015,-13.70026 -49.31148,-4.64754"
           inkscape:connector-curvature="0"
           sodipodi:nodetypes="ccccccccccccccccccccccccccccccccccccsccc" />
      </g>
    </g>
    <g
       id="g114-4-4"
       transform="matrix(0.22841104,0,0,0.22841104,-13.378865,-37.295663)"
       style="display:inline;fill:none;stroke:#000014;stroke-width:0.4378072;stroke-miterlimit:4;stroke-dasharray:none;stroke-opacity:1">
      <g
         id="g112-7-4"
         style="fill:none;stroke:#000014;stroke-width:0.4378072;stroke-miterlimit:4;stroke-dasharray:none;stroke-opacity:1" />
    </g>
    <g
       id="g120-5-9"
       transform="matrix(0.22841104,0,0,0.22841104,-13.378865,-37.295663)"
       style="display:inline;fill:none;stroke:#000014;stroke-width:0.4378072;stroke-miterlimit:4;stroke-dasharray:none;stroke-opacity:1">
      <g
         id="g118-6-3"
         style="fill:none;stroke:#000014;stroke-width:0.4378072;stroke-miterlimit:4;stroke-dasharray:none;stroke-opacity:1" />
    </g>
  </g>
  <g
     id="g822"
     inkscape:groupmode="layer"
     inkscape:label="[fixed] BG"
     style="display:inline"
     sodipodi:insensitive="true" />
  <g
     id="g824"
     inkscape:groupmode="layer"
     inkscape:label="Edge.Cuts"
     style="display:inline"
     sodipodi:insensitive="true">
    <path
       transform="matrix(0.22841104,0,0,0.22841104,-13.378865,-37.295663)"
       sodipodi:type="inkscape:offset"
       inkscape:radius="2.0918212"
       inkscape:original="M 273.92578 173.23633 C 272.24297 173.51289 270.80078 174.675 269.30078 175.5 C 266.10078 177.2 262.59961 178.29961 259.09961 179.09961 C 244.79961 182.19961 229.9 183.4 215.5 185.5 C 212.3 185.9 212.90066 189.60074 213.71094 194.79688 C 214.35933 199.28734 215.40273 203.44453 216.31836 207.85547 C 208.81836 210.55547 204.00078 217.20039 204.30078 225.40039 C 204.40078 229.10039 206.4 231.20039 210 231.90039 C 215.1 232.80039 218.79219 232.99336 223.99219 232.69336 C 225.53282 236.9168 225.64297 236.82421 227.54297 240.94922 C 222.94297 248.14922 221.29961 256.19961 220.59961 264.59961 C 219.89961 273.19961 219.79961 282.29922 221.59961 290.69922 C 223.34961 298.74922 230.55275 313.64597 245.88477 320.41406 C 236.72095 327.80568 223.98937 347.43372 221.13477 360.25586 C 211.67661 356.12255 201.69922 356.10078 191.69922 357.80078 C 181.89922 359.40078 171.09922 365.49961 170.19922 376.59961 C 169.39922 386.59961 178.00078 393.49961 186.80078 395.59961 C 198.30078 398.39961 209.21203 396.53193 219.40234 391.4707 C 222.80103 405.70404 229.58219 416.71382 240.0918 425.08789 C 227.82732 429.88634 219.77481 441.67639 213.30078 452.80078 C 205.20078 466.80078 199.3 482.39922 198 498.69922 C 196.8 514.29922 200.10039 530.70039 208.90039 543.90039 C 217.40039 556.60039 229.89922 566.99922 243.19922 574.19922 C 256.19922 581.19922 270.7 585.60039 285.5 585.90039 C 301.2 586.30039 317.89961 581.60078 332.09961 575.30078 C 346.79961 568.70078 357.99961 553.89922 365.59961 540.19922 C 373.59961 525.69922 377.6 509 377 492.5 C 375.94452 464.57786 362.82773 431.86779 334.72461 422.20508 C 342.74371 415.6394 348.66804 407.28674 350.80078 396.80078 C 352.20078 390.15078 351.90406 389.01714 351.98242 387.45312 C 354.52479 387.86633 357.11076 388.0203 359.67969 387.91797 C 366.88072 387.63112 373.94279 385.32535 379.90039 381.09961 C 388.00039 375.29961 395.09922 365.09922 392.69922 354.69922 C 387.92976 334.06399 355.97 341.00001 343.38867 350.05273 L 343.33789 350.08789 C 341.10417 344.54919 332.90078 333.35078 328.80078 329.30078 C 321.70078 322.30078 313.57344 319.27656 305.77344 312.97656 C 314.967 299.76971 317.41033 287.62851 317.69922 270.80078 C 316.79922 252.20078 308.59961 235.7 294.59961 223.5 C 290.99961 209.50001 287.4 196.89922 282.75 183.19922 C 281.9 180.09922 279.19922 174.10078 275.69922 173.30078 C 275.07422 173.15078 274.48672 173.14414 273.92578 173.23633 z "
       style="fill:none;stroke:#000014;stroke-width:0.4378072;stroke-miterlimit:4;stroke-dasharray:none;stroke-opacity:1"
       id="path104-5-5-4"
       d="m 273.58594,171.17188 c -2.40755,0.39566 -4.00514,1.78094 -5.27149,2.48242 -2.96579,1.57472 -6.28401,2.6284 -9.66601,3.40234 -14.09904,3.05569 -28.93317,4.25814 -43.40821,6.36719 -6.1e-4,8e-5 -0.001,-8e-5 -0.002,0 -1.20129,0.15061 -2.39081,0.74048 -3.125,1.67383 -0.73456,0.93382 -0.99988,2.01445 -1.0957,3.0625 -0.19104,2.08938 0.21963,4.35093 0.62304,6.93554 5e-4,0.003 0.001,0.006 0.002,0.01 7.5e-4,0.005 0.001,0.009 0.002,0.0137 0.59134,4.08564 1.5001,7.82736 2.32422,11.6543 -7.26403,3.36026 -12.06182,10.30027 -11.75781,18.69531 0.0621,2.21075 0.73716,4.21408 2.06836,5.70117 1.33369,1.48988 3.20876,2.37225 5.32226,2.7832 a 2.0920304,2.0920304 0 0 0 0.0352,0.008 c 4.68418,0.82662 8.44633,1.00858 12.98437,0.83008 0.85608,2.24177 1.50276,3.70857 2.60938,6.07226 -4.37791,7.33667 -6.03327,15.38355 -6.71485,23.5625 a 2.0920304,2.0920304 0 0 0 0,0.004 c -0.70837,8.70286 -0.82911,17.98887 1.03907,26.70703 a 2.0920304,2.0920304 0 0 0 0,0.008 c 1.77516,8.16575 8.55679,22.1371 22.75195,29.71875 -8.89787,8.34856 -19.08418,24.3157 -22.57226,36.73828 -9.27264,-3.43939 -18.90601,-3.47338 -28.37305,-1.86523 -0.001,1.9e-4 -0.003,-2e-4 -0.004,0 -5.19545,0.84876 -10.63602,2.86221 -15.02344,6.24414 -4.38843,3.38271 -7.71872,8.25818 -8.2207,14.44922 a 2.0920304,2.0920304 0 0 0 0,0.004 c -0.45057,5.63218 1.80329,10.50775 5.28711,14.08789 3.48194,3.57822 8.15543,5.97623 12.90625,7.11133 0.001,3.2e-4 0.003,-3.1e-4 0.004,0 0.001,3.4e-4 0.003,0.002 0.004,0.002 11.16932,2.7175 21.85398,1.06299 31.78125,-3.38086 3.36474,12.35502 9.46028,22.37477 18.35547,30.26171 -11.38722,5.68923 -18.93121,16.87485 -24.95898,27.23243 a 2.0920304,2.0920304 0 0 0 -0.002,0.006 c -8.21675,14.2018 -14.24469,30.08466 -15.57617,46.77929 a 2.0920304,2.0920304 0 0 0 0,0.006 c -1.23109,16.00423 2.13639,32.85692 11.2461,46.52149 a 2.0920304,2.0920304 0 0 0 0.002,0.004 c 8.73364,13.04909 21.48198,23.63438 35.04101,30.97461 a 2.0920304,2.0920304 0 0 0 0.004,0.002 c 13.24946,7.13432 28.06323,11.64333 43.25,11.95117 16.15188,0.40942 33.08989,-4.39041 47.49024,-10.7793 a 2.0920304,2.0920304 0 0 0 0.01,-0.004 c 15.4039,-6.91603 26.7598,-22.09069 34.47266,-35.99414 a 2.0920304,2.0920304 0 0 0 0.002,-0.006 c 8.18568,-14.83653 12.27234,-31.89649 11.6582,-48.78515 a 2.0920304,2.0920304 0 0 0 0,-0.002 c -0.53893,-14.25712 -4.13479,-29.6916 -11.24218,-42.90821 -6.58584,-12.24674 -16.29494,-22.55515 -29.32813,-28.01758 7.00737,-6.45257 12.32349,-14.4268 14.32813,-24.26367 l 0.002,-0.006 c 0.88143,-4.18835 1.07892,-6.17759 1.14453,-7.5664 1.92077,0.19753 3.84469,0.42433 5.76953,0.34765 7.59216,-0.30243 15.04667,-2.73187 21.34766,-7.20117 a 2.0920304,2.0920304 0 0 0 0.008,-0.006 c 8.57353,-6.13907 16.28975,-16.99964 13.61914,-28.57226 -1.31359,-5.68328 -4.66794,-9.71282 -8.98437,-12.07032 -4.31644,-2.35749 -9.50793,-3.15607 -14.83985,-3.00586 -9.74835,0.27463 -19.8753,3.71734 -26.74023,8.01758 -3.17754,-6.36603 -9.86721,-15.3715 -13.90235,-19.35742 a 2.0920304,2.0920304 0 0 0 -0.002,-0.002 c -6.96224,-6.86418 -14.57763,-10.06179 -21.66797,-15.38086 8.47348,-12.91735 10.90996,-25.31352 11.18946,-41.59375 a 2.0920304,2.0920304 0 0 0 -0.002,-0.13672 c -0.91566,-18.92363 -9.2374,-35.80017 -23.32422,-48.30469 -3.54628,-13.75116 -7.11441,-26.23424 -11.69726,-39.74805 -0.48342,-1.76306 -1.41134,-4.14577 -2.76563,-6.35351 -1.35179,-2.20368 -3.08781,-4.39377 -5.82226,-5.02539 -0.89789,-0.21428 -1.78874,-0.22801 -2.59375,-0.0957 z" />
  </g>
  <g
     id="g826"
     inkscape:groupmode="layer"
     inkscape:label="B.Cu-disabled"
     sodipodi:insensitive="true" />
  <g
     id="g828"
     inkscape:groupmode="layer"
     inkscape:label="B.Mask-disabled" />
  <g
     id="g830"
     inkscape:groupmode="layer"
     inkscape:label="B.Silk-disabled" />
  <g
     id="g832"
     inkscape:groupmode="layer"
     inkscape:label="F.Cu"
     style="display:inline" />
  <g
     id="g834"
     inkscape:groupmode="layer"
     inkscape:label="F.Mask">
    <path
       style="display:inline;fill:none;stroke:#000000;stroke-width:0.1;stroke-linecap:butt;stroke-linejoin:miter;stroke-miterlimit:4;stroke-dasharray:none;stroke-opacity:1"
       d="m 52.048263,40.025515 c -1.002225,0.342474 -2.021442,0.416574 -2.753017,0.41493 -1.133539,-0.0025 -2.051116,-0.202177 -3.179754,-0.229947 -2.221219,-0.05465 -4.866886,-0.891499 -4.696105,-1.119207 0.7197,-1.020174 1.604111,-1.946236 2.494247,-2.731673 0,0 3.245075,1.674669 6.95511,1.333006 3.437267,-0.316543 4.57966,-2.097897 4.953838,-2.635777 l 2.081948,1.530754 c -0.09095,-0.125925 -1.34605,0.895632 -2.931417,1.909717 -0.970177,0.620578 -1.856973,1.163289 -2.92485,1.528197 z"
       id="path4008-7"
       inkscape:connector-curvature="0"
       sodipodi:nodetypes="sssccsccss" />
    <path
       style="display:inline;fill:none;stroke:#000000;stroke-width:0.1;stroke-linecap:butt;stroke-linejoin:miter;stroke-miterlimit:4;stroke-dasharray:none;stroke-opacity:1"
       d="m 53.811377,39.850993 c 0,0 -0.631425,12.722029 -0.09355,13.423611 0.537882,0.701582 2.876489,0.374176 3.250666,-0.163703 0.374179,-0.537879 0.116932,-3.811931 0.116932,-3.811931"
       id="path4094-1"
       inkscape:connector-curvature="0" />
    <path
       style="display:inline;fill:none;stroke:#000000;stroke-width:0.1;stroke-linecap:butt;stroke-linejoin:miter;stroke-miterlimit:4;stroke-dasharray:none;stroke-opacity:1"
       d="m 55.729036,39.406659 c 0,0 0.397563,2.478925 0.53788,3.648227 0.140316,1.169305 0.233862,5.846521 0.233862,5.846521 0,0 0.500979,-0.328247 0.968104,-0.692261 0.160182,-0.124824 0.382048,-0.122527 0.489201,-0.290973 0.0949,-0.149185 0.03076,-0.133699 0.01905,-0.379707 -0.01584,-0.332767 0.02047,-0.953313 0.0081,-1.233401 -0.06335,-1.432036 -0.209192,-1.941492 -0.315126,-3.507424 -0.105934,-1.565932 -0.374177,-4.513516 -0.374177,-4.513516 z"
       id="path4096-5"
       inkscape:connector-curvature="0"
       sodipodi:nodetypes="cccsssszc" />
  </g>
  <g
     id="g836"
     inkscape:groupmode="layer"
     inkscape:label="F.Silk"
     style="display:none"
     sodipodi:insensitive="true">
    <g
       id="g6-9-2-5"
       transform="matrix(0.22841104,0,0,0.22841104,-13.378865,-37.295663)"
       style="display:inline;fill:none;stroke:#000014;stroke-width:0.4378072;stroke-miterlimit:4;stroke-dasharray:none;stroke-opacity:1">
      <g
         id="g4-1-2-0"
         style="fill:none;stroke:#000014;stroke-width:0.4378072;stroke-miterlimit:4;stroke-dasharray:none;stroke-opacity:1" />
    </g>
    <g
       id="g12-7-5-6"
       transform="matrix(0.22841104,0,0,0.22841104,-13.378865,-37.295663)"
       style="display:inline;fill:none;stroke:#000014;stroke-width:0.4378072;stroke-miterlimit:4;stroke-dasharray:none;stroke-opacity:1">
      <g
         id="g10-0-5-0"
         style="fill:none;stroke:#000014;stroke-width:0.4378072;stroke-miterlimit:4;stroke-dasharray:none;stroke-opacity:1" />
    </g>
    <g
       id="g18-3-9-8"
       transform="matrix(0.22841104,0,0,0.22841104,-13.378865,-37.295663)"
       style="display:inline;fill:none;stroke:#000014;stroke-width:0.4378072;stroke-miterlimit:4;stroke-dasharray:none;stroke-opacity:1">
      <g
         id="g16-6-0-3"
         style="fill:none;stroke:#000014;stroke-width:0.4378072;stroke-miterlimit:4;stroke-dasharray:none;stroke-opacity:1" />
    </g>
    <g
       id="g24-6-8-7"
       transform="matrix(0.22841104,0,0,0.22841104,-13.378865,-37.295663)"
       style="display:inline;fill:none;stroke:#000014;stroke-width:0.4378072;stroke-miterlimit:4;stroke-dasharray:none;stroke-opacity:1">
      <g
         id="g22-2-3-8"
         style="fill:none;stroke:#000014;stroke-width:0.4378072;stroke-miterlimit:4;stroke-dasharray:none;stroke-opacity:1" />
    </g>
    <g
       id="g30-1-0-2"
       transform="matrix(0.22841104,0,0,0.22841104,-13.378865,-37.295663)"
       style="display:inline;fill:none;stroke:#000014;stroke-width:0.4378072;stroke-miterlimit:4;stroke-dasharray:none;stroke-opacity:1">
      <g
         id="g28-8-4-1"
         style="fill:none;stroke:#000014;stroke-width:0.4378072;stroke-miterlimit:4;stroke-dasharray:none;stroke-opacity:1" />
    </g>
    <g
       id="g84-4-9-0"
       transform="matrix(0.22841104,0,0,0.22841104,-13.378865,-37.295663)"
       style="display:inline;fill:none;stroke:#000014;stroke-width:0.4378072;stroke-miterlimit:4;stroke-dasharray:none;stroke-opacity:1">
      <g
         id="g82-5-1-5"
         style="fill:none;stroke:#000014;stroke-width:0.4378072;stroke-miterlimit:4;stroke-dasharray:none;stroke-opacity:1" />
    </g>
    <g
       id="g108-1-6-8"
       transform="matrix(0.22841104,0,0,0.22841104,-13.378865,-37.295663)"
       style="display:inline;fill:none;stroke:#000014;stroke-width:0.4378072;stroke-miterlimit:4;stroke-dasharray:none;stroke-opacity:1">
      <g
         id="g106-5-2-5"
         style="fill:none;stroke:#000014;stroke-width:0.4378072;stroke-miterlimit:4;stroke-dasharray:none;stroke-opacity:1">
        <path
           sodipodi:type="inkscape:offset"
           inkscape:radius="-2.5640943"
           inkscape:original="M 273.92578 173.23633 C 272.24297 173.51289 270.80078 174.675 269.30078 175.5 C 266.10078 177.2 262.59961 178.29961 259.09961 179.09961 C 244.79961 182.19961 229.9 183.4 215.5 185.5 C 212.3 185.9 212.90066 189.60074 213.71094 194.79688 C 214.35933 199.28734 215.40273 203.44453 216.31836 207.85547 C 208.81836 210.55547 204.00078 217.20039 204.30078 225.40039 C 204.40078 229.10039 206.4 231.20039 210 231.90039 C 215.1 232.80039 218.79219 232.99336 223.99219 232.69336 C 225.53282 236.9168 225.64297 236.82421 227.54297 240.94922 C 222.94297 248.14922 221.29961 256.19961 220.59961 264.59961 C 219.89961 273.19961 219.79961 282.29922 221.59961 290.69922 C 223.34961 298.74922 230.55275 313.64597 245.88477 320.41406 C 236.72095 327.80568 223.98937 347.43372 221.13477 360.25586 C 211.67661 356.12255 201.69922 356.10078 191.69922 357.80078 C 181.89922 359.40078 171.09922 365.49961 170.19922 376.59961 C 169.39922 386.59961 178.00078 393.49961 186.80078 395.59961 C 198.30078 398.39961 209.21203 396.53193 219.40234 391.4707 C 222.80103 405.70404 229.58219 416.71382 240.0918 425.08789 C 227.82732 429.88634 219.77481 441.67639 213.30078 452.80078 C 205.20078 466.80078 199.3 482.39922 198 498.69922 C 196.8 514.29922 200.10039 530.70039 208.90039 543.90039 C 217.40039 556.60039 229.89922 566.99922 243.19922 574.19922 C 256.19922 581.19922 270.7 585.60039 285.5 585.90039 C 301.2 586.30039 317.89961 581.60078 332.09961 575.30078 C 346.79961 568.70078 357.99961 553.89922 365.59961 540.19922 C 373.59961 525.69922 377.6 509 377 492.5 C 375.94452 464.57786 362.82773 431.86779 334.72461 422.20508 C 342.74371 415.6394 348.66804 407.28674 350.80078 396.80078 C 352.20078 390.15078 351.90406 389.01714 351.98242 387.45312 C 354.52479 387.86633 357.11076 388.0203 359.67969 387.91797 C 366.88072 387.63112 373.94279 385.32535 379.90039 381.09961 C 388.00039 375.29961 395.09922 365.09922 392.69922 354.69922 C 387.92976 334.06399 355.97 341.00001 343.38867 350.05273 L 343.33789 350.08789 C 341.10417 344.54919 332.90078 333.35078 328.80078 329.30078 C 321.70078 322.30078 313.57344 319.27656 305.77344 312.97656 C 314.967 299.76971 317.41033 287.62851 317.69922 270.80078 C 316.79922 252.20078 308.59961 235.7 294.59961 223.5 C 290.99961 209.50001 287.4 196.89922 282.75 183.19922 C 281.9 180.09922 279.19922 174.10078 275.69922 173.30078 C 275.07422 173.15078 274.48672 173.14414 273.92578 173.23633 z "
           style="fill:none;stroke:#000014;stroke-width:4.37807226;stroke-miterlimit:4;stroke-dasharray:none;stroke-opacity:1"
           id="path104-5-5-5"
           d="m 274.3418,175.76562 c -0.77993,0.12818 -2.02188,0.99993 -3.80469,1.98047 a 2.5643507,2.5643507 0 0 1 -0.0332,0.0176 c -3.47976,1.84862 -7.19659,3.00498 -10.83203,3.83594 a 2.5643507,2.5643507 0 0 1 -0.0293,0.006 c -14.52647,3.14909 -29.48529,4.34795 -43.77344,6.43164 a 2.5643507,2.5643507 0 0 1 -0.0508,0.008 c -0.30734,0.0384 -0.0992,-0.002 -0.0469,-0.0684 0.0523,-0.0665 -0.0693,0.084 -0.11718,0.60742 -0.0957,1.04688 0.18412,3.21655 0.58984,5.81836 a 2.5643507,2.5643507 0 0 1 0.004,0.0273 c 0.62477,4.32691 1.65082,8.42771 2.58007,12.90429 a 2.5643507,2.5643507 0 0 1 -1.64062,2.9336 c -6.56776,2.36439 -10.5857,7.89191 -10.32422,15.03906 a 2.5643507,2.5643507 0 0 1 0,0.0254 c 0.0379,1.40178 0.3777,2.16597 0.88477,2.73242 0.50533,0.56451 1.32369,1.03875 2.73047,1.31446 4.93304,0.86844 8.31066,1.04551 13.36523,0.7539 a 2.5643507,2.5643507 0 0 1 2.55664,1.68164 c 1.52301,4.17514 1.54885,3.89005 3.4707,8.0625 a 2.5643507,2.5643507 0 0 1 -0.16797,2.45313 c -4.2823,6.70274 -5.86514,14.27828 -6.54882,22.48242 -0.68923,8.47002 -0.76329,17.33503 0.95117,25.3418 2.5e-4,0.001 0.002,0.003 0.002,0.004 2.7e-4,0.001 -2.6e-4,0.003 0,0.004 1.58186,7.26643 8.48484,21.58152 22.8125,27.90625 a 2.5643507,2.5643507 0 0 1 0.57422,4.3418 c -8.34061,6.72761 -21.23363,26.61693 -23.85742,38.40234 a 2.5643507,2.5643507 0 0 1 -3.5293,1.79297 c -8.85488,-3.86967 -18.25989,-3.92951 -27.97851,-2.27735 a 2.5643507,2.5643507 0 0 1 -0.0156,0.004 c -4.53651,0.74066 -9.32821,2.55531 -12.93555,5.33594 -3.60683,2.78024 -6.03506,6.37347 -6.42187,11.13672 -0.33801,4.2251 1.24074,7.65125 3.98242,10.46875 2.74169,2.81749 6.69147,4.88542 10.6582,5.83203 a 2.5643507,2.5643507 0 0 1 0.0117,0.002 c 10.88315,2.64981 21.09121,0.91506 30.85352,-3.93359 a 2.5643507,2.5643507 0 0 1 3.63476,1.70117 c 3.28912,13.77447 9.7196,24.18055 19.79297,32.20703 a 2.5643507,2.5643507 0 0 1 -0.66406,4.39453 c -11.29196,4.41796 -19.10255,15.60706 -25.50781,26.61328 -7.9553,13.75127 -13.69968,28.99826 -14.96094,44.8125 -1.16061,15.10277 2.05728,30.94725 10.47656,43.57618 8.21359,12.27052 20.40549,22.43936 33.38672,29.46679 12.69263,6.83342 26.80922,11.10028 41.13281,11.39063 a 2.5643507,2.5643507 0 0 1 0.0117,0.002 c 15.13854,0.3857 31.53587,-4.18995 45.48438,-10.37695 13.83717,-6.21261 24.84693,-20.55524 32.30859,-34.00586 7.7698,-14.0851 11.66191,-30.33713 11.08008,-46.35742 v -0.002 c -0.51428,-13.59767 -3.99247,-28.41988 -10.69141,-40.87695 -6.69925,-12.45765 -16.52921,-22.50787 -29.85547,-27.08984 a 2.5643507,2.5643507 0 0 1 -0.79101,-4.40821 c 7.6733,-6.28255 13.18855,-14.09387 15.18945,-23.93164 a 2.5643507,2.5643507 0 0 1 0.002,-0.0156 c 1.37285,-6.52105 1.03321,-7.00027 1.13086,-8.94922 a 2.5643507,2.5643507 0 0 1 2.97265,-2.40234 c 2.37017,0.38522 4.78526,0.52912 7.18359,0.43359 6.72161,-0.26775 13.30121,-2.42047 18.8379,-6.34766 7.51519,-5.38501 13.8513,-14.77189 11.78515,-23.73047 v -0.002 c -1.04399,-4.51476 -3.36986,-7.2246 -6.67773,-9.03125 -3.30835,-1.80691 -7.70866,-2.57187 -12.47852,-2.4375 -9.53971,0.26875 -20.45104,4.22162 -26.1582,8.32813 a 2.5643507,2.5643507 0 0 1 -0.0391,0.0254 l -0.0508,0.0351 a 2.5643507,2.5643507 0 0 1 -3.8379,-1.14843 C 339.09155,346.41642 330.63602,334.71938 327,331.12695 l -0.002,-0.002 c -6.66589,-6.57101 -14.6715,-9.55994 -22.83594,-16.1543 a 2.5643507,2.5643507 0 0 1 -0.49219,-3.45898 c 8.87853,-12.7543 11.16936,-24.12086 11.46094,-40.67383 -0.8884,-17.88622 -8.72624,-33.64994 -22.21484,-45.4043 a 2.5643507,2.5643507 0 0 1 -0.79883,-1.29492 c -3.58975,-13.96012 -7.16928,-26.48699 -11.79492,-40.11523 a 2.5643507,2.5643507 0 0 1 -0.0449,-0.14649 c -0.35339,-1.28883 -1.19109,-3.43177 -2.24414,-5.14843 -1.05304,-1.71667 -2.37367,-2.80601 -2.90625,-2.92774 a 2.5643507,2.5643507 0 0 1 -0.0254,-0.006 c -0.28713,-0.0689 -0.50097,-0.0718 -0.75976,-0.0293 z" />
      </g>
    </g>
    <g
       id="g114-4-4-0"
       transform="matrix(0.22841104,0,0,0.22841104,-13.378865,-37.295663)"
       style="display:inline;fill:none;stroke:#000014;stroke-width:0.4378072;stroke-miterlimit:4;stroke-dasharray:none;stroke-opacity:1">
      <g
         id="g112-7-4-7"
         style="fill:none;stroke:#000014;stroke-width:0.4378072;stroke-miterlimit:4;stroke-dasharray:none;stroke-opacity:1" />
    </g>
    <g
       id="g120-5-9-3"
       transform="matrix(0.22841104,0,0,0.22841104,-13.378865,-37.295663)"
       style="display:inline;fill:none;stroke:#000014;stroke-width:0.4378072;stroke-miterlimit:4;stroke-dasharray:none;stroke-opacity:1">
      <g
         id="g118-6-3-8"
         style="fill:none;stroke:#000014;stroke-width:0.4378072;stroke-miterlimit:4;stroke-dasharray:none;stroke-opacity:1" />
    </g>
    <path
       style="fill:#000013;fill-opacity:1;stroke:#000000;stroke-width:0.26458332px;stroke-linecap:butt;stroke-linejoin:miter;stroke-opacity:1"
       d="m 35.520312,7.5611989 c 0,0 2.298568,8.9296871 3.042708,10.0872391 0.744141,1.157552 13.592969,-2.017448 14.386719,-2.678906 0.79375,-0.661458 0.892969,-0.760677 0.926042,-1.223698 0.03307,-0.463021 -3.075782,-10.153385 -2.910417,-9.8557288 0.165365,0.2976562 -1.190625,-2.3481771 -2.14974,-1.3559896 -0.959114,0.9921875 -12.468489,2.6458333 -13.129947,2.6458333 -0.661459,0 -0.165365,2.38125 -0.165365,2.38125 z"
       id="path2306"
       inkscape:connector-curvature="0" />
    <path
       style="fill:none;stroke:#000000;stroke-width:1;stroke-linecap:butt;stroke-linejoin:miter;stroke-miterlimit:4;stroke-dasharray:none;stroke-opacity:1"
       d="m 42.048178,34.869757 c 0,0 1.683798,1.286235 3.718388,1.753957 2.034588,0.46772 6.594875,0.912056 8.278672,-0.491108 1.683798,-1.403165 2.291837,-2.595854 2.291837,-2.595854"
       id="path3998"
       inkscape:connector-curvature="0" />
    <path
       style="fill:none;stroke:#000000;stroke-width:1;stroke-linecap:butt;stroke-linejoin:miter;stroke-miterlimit:4;stroke-dasharray:none;stroke-opacity:1"
       d="m 37.438542,52.93724 c 0,0 -1.025261,-4.034896 0.09922,-7.441406"
       id="path4002"
       inkscape:connector-curvature="0" />
    <path
       style="fill:none;stroke:#000000;stroke-width:1;stroke-linecap:butt;stroke-linejoin:miter;stroke-miterlimit:4;stroke-dasharray:none;stroke-opacity:1"
       d="m 64.227603,42.38698 c 0,0 2.745052,5.523177 2.282032,9.491927"
       id="path4004"
       inkscape:connector-curvature="0" />
    <path
       style="fill:none;stroke:#000000;stroke-width:1;stroke-linecap:butt;stroke-linejoin:miter;stroke-miterlimit:4;stroke-dasharray:none;stroke-opacity:1"
       d="m 41.407291,58.890365 c 3.64e-4,-5.92e-4 1.19483,1.920944 4.861719,3.042709 3.193535,0.976957 8.948109,0.690466 11.972395,-0.628385 3.10614,-1.354547 5.986198,-3.73724 5.986198,-3.73724"
       id="path4006"
       inkscape:connector-curvature="0"
       sodipodi:nodetypes="cssc" />
    <path
       style="fill:none;stroke:#000000;stroke-width:0.5;stroke-linecap:butt;stroke-linejoin:miter;stroke-miterlimit:4;stroke-dasharray:none;stroke-opacity:1"
       d="m 40.691784,39.289728 c 0,0 3.040192,1.449937 4.911079,1.449937 1.870887,0 2.38538,0.65481 5.378799,0.187087 2.993419,-0.46772 7.810953,-4.5369 7.810953,-4.5369"
       id="path4008"
       inkscape:connector-curvature="0" />
    <path
       style="fill:none;stroke:#000000;stroke-width:0.5;stroke-linecap:butt;stroke-linejoin:miter;stroke-miterlimit:4;stroke-dasharray:none;stroke-opacity:1"
       d="m 53.811378,39.850993 c 0,0 -0.631425,12.72203 -0.09355,13.423612 0.537882,0.701582 2.876489,0.374176 3.250666,-0.163703 0.374179,-0.537879 0.116932,-3.811931 0.116932,-3.811931"
       id="path4094"
       inkscape:connector-curvature="0" />
    <path
       style="fill:none;stroke:#000000;stroke-width:0.5;stroke-linecap:butt;stroke-linejoin:miter;stroke-miterlimit:4;stroke-dasharray:none;stroke-opacity:1"
       d="m 54.93391,39.196184 c 0,0 0.678196,2.525697 0.818513,3.694999 0.140316,1.169305 0.210476,6.75858 0.210476,6.75858 0,0 2.525696,-0.280633 2.666013,-1.707184 0.140316,-1.426552 -0.350793,-5.07478 -0.350793,-5.07478 L 57.693467,37.41884"
       id="path4096"
       inkscape:connector-curvature="0" />
    <path
       style="fill:none;stroke:#000000;stroke-width:1;stroke-linecap:round;stroke-linejoin:miter;stroke-miterlimit:4;stroke-dasharray:none;stroke-opacity:1"
       d="m 53.694448,53.297991 c 0,0 -0.116932,1.192689 0.02339,2.57247"
       id="path4098"
       inkscape:connector-curvature="0" />
    <path
       style="fill:none;stroke:#000000;stroke-width:1;stroke-linecap:round;stroke-linejoin:miter;stroke-miterlimit:4;stroke-dasharray:none;stroke-opacity:1"
       d="m 54.863751,53.765714 c 0,0 0.678198,1.543481 1.169304,1.870885"
       id="path4100"
       inkscape:connector-curvature="0" />
    <path
       style="fill:none;stroke:#000000;stroke-width:1;stroke-linecap:round;stroke-linejoin:miter;stroke-miterlimit:4;stroke-dasharray:none;stroke-opacity:1"
       d="m 56.758024,53.321378 c 0.09354,0 1.403165,0.04677 1.753958,1.028986"
       id="path4102"
       inkscape:connector-curvature="0" />
    <path
       style="fill:none;stroke:#000000;stroke-width:1;stroke-linecap:round;stroke-linejoin:miter;stroke-miterlimit:4;stroke-dasharray:none;stroke-opacity:1"
       d="m 57.412834,48.994951 c 0,0 1.052375,1.122532 1.426551,1.753957 0.374179,0.631423 0.374179,0.608039 0.374179,0.608039"
       id="path4104"
       inkscape:connector-curvature="0" />
    <path
       style="fill:none;stroke:#000000;stroke-width:1;stroke-linecap:round;stroke-linejoin:miter;stroke-miterlimit:4;stroke-dasharray:none;stroke-opacity:1"
       d="m 58.558752,48.082895 1.894274,1.052373"
       id="path4106"
       inkscape:connector-curvature="0" />
    <path
       style="fill:none;stroke:#000000;stroke-width:1;stroke-linecap:round;stroke-linejoin:miter;stroke-miterlimit:4;stroke-dasharray:none;stroke-opacity:1"
       d="m 55.916126,49.509447 0.140316,2.221677"
       id="path4110"
       inkscape:connector-curvature="0" />
  </g>
  <g
     id="g838"
     inkscape:groupmode="layer"
     inkscape:label="Drill" />
</svg>
