<?xml version="1.0" encoding="UTF-8" standalone="no"?>
<!-- Created with Inkscape (http://www.inkscape.org/) -->

<svg
   xmlns:dc="http://purl.org/dc/elements/1.1/"
   xmlns:cc="http://creativecommons.org/ns#"
   xmlns:rdf="http://www.w3.org/1999/02/22-rdf-syntax-ns#"
   xmlns:svg="http://www.w3.org/2000/svg"
   xmlns="http://www.w3.org/2000/svg"
   xmlns:sodipodi="http://sodipodi.sourceforge.net/DTD/sodipodi-0.dtd"
   xmlns:inkscape="http://www.inkscape.org/namespaces/inkscape"
   width="100.0mm"
   height="100.0mm"
   viewBox="0 0 100.0 100.0"
   version="1.1"
   id="svg8"
   inkscape:version="0.92.4 (5da689c313, 2019-01-14)"
   sodipodi:docname="footprint.svg">
  <defs
     id="defs2" />
  <sodipodi:namedview
     id="base"
     pagecolor="#ffffff"
     bordercolor="#666666"
     borderopacity="1.0"
     inkscape:pageopacity="0.0"
     inkscape:pageshadow="2"
     inkscape:zoom="45.254834"
     inkscape:cx="211.12844"
     inkscape:cy="184.64186"
     inkscape:document-units="mm"
     inkscape:current-layer="g834"
     showgrid="true"
     inkscape:window-width="1920"
     inkscape:window-height="1019"
     inkscape:window-x="0"
     inkscape:window-y="27"
     inkscape:window-maximized="1"
     borderlayer="true"
     inkscape:snap-grids="false"
     inkscape:snap-to-guides="false"
     inkscape:snap-midpoints="false"
     inkscape:snap-smooth-nodes="true"
     inkscape:snap-intersection-paths="true"
     inkscape:object-paths="true"
     inkscape:snap-nodes="true"
     inkscape:snap-global="false">
    <inkscape:grid
       enabled="false"
       dotted="true"
       spacingx="2.54"
       spacingy="2.54"
       empspacing="1"
       type="xygrid"
       units="mm"
       id="grid816" />
    <inkscape:grid
       spacingx="0.099999999"
       empspacing="10"
       dotted="false"
       spacingy="0.099999999"
       id="grid2231"
       type="xygrid" />
  </sodipodi:namedview>
  <metadata
     id="metadata5">
    <rdf:RDF>
      <cc:Work
         rdf:about="">
        <dc:format>image/svg+xml</dc:format>
        <dc:type
           rdf:resource="http://purl.org/dc/dcmitype/StillImage" />
        <dc:title></dc:title>
      </cc:Work>
    </rdf:RDF>
  </metadata>
  <g
     inkscape:groupmode="layer"
     id="layer2"
     inkscape:label="Snowman"
     style="display:inline"
     sodipodi:insensitive="true">
    <g
       id="g6"
       transform="matrix(0.22841104,0,0,0.22841104,-13.378865,-37.295662)"
       style="display:inline;opacity:0.49800002;fill:#460045;fill-opacity:1">
      <g
         id="g4"
         style="fill:#460045;fill-opacity:1">
        <path
           id="path2"
           d="m 212.9,189.6 c 2.6,18 7.2,35.3 14.8,51.8 1.3,2.9 5.7,0.4 4.3,-2.5 -7.4,-16.1 -11.8,-33.1 -14.3,-50.6 -0.4,-3.2 -5.2,-1.8 -4.8,1.3 z"
           inkscape:connector-curvature="0"
           style="fill:#460045;fill-opacity:1" />
      </g>
    </g>
    <g
       id="g12"
       transform="matrix(0.22841104,0,0,0.22841104,-13.378865,-37.295662)"
       style="display:inline;opacity:0.49800002;fill:#460045;fill-opacity:1">
      <g
         id="g10"
         style="fill:#460045;fill-opacity:1">
        <path
           id="path8"
           d="m 229.9,242.7 c 21.8,-2.2 43.1,-7.2 63.6,-14.8 1.3,-0.5 2.1,-1.7 1.7,-3.1 -3.6,-14 -7.8,-27.9 -12.4,-41.6 -1,-3 -5.9,-1.7 -4.8,1.3 4.6,13.7 8.8,27.6 12.4,41.6 0.6,-1 1.2,-2.1 1.7,-3.1 -20.1,7.5 -41,12.4 -62.3,14.6 -3.1,0.4 -3.1,5.4 0.1,5.1 z"
           inkscape:connector-curvature="0"
           style="fill:#460045;fill-opacity:1" />
      </g>
    </g>
    <g
       id="g18"
       transform="matrix(0.22841104,0,0,0.22841104,-13.378865,-37.295662)"
       style="display:inline;opacity:0.49800002;fill:#460045;fill-opacity:1">
      <g
         id="g16"
         style="fill:#460045;fill-opacity:1">
        <path
           id="path14"
           d="m 216.8,190.3 c 11.8,-1.7 23.6,-3.3 35.4,-5.1 4.9,-0.7 9.9,-1.5 14.5,-3.2 1.9,-0.7 4.7,-2.9 6.5,-3.1 2.6,-0.3 4.2,3.5 4.7,5.6 0.8,3.1 5.6,1.8 4.8,-1.3 -0.8,-3.1 -3.5,-9.1 -7,-9.9 -2.5,-0.6 -4.4,1.1 -6.4,2.2 -3.2,1.7 -6.7,2.8 -10.2,3.6 -14.3,3.1 -29.2,4.3 -43.6,6.4 -3.2,0.4 -1.8,5.2 1.3,4.8 z"
           inkscape:connector-curvature="0"
           style="fill:#460045;fill-opacity:1" />
      </g>
    </g>
    <g
       id="g24"
       transform="matrix(0.22841104,0,0,0.22841104,-13.378865,-37.295662)"
       style="display:inline;opacity:0.49800002;fill:#460045;fill-opacity:1">
      <g
         id="g22"
         style="fill:#460045;fill-opacity:1">
        <path
           id="path20"
           d="m 217.2,207.3 c -7.5,2.7 -13.2,9.9 -12.9,18.1 0.1,3.7 2.1,5.8 5.7,6.5 5.1,0.9 10.4,1.1 15.6,0.8 3.2,-0.2 3.2,-5.2 0,-5 -2.7,0.2 -5.4,0.2 -8.1,0 -2.7,-0.2 -7.6,0.3 -8.1,-2.8 -0.9,-5.4 4.6,-11 9.2,-12.7 2.9,-1.2 1.6,-6 -1.4,-4.9 z"
           inkscape:connector-curvature="0"
           style="fill:#460045;fill-opacity:1" />
      </g>
    </g>
    <g
       id="g30"
       transform="matrix(0.22841104,0,0,0.22841104,-13.378865,-37.295662)"
       style="display:inline;opacity:0.49800002;fill:#460045;fill-opacity:1">
      <g
         id="g28"
         style="fill:#460045;fill-opacity:1">
        <path
           id="path26"
           d="m 227.7,240.7 c -4.6,7.2 -6.4,15.5 -7.1,23.9 -0.7,8.6 -0.8,17.7 1,26.1 3.5,16.1 16.5,27.4 31.5,32.9 15.3,5.6 37,8.7 48.8,-5.5 10.9,-13 16.5,-30.4 15.8,-47.3 -0.9,-18.6 -9.1,-35.1 -23.1,-47.3 -2.4,-2.1 -6,1.4 -3.5,3.5 22.9,19.9 28.2,52.9 13,79.2 -4.3,7.4 -8.9,12.5 -17.1,15.3 -8.5,2.8 -16.5,1.6 -25,-0.6 -14.3,-3.6 -28.8,-12 -34,-26.6 -2.9,-8.2 -2.9,-17.3 -2.5,-25.9 0.4,-8.8 1.8,-17.8 6.7,-25.4 1.6,-2.4 -2.7,-5 -4.5,-2.3 z"
           inkscape:connector-curvature="0"
           style="fill:#460045;fill-opacity:1" />
      </g>
    </g>
    <g
       id="g36"
       transform="matrix(0.22841104,0,0,0.22841104,-13.378865,-37.295662)"
       style="display:inline;opacity:0.49800002;fill:#460045;fill-opacity:1">
      <g
         id="g34"
         style="fill:#460045;fill-opacity:1">
        <path
           id="path32"
           d="m 270,247.1 c -0.1,0.8 -0.2,1.5 -0.2,2.3 1.7,0 3.3,0 5,0 0,-0.1 0,-0.2 0,-0.3 0.3,-3.2 -4.7,-3.2 -5,0 -0.2,2.3 0.2,4.9 0.5,7.1 0.3,2.7 1.3,5.6 3.3,7.5 4.7,4.4 10.6,0.7 12.8,-4.3 2.3,-5.2 2.1,-12.8 -2.9,-16.4 -4.1,-3 -10.9,-2.2 -13.1,2.8 -1.3,2.9 3,5.5 4.3,2.5 1.2,-2.8 5,-2.6 6.7,-0.3 2.2,2.8 1.6,7.7 -0.2,10.6 -2.4,3.9 -5.2,1.3 -5.9,-2.1 -0.3,-1.5 -0.1,-3 -0.3,-4.5 -0.1,-1 -0.4,-1.8 -0.3,-2.9 -1.7,0 -3.3,0 -5,0 0,0.1 0,0.2 0,0.3 -0.3,3.2 4.6,3.1 5,0 0.1,-0.8 0.2,-1.5 0.2,-2.3 0.4,-3.2 -4.6,-3.2 -4.9,0 z"
           inkscape:connector-curvature="0"
           style="fill:#460045;fill-opacity:1" />
      </g>
    </g>
    <g
       id="g42"
       transform="matrix(0.22841104,0,0,0.22841104,-13.378865,-37.295662)"
       style="display:inline;opacity:0.49800002;fill:#460045;fill-opacity:1">
      <g
         id="g40"
         style="fill:#460045;fill-opacity:1">
        <path
           id="path38"
           d="m 250.5,246.6 c -11.2,2.4 -11.6,27.5 1.1,25.5 7,-1.1 7.8,-9.4 7.5,-15 -0.1,-2.7 -0.5,-5.9 -2.5,-7.9 -1.3,-1.2 -3,-1.8 -4.6,-2.6 -2.9,-1.3 -5.4,3 -2.5,4.3 1.5,0.7 3.4,1.2 4.2,2.8 1.2,2.4 0.9,7.5 0.2,10 -0.3,1.3 -1,2.4 -2.1,3.2 -2.6,0.1 -4,-1 -4.3,-3.1 -0.3,-1.4 -0.2,-2.8 -0.1,-4.2 0.2,-3.4 0.6,-7.3 4.5,-8.1 3.1,-0.8 1.8,-5.6 -1.4,-4.9 z"
           inkscape:connector-curvature="0"
           style="fill:#460045;fill-opacity:1" />
      </g>
    </g>
    <g
       id="g48"
       transform="matrix(0.22841104,0,0,0.22841104,-13.378865,-37.295662)"
       style="display:inline;opacity:0.49800002;fill:#460045;fill-opacity:1">
      <g
         id="g46"
         style="fill:#460045;fill-opacity:1">
        <path
           id="path44"
           d="m 240,293.8 c 4.8,0 4.8,-7.5 0,-7.5 -4.8,0 -4.8,7.5 0,7.5 z"
           inkscape:connector-curvature="0"
           style="fill:#460045;fill-opacity:1" />
      </g>
    </g>
    <g
       id="g54"
       transform="matrix(0.22841104,0,0,0.22841104,-13.378865,-37.295662)"
       style="display:inline;opacity:0.49800002;fill:#460045;fill-opacity:1">
      <g
         id="g52"
         style="fill:#460045;fill-opacity:1">
        <path
           id="path50"
           d="m 252.8,300 c 0,-0.3 0,-0.7 0,-1 0,-2 -1.7,-3.8 -3.8,-3.8 -2,0.1 -3.8,1.6 -3.8,3.8 0,0.3 0,0.7 0,1 0,2 1.7,3.8 3.8,3.8 2,-0.1 3.8,-1.7 3.8,-3.8 z"
           inkscape:connector-curvature="0"
           style="fill:#460045;fill-opacity:1" />
      </g>
    </g>
    <g
       id="g60"
       transform="matrix(0.22841104,0,0,0.22841104,-13.378865,-37.295662)"
       style="display:inline;opacity:0.49800002;fill:#460045;fill-opacity:1">
      <g
         id="g58"
         style="fill:#460045;fill-opacity:1">
        <path
           id="path56"
           d="m 275.4,307.8 c 4.8,0 4.8,-7.5 0,-7.5 -4.8,0 -4.8,7.5 0,7.5 z"
           inkscape:connector-curvature="0"
           style="fill:#460045;fill-opacity:1" />
      </g>
    </g>
    <g
       id="g66"
       transform="matrix(0.22841104,0,0,0.22841104,-13.378865,-37.295662)"
       style="display:inline;opacity:0.49800002;fill:#460045;fill-opacity:1">
      <g
         id="g64"
         style="fill:#460045;fill-opacity:1">
        <path
           id="path62"
           d="m 286.3,303.8 c 4.8,0 4.8,-7.5 0,-7.5 -4.8,0 -4.8,7.5 0,7.5 z"
           inkscape:connector-curvature="0"
           style="fill:#460045;fill-opacity:1" />
      </g>
    </g>
    <g
       id="g72"
       transform="matrix(0.22841104,0,0,0.22841104,-13.378865,-37.295662)"
       style="display:inline;opacity:0.49800002;fill:#460045;fill-opacity:1">
      <g
         id="g70"
         style="fill:#460045;fill-opacity:1">
        <path
           id="path68"
           d="m 299,287.8 c 4.8,0 4.8,-7.5 0,-7.5 -4.8,0 -4.8,7.5 0,7.5 z"
           inkscape:connector-curvature="0"
           style="fill:#460045;fill-opacity:1" />
      </g>
    </g>
    <g
       id="g78"
       transform="matrix(0.22841104,0,0,0.22841104,-13.378865,-37.295662)"
       style="display:inline;opacity:0.49800002;fill:#460045;fill-opacity:1">
      <g
         id="g76"
         style="fill:#460045;fill-opacity:1">
        <path
           id="path74"
           d="m 266.5,275.4 c 12.4,8.9 24.8,17.8 37.1,26.8 0.6,-1.5 1.3,-3 1.9,-4.6 -13.3,-5.2 -26.6,-10.4 -39.9,-15.5 0.6,0.8 1.2,1.6 1.8,2.4 0.3,-4.1 1.9,-7.2 3.6,-10.8 1.4,-2.9 -3,-5.4 -4.3,-2.5 -2.1,4.5 -3.9,8.3 -4.3,13.3 -0.1,1.2 0.9,2 1.8,2.4 13.3,5.2 26.6,10.4 39.9,15.5 2.8,1.1 4,-3 1.9,-4.6 -12.4,-8.9 -24.8,-17.8 -37.1,-26.8 -2.5,-1.8 -5,2.6 -2.4,4.4 z"
           inkscape:connector-curvature="0"
           style="fill:#460045;fill-opacity:1" />
      </g>
    </g>
    <g
       id="g84"
       transform="matrix(0.22841104,0,0,0.22841104,-13.378865,-37.295662)"
       style="display:inline;opacity:0.49800002;fill:#460045;fill-opacity:1">
      <g
         id="g82"
         style="fill:#460045;fill-opacity:1">
        <path
           id="path80"
           d="m 247.8,318.7 c -19,16.5 -31.9,42.7 -29.1,68.2 2.4,22.1 18.7,40.6 39.1,48.5 23.9,9.4 53.2,4 73.8,-10.8 9.6,-6.9 16.8,-16 19.2,-27.8 2.8,-13.3 0.8,-26.7 -4.2,-39.2 -4.2,-10.7 -9.6,-20.2 -17.8,-28.3 -7.1,-7 -17,-11.4 -24.8,-17.7 -2.5,-2 -6,1.5 -3.5,3.5 11.8,9.6 25.9,15.6 34.2,29.1 12.3,19.9 19.7,50.5 1.9,69.5 -30.9,33.1 -98.8,27.9 -111.7,-20.1 -7,-25.8 7,-54.7 26.3,-71.4 2.6,-2 -0.9,-5.6 -3.4,-3.5 z"
           inkscape:connector-curvature="0"
           style="fill:#460045;fill-opacity:1" />
      </g>
    </g>
    <g
       id="g90"
       transform="matrix(0.22841104,0,0,0.22841104,-13.378865,-37.295662)"
       style="display:inline;opacity:0.49800002;fill:#460045;fill-opacity:1">
      <g
         id="g88"
         style="fill:#460045;fill-opacity:1">
        <path
           id="path86"
           d="m 236.6,338.3 c 5.3,3.3 11.3,4.3 17.4,5.1 7.4,1 15,1.9 22.5,1.8 14.2,-0.2 26.1,-10.1 37.7,-17.2 2.7,-1.7 0.2,-6 -2.5,-4.3 -10.6,6.5 -22.3,16.4 -35.2,16.5 -6.3,0.1 -12.7,-0.5 -19,-1.3 -6.3,-0.8 -12.9,-1.4 -18.4,-4.9 -2.7,-1.7 -5.2,2.6 -2.5,4.3 z"
           inkscape:connector-curvature="0"
           style="fill:#460045;fill-opacity:1" />
      </g>
    </g>
    <g
       id="g96"
       transform="matrix(0.22841104,0,0,0.22841104,-13.378865,-37.295662)"
       style="display:inline;opacity:0.49800002;fill:#460045;fill-opacity:1">
      <g
         id="g94"
         style="fill:#460045;fill-opacity:1">
        <path
           id="path92"
           d="m 291.5,339.5 c -1.1,15.1 -1.5,30.2 -1.1,45.3 0.1,4.1 -1.3,12.9 2.7,15.6 1.8,1.2 3.8,0.6 5.9,0.2 3.4,-0.7 6.8,-1.4 10.3,-2.1 1.1,-0.2 1.7,-1.4 1.8,-2.4 0.4,-5.2 0.5,-10.4 0.3,-15.6 -0.1,-3.2 -5.1,-3.2 -5,0 0.2,5.2 0.1,10.4 -0.3,15.6 0.6,-0.8 1.2,-1.6 1.8,-2.4 -2.6,0.5 -5.1,1.1 -7.7,1.6 -1,0.2 -2.5,0.8 -3.5,0.3 -1.5,-0.7 -1,-2.4 -1.1,-4.1 -0.3,-5.8 -0.4,-11.6 -0.4,-17.4 0,-11.6 0.4,-23.2 1.3,-34.7 0.3,-3.1 -4.7,-3.1 -5,0.1 z"
           inkscape:connector-curvature="0"
           style="fill:#460045;fill-opacity:1" />
      </g>
    </g>
    <g
       id="g102"
       transform="matrix(0.22841104,0,0,0.22841104,-13.378865,-37.295662)"
       style="display:inline;opacity:0.49800002;fill:#460045;fill-opacity:1">
      <g
         id="g100"
         style="fill:#460045;fill-opacity:1">
        <path
           id="path98"
           d="m 298,338.2 c 2.3,14.5 3.2,29.2 2.7,43.9 -0.1,1.8 2.2,3.2 3.8,2.2 2.3,-1.5 4.6,-3 6.9,-4.5 1.6,-1.1 4.1,-2.1 5.3,-3.8 2.1,-3 0.6,-9 0.4,-12.5 -0.6,-11.7 -1.6,-23.3 -3,-35 -0.4,-3.2 -5.4,-3.2 -5,0 1.1,9.7 2,19.4 2.6,29.1 0.3,4 1.5,9.7 0.7,13.6 0.6,1.5 0.2,2.4 -1.2,2.6 -1,0.7 -2.1,1.3 -3.1,2 -2.1,1.3 -4.1,2.7 -6.2,4 1.3,0.7 2.5,1.4 3.8,2.2 0.5,-15.1 -0.5,-30.2 -2.9,-45.2 -0.5,-3.1 -5.3,-1.8 -4.8,1.4 z"
           inkscape:connector-curvature="0"
           style="fill:#460045;fill-opacity:1" />
      </g>
    </g>
    <g
       id="g108"
       transform="matrix(0.22841104,0,0,0.22841104,-13.378865,-37.295662)"
       style="display:inline;opacity:0.49800002;fill:#460045;fill-opacity:1">
      <g
         id="g106"
         style="fill:#460045;fill-opacity:1">
        <path
           id="path104"
           d="m 222.6,361.1 c -9,-5.6 -20.9,-5 -30.9,-3.3 -9.8,1.6 -20.6,7.7 -21.5,18.8 -0.8,10 7.8,16.9 16.6,19 11.5,2.8 23.6,0.7 33.9,-4.8 2.8,-1.5 0.3,-5.8 -2.5,-4.3 -7.8,4.1 -16.4,6 -25.2,5.1 -8.3,-0.8 -20.1,-5.7 -17.6,-16.2 2.2,-9.4 12.7,-12.4 21,-13.2 8,-0.8 16.6,-1.1 23.7,3.2 2.7,1.7 5.2,-2.6 2.5,-4.3 z"
           inkscape:connector-curvature="0"
           style="fill:#460045;fill-opacity:1" />
      </g>
    </g>
    <g
       id="g114"
       transform="matrix(0.22841104,0,0,0.22841104,-13.378865,-37.295662)"
       style="display:inline;opacity:0.49800002;fill:#460045;fill-opacity:1">
      <g
         id="g112"
         style="fill:#460045;fill-opacity:1">
        <path
           id="path110"
           d="m 345.8,354.3 c 8.9,-7 38.8,-15.1 42,2.1 1.6,8.8 -5.3,17.2 -12.3,21.6 -7.2,4.5 -15.8,6.1 -24.1,4.3 -3.1,-0.7 -4.5,4.2 -1.3,4.8 10.3,2.2 21.2,0.1 29.8,-6 8.1,-5.8 15.2,-16 12.8,-26.4 -4.9,-21.2 -38.5,-13.3 -50.3,-3.9 -2.7,1.9 0.9,5.4 3.4,3.5 z"
           inkscape:connector-curvature="0"
           style="fill:#460045;fill-opacity:1" />
      </g>
    </g>
    <g
       id="g120"
       transform="matrix(0.22841104,0,0,0.22841104,-13.378865,-37.295662)"
       style="display:inline;opacity:0.49800002;fill:#460045;fill-opacity:1">
      <g
         id="g118"
         style="fill:#460045;fill-opacity:1">
        <path
           id="path116"
           d="m 243.8,423.9 c -14.4,3.7 -23.4,16.7 -30.5,28.9 -8.1,14 -14,29.6 -15.3,45.9 -1.2,15.6 2.1,32 10.9,45.2 8.5,12.7 21,23.1 34.3,30.3 13,7 27.5,11.4 42.3,11.7 15.7,0.4 32.4,-4.3 46.6,-10.6 14.7,-6.6 25.9,-21.4 33.5,-35.1 8,-14.5 12,-31.2 11.4,-47.7 -1.1,-29.1 -15.3,-63.4 -45.9,-71.4 -3.1,-0.8 -4.4,4 -1.3,4.8 25,6.5 37,31.7 41.1,55.2 5.3,30.4 -7,62.7 -30.3,82.8 -6.2,5.4 -13.6,8.2 -21.3,10.7 -7,2.2 -14.1,4.5 -21.5,5.5 -13.8,2 -28.1,-0.2 -41,-5.2 -26.9,-10.4 -50.8,-33.1 -53.7,-62.9 -1.6,-17 2.8,-34 10.3,-49.1 6.7,-13.4 16,-30.2 31.6,-34.2 3.2,-0.8 1.9,-5.6 -1.2,-4.8 z"
           inkscape:connector-curvature="0"
           style="opacity:1;fill:#460045;fill-opacity:1;stroke:none;stroke-width:0.4378072;stroke-miterlimit:4;stroke-dasharray:none;stroke-opacity:1" />
      </g>
    </g>
    <g
       id="g126"
       transform="matrix(0.22841104,0,0,0.22841104,-13.378865,-37.295662)"
       style="display:inline;opacity:0.49800002;fill:#460045;fill-opacity:1">
      <g
         id="g124"
         style="fill:#460045;fill-opacity:1">
        <path
           id="path122"
           d="m 261,308.8 c 4.8,0 4.8,-7.5 0,-7.5 -4.8,0 -4.8,7.5 0,7.5 z"
           inkscape:connector-curvature="0"
           style="fill:#460045;fill-opacity:1" />
      </g>
    </g>
    <g
       id="g132"
       transform="matrix(0.22841104,0,0,0.22841104,-13.378865,-37.295662)"
       style="display:inline;opacity:0.49800002;fill:#460045;fill-opacity:1">
      <g
         id="g130"
         style="fill:#460045;fill-opacity:1">
        <path
           id="path128"
           d="m 251,268 c 6.4,0 6.4,-10 0,-10 -6.4,0 -6.4,10 0,10 z"
           inkscape:connector-curvature="0"
           style="fill:#460045;fill-opacity:1" />
      </g>
    </g>
    <g
       id="g138"
       transform="matrix(0.22841104,0,0,0.22841104,-13.378865,-37.295662)"
       style="display:inline;opacity:0.49800002;fill:#460045;fill-opacity:1">
      <g
         id="g136"
         style="fill:#460045;fill-opacity:1">
        <path
           id="path134"
           d="m 278.5,261 c 6.4,0 6.4,-10 0,-10 -6.4,0 -6.4,10 0,10 z"
           inkscape:connector-curvature="0"
           style="fill:#460045;fill-opacity:1" />
      </g>
    </g>
    <g
       id="g144"
       transform="matrix(0.22841104,0,0,0.22841104,-13.378865,-37.295662)"
       style="display:inline;opacity:0.49800002;fill:#460045;fill-opacity:1">
      <g
         id="g142"
         style="fill:#460045;fill-opacity:1">
        <path
           id="path140"
           d="m 277.8,352.3 c -0.2,0.2 -0.3,0.3 -0.5,0.5 -1.4,1.4 -1.5,3.9 0,5.3 1.5,1.4 3.8,1.5 5.3,0 0.2,-0.2 0.3,-0.3 0.5,-0.5 1.4,-1.4 1.5,-3.9 0,-5.3 -1.4,-1.3 -3.8,-1.4 -5.3,0 z"
           inkscape:connector-curvature="0"
           style="fill:#460045;fill-opacity:1" />
      </g>
    </g>
    <g
       id="g150"
       transform="matrix(0.22841104,0,0,0.22841104,-13.378865,-37.295662)"
       style="display:inline;opacity:0.49800002;fill:#460045;fill-opacity:1">
      <g
         id="g148"
         style="fill:#460045;fill-opacity:1">
        <path
           id="path146"
           d="m 281,377.3 c 4.8,0 4.8,-7.5 0,-7.5 -4.8,0 -4.8,7.5 0,7.5 z"
           inkscape:connector-curvature="0"
           style="fill:#460045;fill-opacity:1" />
      </g>
    </g>
    <g
       id="g156"
       transform="matrix(0.22841104,0,0,0.22841104,-13.378865,-37.295662)"
       style="display:inline;opacity:0.49800002;fill:#460045;fill-opacity:1">
      <g
         id="g154"
         style="fill:#460045;fill-opacity:1">
        <path
           id="path152"
           d="m 286.8,394 c 0,-0.2 0,-0.3 0,-0.5 0,-2 -1.7,-3.8 -3.8,-3.8 -2,0.1 -3.8,1.6 -3.8,3.8 0,0.2 0,0.3 0,0.5 0,2 1.7,3.8 3.8,3.8 2,-0.1 3.8,-1.7 3.8,-3.8 z"
           inkscape:connector-curvature="0"
           style="fill:#460045;fill-opacity:1" />
      </g>
    </g>
    <g
       id="g162"
       transform="matrix(0.22841104,0,0,0.22841104,-13.378865,-37.295662)"
       style="display:inline;opacity:0.49800002;fill:#460045;fill-opacity:1">
      <g
         id="g160"
         style="fill:#460045;fill-opacity:1">
        <path
           id="path158"
           d="m 283.5,416.3 c 4.8,0 4.8,-7.5 0,-7.5 -4.8,0 -4.8,7.5 0,7.5 z"
           inkscape:connector-curvature="0"
           style="fill:#460045;fill-opacity:1" />
      </g>
    </g>
    <g
       id="g168"
       transform="matrix(0.22841104,0,0,0.22841104,-13.378865,-37.295662)"
       style="display:inline;opacity:0.49800002;fill:#460045;fill-opacity:1">
      <g
         id="g166"
         style="fill:#460045;fill-opacity:1">
        <path
           id="path164"
           d="m 286.5,430.8 c 4.8,0 4.8,-7.5 0,-7.5 -4.8,0 -4.8,7.5 0,7.5 z"
           inkscape:connector-curvature="0"
           style="fill:#460045;fill-opacity:1" />
      </g>
    </g>
    <g
       id="g174"
       transform="matrix(0.22841104,0,0,0.22841104,-13.378865,-37.295662)"
       style="display:inline;opacity:0.49800002;fill:#460045;fill-opacity:1">
      <g
         id="g172"
         style="fill:#460045;fill-opacity:1">
        <path
           id="path170"
           d="m 283.3,455.5 c 0,0.3 0,0.7 0,1 0,2 1.7,3.8 3.8,3.8 2,-0.1 3.8,-1.6 3.8,-3.8 0,-0.3 0,-0.7 0,-1 0,-2 -1.7,-3.8 -3.8,-3.8 -2.1,0.1 -3.8,1.7 -3.8,3.8 z"
           inkscape:connector-curvature="0"
           style="fill:#460045;fill-opacity:1" />
      </g>
    </g>
    <g
       id="g180"
       transform="matrix(0.22841104,0,0,0.22841104,-13.378865,-37.295662)"
       style="display:inline;opacity:0.49800002;fill:#460045;fill-opacity:1">
      <g
         id="g178"
         style="fill:#460045;fill-opacity:1">
        <path
           id="path176"
           d="m 289,479.8 c 4.8,0 4.8,-7.5 0,-7.5 -4.8,0 -4.8,7.5 0,7.5 z"
           inkscape:connector-curvature="0"
           style="fill:#460045;fill-opacity:1" />
      </g>
    </g>
    <g
       id="g186"
       transform="matrix(0.22841104,0,0,0.22841104,-13.378865,-37.295662)"
       style="display:inline;opacity:0.49800002;fill:#460045;fill-opacity:1">
      <g
         id="g184"
         style="fill:#460045;fill-opacity:1">
        <path
           id="path182"
           d="m 284.8,498 c 0,0.3 0,0.7 0,1 0,2 1.7,3.8 3.8,3.8 2,-0.1 3.8,-1.6 3.8,-3.8 0,-0.3 0,-0.7 0,-1 0,-2 -1.7,-3.8 -3.8,-3.8 -2.1,0.1 -3.8,1.7 -3.8,3.8 z"
           inkscape:connector-curvature="0"
           style="fill:#460045;fill-opacity:1" />
      </g>
    </g>
    <g
       id="g192"
       transform="matrix(0.22841104,0,0,0.22841104,-13.378865,-37.295662)"
       style="display:inline;opacity:0.49800002;fill:#460045;fill-opacity:1">
      <g
         id="g190"
         style="fill:#460045;fill-opacity:1">
        <path
           id="path188"
           d="m 291,522.8 c -0.2,0 -0.3,0 -0.5,0 -2,0 -3.8,1.7 -3.8,3.8 0.1,2 1.6,3.8 3.8,3.8 0.2,0 0.3,0 0.5,0 2,0 3.8,-1.7 3.8,-3.8 -0.1,-2.1 -1.7,-3.8 -3.8,-3.8 z"
           inkscape:connector-curvature="0"
           style="fill:#460045;fill-opacity:1" />
      </g>
    </g>
    <g
       id="g198"
       transform="matrix(0.22841104,0,0,0.22841104,-13.378865,-37.295662)"
       style="display:inline;opacity:0.49800002;fill:#460045;fill-opacity:1">
      <g
         id="g196"
         style="fill:#460045;fill-opacity:1">
        <path
           id="path194"
           d="m 289.3,550.3 c -0.2,0.2 -0.3,0.3 -0.5,0.5 -1.4,1.4 -1.5,3.9 0,5.3 1.5,1.4 3.8,1.5 5.3,0 0.2,-0.2 0.3,-0.3 0.5,-0.5 1.4,-1.4 1.5,-3.9 0,-5.3 -1.4,-1.3 -3.8,-1.4 -5.3,0 z"
           inkscape:connector-curvature="0"
           style="fill:#460045;fill-opacity:1" />
      </g>
    </g>
    <g
       id="g204"
       transform="matrix(0.22841104,0,0,0.22841104,-13.378865,-37.295662)"
       style="display:inline;opacity:0.49800002;fill:#460045;fill-opacity:1">
      <g
         id="g202"
         style="fill:#460045;fill-opacity:1">
        <path
           id="path200"
           d="m 291.1,397.3 c 0.1,3.6 0.3,7.1 0.4,10.7 0.1,3.2 5.1,3.2 5,0 -0.1,-3.6 -0.3,-7.1 -0.4,-10.7 -0.1,-3.2 -5.1,-3.2 -5,0 z"
           inkscape:connector-curvature="0"
           style="fill:#460045;fill-opacity:1" />
      </g>
    </g>
    <g
       id="g210"
       transform="matrix(0.22841104,0,0,0.22841104,-13.378865,-37.295662)"
       style="display:inline;opacity:0.49800002;fill:#460045;fill-opacity:1">
      <g
         id="g208"
         style="fill:#460045;fill-opacity:1">
        <path
           id="path206"
           d="m 297.6,400.6 c 1.3,3.1 3,5.8 5.1,8.4 2,2.5 5.6,-1.1 3.5,-3.5 -1.8,-2.2 -3.2,-4.7 -4.4,-7.4 -0.5,-1.2 -2.4,-1.5 -3.4,-0.9 -1.2,0.7 -1.4,2.1 -0.8,3.4 z"
           inkscape:connector-curvature="0"
           style="fill:#460045;fill-opacity:1" />
      </g>
    </g>
    <g
       id="g216"
       transform="matrix(0.22841104,0,0,0.22841104,-13.378865,-37.295662)"
       style="display:inline;opacity:0.49800002;fill:#460045;fill-opacity:1">
      <g
         id="g214"
         style="fill:#460045;fill-opacity:1">
        <path
           id="path212"
           d="m 308.7,400.1 c 0.9,-0.2 2.3,0.5 2.7,1.5 0.5,1.3 1.7,2.1 3.1,1.7 1.2,-0.3 2.2,-1.8 1.7,-3.1 -1.3,-3.7 -5,-5.7 -8.8,-5 -1.3,0.3 -2.1,1.8 -1.7,3.1 0.3,1.5 1.7,2.1 3,1.8 z"
           inkscape:connector-curvature="0"
           style="fill:#460045;fill-opacity:1" />
      </g>
    </g>
    <g
       id="g222"
       transform="matrix(0.22841104,0,0,0.22841104,-13.378865,-37.295662)"
       style="display:inline;opacity:0.49800002;fill:#460045;fill-opacity:1">
      <g
         id="g220"
         style="fill:#460045;fill-opacity:1">
        <path
           id="path218"
           d="m 301.2,382.7 c 0.4,2.8 0.6,5.5 0.7,8.3 0.1,3.2 5.1,3.2 5,0 -0.1,-3.2 -0.4,-6.4 -0.9,-9.7 -0.2,-1.3 -1.9,-2.1 -3.1,-1.7 -1.4,0.4 -1.9,1.7 -1.7,3.1 z"
           inkscape:connector-curvature="0"
           style="fill:#460045;fill-opacity:1" />
      </g>
    </g>
    <g
       id="g228"
       transform="matrix(0.22841104,0,0,0.22841104,-13.378865,-37.295662)"
       style="display:inline;opacity:0.49800002;fill:#460045;fill-opacity:1">
      <g
         id="g226"
         style="fill:#460045;fill-opacity:1">
        <path
           id="path224"
           d="m 309,380.8 c 0.6,0 1.8,2 2.2,2.5 0.9,1.3 1.9,2.6 2.8,3.8 1.8,2.6 6.2,0.1 4.3,-2.5 -1.3,-1.9 -2.7,-3.8 -4.1,-5.6 -1.3,-1.7 -2.8,-3.3 -5.2,-3.2 -3.2,0.2 -3.2,5.2 0,5 z"
           inkscape:connector-curvature="0"
           style="fill:#460045;fill-opacity:1" />
      </g>
    </g>
    <g
       id="g234"
       transform="matrix(0.22841104,0,0,0.22841104,-13.378865,-37.295662)"
       style="display:inline;opacity:0.49800002;fill:#460045;fill-opacity:1">
      <g
         id="g232"
         style="fill:#460045;fill-opacity:1">
        <path
           id="path230"
           d="m 314.7,376.2 c 2.2,1.3 4.5,2.7 6.7,4 2.8,1.7 5.3,-2.7 2.5,-4.3 -2.2,-1.3 -4.5,-2.7 -6.7,-4 -2.7,-1.7 -5.2,2.6 -2.5,4.3 z"
           inkscape:connector-curvature="0"
           style="fill:#460045;fill-opacity:1" />
      </g>
    </g>
  </g>
  <g
     inkscape:groupmode="layer"
     id="layer1"
     inkscape:label="SnowanPath"
     style="display:inline"
     sodipodi:insensitive="true">
    <g
       id="g6-9-2"
       transform="matrix(0.22841104,0,0,0.22841104,-13.378865,-37.295663)"
       style="display:inline;fill:none;stroke:#000014;stroke-width:0.4378072;stroke-miterlimit:4;stroke-dasharray:none;stroke-opacity:1">
      <g
         id="g4-1-2"
         style="fill:none;stroke:#000014;stroke-width:0.4378072;stroke-miterlimit:4;stroke-dasharray:none;stroke-opacity:1" />
    </g>
    <g
       id="g12-7-5"
       transform="matrix(0.22841104,0,0,0.22841104,-13.378865,-37.295663)"
       style="display:inline;fill:none;stroke:#000014;stroke-width:0.4378072;stroke-miterlimit:4;stroke-dasharray:none;stroke-opacity:1">
      <g
         id="g10-0-5"
         style="fill:none;stroke:#000014;stroke-width:0.4378072;stroke-miterlimit:4;stroke-dasharray:none;stroke-opacity:1" />
    </g>
    <g
       id="g18-3-9"
       transform="matrix(0.22841104,0,0,0.22841104,-13.378865,-37.295663)"
       style="display:inline;fill:none;stroke:#000014;stroke-width:0.4378072;stroke-miterlimit:4;stroke-dasharray:none;stroke-opacity:1">
      <g
         id="g16-6-0"
         style="fill:none;stroke:#000014;stroke-width:0.4378072;stroke-miterlimit:4;stroke-dasharray:none;stroke-opacity:1" />
    </g>
    <g
       id="g24-6-8"
       transform="matrix(0.22841104,0,0,0.22841104,-13.378865,-37.295663)"
       style="display:inline;fill:none;stroke:#000014;stroke-width:0.4378072;stroke-miterlimit:4;stroke-dasharray:none;stroke-opacity:1">
      <g
         id="g22-2-3"
         style="fill:none;stroke:#000014;stroke-width:0.4378072;stroke-miterlimit:4;stroke-dasharray:none;stroke-opacity:1" />
    </g>
    <g
       id="g30-1-0"
       transform="matrix(0.22841104,0,0,0.22841104,-13.378865,-37.295663)"
       style="display:inline;fill:none;stroke:#000014;stroke-width:0.4378072;stroke-miterlimit:4;stroke-dasharray:none;stroke-opacity:1">
      <g
         id="g28-8-4"
         style="fill:none;stroke:#000014;stroke-width:0.4378072;stroke-miterlimit:4;stroke-dasharray:none;stroke-opacity:1" />
    </g>
    <g
       id="g84-4-9"
       transform="matrix(0.22841104,0,0,0.22841104,-13.378865,-37.295663)"
       style="display:inline;fill:none;stroke:#000014;stroke-width:0.4378072;stroke-miterlimit:4;stroke-dasharray:none;stroke-opacity:1">
      <g
         id="g82-5-1"
         style="fill:none;stroke:#000014;stroke-width:0.4378072;stroke-miterlimit:4;stroke-dasharray:none;stroke-opacity:1" />
    </g>
    <g
       id="g108-1-6"
       style="display:inline;fill:none;stroke:#000014;stroke-width:0.4378072;stroke-miterlimit:4;stroke-dasharray:none;stroke-opacity:1"
       transform="matrix(0.22841104,0,0,0.22841104,-13.378865,-37.295663)">
      <g
         id="g106-5-2"
         style="fill:none;stroke:#000014;stroke-width:0.4378072;stroke-miterlimit:4;stroke-dasharray:none;stroke-opacity:1">
        <path
           id="path104-5-5"
           style="fill:none;stroke:#000014;stroke-width:0.4378072;stroke-miterlimit:4;stroke-dasharray:none;stroke-opacity:1"
           d="M 343.33817,350.08878 C 341.10445,344.55008 332.9,333.35 328.8,329.3 c -7.1,-7 -15.2271,-10.02422 -23.0271,-16.32422 9.19356,-13.20685 11.63821,-25.34805 11.9271,-42.17578 -0.9,-18.6 -9.1,-35.1 -23.1,-47.3 -3.6,-13.99999 -7.2,-26.6 -11.85,-40.3 -0.85,-3.1 -3.55,-9.1 -7.05,-9.9 -2.5,-0.6 -4.4,1.1 -6.4,2.2 -3.2,1.7 -6.7,2.8 -10.2,3.6 -14.3,3.1 -29.2,4.3 -43.6,6.4 -3.2,0.4 -2.6,4.1 -1.78972,9.29614 0.64839,4.49046 1.69217,8.64853 2.6078,13.05947 -7.5,2.7 -12.31808,9.34439 -12.01808,17.54439 0.1,3.7 2.1,5.8 5.7,6.5 5.1,0.9 8.79157,1.09335 13.99157,0.79335 1.54063,4.22344 1.65048,4.13105 3.55048,8.25606 -4.6,7.2 -6.24205,15.25059 -6.94205,23.65059 -0.7,8.6 -0.8,17.7 1,26.1 1.75,8.05 8.95286,22.9469 24.28488,29.71499 -9.16382,7.39162 -21.89559,27.01832 -24.75019,39.84046 -9.45816,-4.13331 -19.43469,-4.15544 -29.43469,-2.45544 -9.8,1.6 -20.6,7.69999 -21.5,18.79999 -0.8,10 7.8,16.9 16.6,19 11.5,2.8 22.41161,0.93161 32.60192,-4.12962 3.39869,14.23334 10.18075,25.24317 20.69036,33.61724 C 227.8278,429.88607 219.77403,441.67561 213.3,452.8 c -8.1,14 -14,29.6 -15.3,45.9 -1.2,15.6 2.1,32 10.9,45.2 8.5,12.7 21,23.1 34.3,30.3 13,7 27.5,11.4 42.3,11.7 15.7,0.4 32.4,-4.3 46.6,-10.6 14.7,-6.6 25.9,-21.4 33.5,-35.1 8,-14.5 12,-31.2 11.4,-47.7 -1.05548,-27.92214 -14.17193,-60.63183 -42.27505,-70.29454 8.0191,-6.56568 13.94231,-14.9195 16.07505,-25.40546 1.4,-6.65 1.10366,-7.78277 1.18202,-9.34678 2.54237,0.41321 5.12907,0.56786 7.698,0.46553 7.20103,-0.28685 14.26238,-2.59301 20.21998,-6.81875 8.1,-5.8 15.2,-16 12.8,-26.4 -4.76946,-20.63523 -36.73015,-13.70026 -49.31148,-4.64754"
           inkscape:connector-curvature="0"
           sodipodi:nodetypes="ccccccccccccccccccccccccccccccccccccsccc" />
      </g>
    </g>
    <g
       id="g114-4-4"
       transform="matrix(0.22841104,0,0,0.22841104,-13.378865,-37.295663)"
       style="display:inline;fill:none;stroke:#000014;stroke-width:0.4378072;stroke-miterlimit:4;stroke-dasharray:none;stroke-opacity:1">
      <g
         id="g112-7-4"
         style="fill:none;stroke:#000014;stroke-width:0.4378072;stroke-miterlimit:4;stroke-dasharray:none;stroke-opacity:1" />
    </g>
    <g
       id="g120-5-9"
       transform="matrix(0.22841104,0,0,0.22841104,-13.378865,-37.295663)"
       style="display:inline;fill:none;stroke:#000014;stroke-width:0.4378072;stroke-miterlimit:4;stroke-dasharray:none;stroke-opacity:1">
      <g
         id="g118-6-3"
         style="fill:none;stroke:#000014;stroke-width:0.4378072;stroke-miterlimit:4;stroke-dasharray:none;stroke-opacity:1" />
    </g>
  </g>
  <g
     id="g822"
     inkscape:groupmode="layer"
     inkscape:label="[fixed] BG"
     style="display:inline"
     sodipodi:insensitive="true" />
  <g
     id="g824"
     inkscape:groupmode="layer"
     inkscape:label="Edge.Cuts"
     style="display:inline"
     sodipodi:insensitive="true">
    <path
       d="M273.58594 171.17188L273.143899219 171.25725481L272.720140625 171.363372539L272.313962969 171.48778189L271.924665 171.628031563L271.551545469 171.781670259L271.193903125 171.94624668L270.522245 172.2984075L269.904080625 172.664903633L269.3338 173.026124687L268.805793125 173.362460273L268.31445 173.6543L267.186322363 174.220867539L266.028537031 174.741415312L264.844476621 175.218771055L263.63752375 175.6557625L262.411061035 176.055217383L261.168471094 176.419963438L259.913136543 176.752828398L258.64844 177.05664L255.996522798 177.608538008L253.328979727 178.121043437L250.647413589 178.598199023L247.953427187 179.0440475L245.248623325 179.462631602L242.534604805 179.857994062L239.812974429 180.234177617L237.085335 180.595225L231.618440195 181.288082187L226.146742812 181.9689075L220.683065273 182.670042813L217.958240952 183.038333555L215.24023 183.42383L215.23823 183.42383L214.789164297 183.500711992L214.3464 183.617652187L213.915135078 183.773528164L213.5005675 183.9672175L213.107895234 184.197597773L212.74231625 184.463546562L212.409028516 184.763941445L212.11323 185.09766L211.859180195 185.454373848L211.645609062 185.822748906L211.469004023 186.200682949L211.3258525 186.58607375L211.212641914 186.976819082L211.125859687 187.370816719L211.061993242 187.765964434L211.01753 188.16016L210.972905762 188.952042676L210.977555469 189.761834531L211.024342754 190.591303809L211.10613125 191.44221875L211.21578459 192.316347598L211.346166406 193.215458594L211.64057 195.0957L211.64257 195.1057L211.64457 195.1194L211.880416289 196.636231914L212.141309062 198.125850312L212.42253668 199.59328418L212.7193875 201.0435625L213.341112187 203.912768438L213.96879 206.7737L213.295092931 207.099147083L212.636329072 207.445180215L211.99298101 207.811410349L211.365531328 208.197448438L210.754462614 208.602905432L210.160257451 209.027392285L209.583398427 209.470519949L209.024368125 209.931899375L208.483649132 210.411141516L207.961724033 210.907857324L207.459075414 211.421657751L206.976185859 211.95215375L206.513537955 212.498956272L206.071614287 213.06167627L205.65089744 213.639924695L205.25187 214.2333125L204.875014552 214.841450637L204.520813682 215.463950059L204.189749974 216.100421716L203.882306016 216.750476562L203.598964391 217.413725549L203.340207686 218.089779629L203.106518485 218.778249753L202.898379375 219.478746875L202.716272941 220.190881946L202.560681768 220.914265918L202.432088441 221.648509744L202.330975547 222.393224375L202.25782567 223.148020764L202.213121396 223.912509863L202.197345311 224.686302625L202.21098 225.46901L202.263084336 226.287715273L202.310844009 226.688644868L202.373159687 227.083355938L202.450094624 227.471396108L202.54171207 227.852313008L202.648075278 228.225654263L202.7692475 228.5909675L202.905291987 228.947800347L203.056271992 229.29570043L203.222250767 229.634215376L203.403291562 229.962892812L203.599457632 230.281280366L203.810812227 230.588925664L204.037418599 230.885376333L204.27934 231.17018L204.535677209 231.442446467L204.804259238 231.70067377L205.084642312 231.945061257L205.376382656 232.175808281L205.679036497 232.393114192L205.992160059 232.59717834L206.315309568 232.788200076L206.64804125 232.96637875L206.989911331 233.131913713L207.340476035 233.285004316L208.065914219 233.554649844L208.820805605 233.776910137L209.6016 233.95338L209.6368 233.96138L211.353463594 234.241699141L213.003584375 234.464911875L214.607059844 234.634348672L216.1837875 234.75334L217.753664844 234.825216328L219.336589375 234.853308125L220.952458594 234.840945859L222.62117 234.79146L223.234425937 236.353603437L223.8319075 237.78187L224.476365312 239.232996563L225.23055 240.86372L224.82804379 241.553595862L224.441169812 242.247527251L224.069607857 242.945408305L223.713037715 243.647133164L223.043592034 245.061690854L222.430271094 246.490353438L221.87051322 247.932274028L221.361756738 249.386605742L220.901439973 250.852501694L220.48700125 252.329115L220.115878894 253.815598774L219.78551123 255.311106133L219.493336584 256.81479019L219.236793281 258.325804062L219.013319646 259.843300864L218.820354004 261.366433711L218.65533468 262.894355718L218.5157 264.42622L218.5157 264.43022L218.390109026 266.068559033L218.280343301 267.718879609L218.188455496 269.379495693L218.116498281 271.04872125L218.066524329 272.724870244L218.040586309 274.406256641L218.040736892 276.091194404L218.06902875 277.7779975L218.127514553 279.464979893L218.218246973 281.150455547L218.343278679 282.832738428L218.504662344 284.5101425L218.704450637 286.180981729L218.94469623 287.843570078L219.227451794 289.496221514L219.55477 291.13725L219.55477 291.14525L219.7359321 291.927425485L219.946869731 292.741385132L220.18802364 293.584895914L220.45983457 294.455724805L220.76274327 295.351638779L221.097190483 296.27040481L221.463616957 297.209789871L221.862463437 298.167560937L222.29417067 299.141484982L222.759179399 300.129328979L223.257930373 301.128859903L223.790864336 302.137844727L224.358422034 303.154050424L224.961044214 304.17524397L225.59917162 305.199192337L226.273245 306.2236625L226.983705098 307.246421432L227.730992661 308.265236108L228.515548434 309.277873502L229.337813164 310.282100586L230.198227596 311.275684335L231.097232476 312.256391724L232.035268549 313.221989725L233.012776562 314.170245313L234.030197261 315.098925461L235.087971392 316.005797144L236.186539699 316.888627335L237.32634293 317.745183008L238.507821829 318.573231137L239.731417144 319.370538696L240.997569619 320.134872659L242.30672 320.864L241.469013695 321.668656887L240.625220339 322.515909858L239.776802337 323.403714883L238.92522209 324.33002793L238.071942002 325.292804965L237.218424475 326.290001958L236.366131913 327.319574876L235.516526719 328.379479688L234.671071295 329.46767236L233.831228044 330.582108862L232.99845937 331.720745162L232.174227676 332.881537227L231.359995363 334.062441025L230.557224836 335.261412524L229.767378498 336.476407693L228.99191875 337.7053825L228.232307997 338.946292912L227.49000864 340.197094897L226.766483084 341.455744424L226.06319373 342.720197461L225.381602983 343.988409975L224.723173245 345.258337935L224.089366918 346.527937308L223.481646406 347.795164062L222.901474112 349.057974167L222.350312439 350.314323589L221.829623789 351.562168297L221.340870566 352.799464258L220.885515173 354.024167441L220.465020012 355.234233813L220.080847487 356.427619344L219.73446 357.60228L218.864109258 357.289760135L217.991741372 356.996870923L217.117452849 356.723289501L216.241340195 356.468693008L215.36349992 356.23275858L214.48402853 356.015163354L213.603022534 355.81558447L212.720578437 355.633699062L211.83679275 355.469184271L210.951761978 355.321717231L210.065582629 355.190975082L209.178351211 355.076634961L208.290164232 354.978374005L207.401118198 354.895869351L206.511309619 354.828798137L205.620835 354.7768375L203.838273677 354.716956509L202.054206289 354.713643477L200.269404897 354.764315503L198.484641562 354.866389687L196.700688345 355.01728313L194.918317305 355.21441293L193.138300503 355.455196187L191.36141 355.73705L191.35741 355.73705L190.380707585 355.909890964L189.400161934 356.110327871L188.417674807 356.338659241L187.435147969 356.595183594L186.454483181 356.880199451L185.477582207 357.194005332L184.506346809 357.536899758L183.54267875 357.90918125L182.588479792 358.311148328L181.645651699 358.743099512L180.716096233 359.205333323L179.801715156 359.698148281L178.904410232 360.221842908L178.026083223 360.776715723L177.168635891 361.363065247L176.33397 361.98119L175.523971624 362.632898147L174.741366426 363.319333301L173.988747429 364.040235906L173.268707656 364.795346406L172.583840129 365.584405247L171.936737871 366.407152871L171.329993904 367.263329724L170.76620125 368.15267625L170.247952932 369.074932893L169.777841973 370.029840098L169.561648322 370.519456549L169.358461394 371.017138308L169.168605317 371.522852929L168.992404219 372.036567969L168.830182227 372.558250982L168.682263469 373.087869524L168.548972074 373.625391151L168.430632168 374.170783418L168.32756788 374.724013881L168.240103337 375.285050095L168.168562668 375.853859616L168.11327 376.43041L168.11327 376.43441L168.0789072 376.960193801L168.060120686 377.481445679L168.056640475 377.998066973L168.068196582 378.509959023L168.13533782 379.519160747L168.259384531 380.508261562L168.438176848 381.476472183L168.669554902 382.42300332L168.951358826 383.347065688L169.28142875 384.24787L169.657604807 385.124626968L170.077727129 385.976547305L170.539635847 386.802841724L171.041171094 387.602720938L171.580173 388.375395659L172.154481699 389.120076602L172.761937322 389.835974478L173.40038 390.5223L174.0669352 391.179365474L174.759785195 391.808648633L175.477297827 392.410028335L176.217840938 392.983383438L176.979782368 393.528592798L177.761489961 394.045535273L178.561331558 394.534089722L179.377675 394.994135L180.20888813 395.425549966L181.053338789 395.828213477L181.909394819 396.20200439L182.775424063 396.546801563L183.64979436 396.862483853L184.530873555 397.148930117L185.417029487 397.406019214L186.30663 397.63363L186.31063 397.63363L186.31463 397.63563L187.360325525 397.877635301L188.403131306 398.094313152L189.442997406 398.285953347L190.479873887 398.452845684L191.513710809 398.595279956L192.544458235 398.713545959L193.572066226 398.80793349L194.596484844 398.878732344L195.61766415 398.926232315L196.635554207 398.950723201L197.650105075 398.952494795L198.661266816 398.931836895L199.668989493 398.889039294L200.673223167 398.82439179L201.673917898 398.738184176L202.67102375 398.63070625L203.664490783 398.502247806L204.65426906 398.35309864L205.640308642 398.183548548L206.62255959 397.993887324L207.600971966 397.784404765L208.575495833 397.555390667L209.54608125 397.307134823L210.512678281 397.039927031L211.475236987 396.754057086L212.433707429 396.449814783L213.388039669 396.127489917L214.33818377 395.787372285L215.284089791 395.429751682L216.225707795 395.054917903L217.162987845 394.663160744L218.09588 394.25477L218.419326867 395.406217692L218.758787122 396.544019233L219.114273371 397.668211695L219.485798223 398.778832148L219.873374283 399.875917665L220.277014158 400.959505317L220.696730455 402.029632176L221.132535781 403.086335313L221.584442743 404.129651799L222.052463948 405.159618706L222.536612002 406.176273106L223.036899512 407.17965207L223.553339085 408.16979267L224.085943328 409.146731978L224.634724847 410.110507064L225.19969625 411.061155L225.780870143 411.998712858L226.378259133 412.92321771L226.991875827 413.834706627L227.621732832 414.73321668L228.267842754 415.618784941L228.930218201 416.491448481L229.608871778 417.351244373L230.303816094 418.198209688L231.015063754 419.032381496L231.742627366 419.85379687L232.486519536 420.662492881L233.246752871 421.458506602L234.023339978 422.241875102L234.816293464 423.012635454L235.625625936 423.77082473L236.45135 424.51648L235.394986573 425.065755011L234.360715984 425.646077395L233.348112144 426.256289113L232.356748965 426.895232129L231.386200359 427.561748404L230.436040237 428.2546799L229.505842511 428.97286858L228.595181094 429.715156406L227.703629896 430.480385341L226.83076283 431.267397346L225.976153806 432.075034384L225.139376738 432.902138418L224.320005537 433.747551409L223.517614114 434.61011532L222.731776381 435.488672113L221.96206625 436.38206375L221.208057633 437.289132194L220.469324441 438.208719407L219.745440586 439.139667351L219.03597998 440.080817988L218.340516535 441.031013282L217.658624163 441.989095193L216.333848281 443.924286719L215.05824363 445.877128264L213.828401504 447.838355527L212.640913196 449.798704207L211.49237 451.74891L211.49037 451.75491L210.726538744 453.091227202L209.975991711 454.437235193L209.239188066 455.792774801L208.516586973 457.157686855L207.808647596 458.531812184L207.115829099 459.914991614L206.438590648 461.307065974L205.777391406 462.707876094L205.132690539 464.1172628L204.504947209 465.535066921L203.894620583 466.961129286L203.302169824 468.395290723L202.728054097 469.837392059L202.172732566 471.287274124L201.636664395 472.744777744L201.12030875 474.20974375L200.624124794 475.682012968L200.148571692 477.161426228L199.694108608 478.647824357L199.261194707 480.141048184L198.850289153 481.640938536L198.461851111 483.147336243L198.096339745 484.660082132L197.754214219 486.179017031L197.435933698 487.70398177L197.141957346 489.234817175L196.872744328 490.771364076L196.628753809 492.313463301L196.410444951 493.860955677L196.218276921 495.413682034L196.052708883 496.971483199L195.9142 498.5342L195.9142 498.5402L195.812292587 500.042959099L195.737539331 501.549950522L195.690149642 503.060435152L195.67033293 504.573673867L195.678298605 506.088927548L195.714256079 507.605457075L195.778414761 509.122523328L195.870984062 510.639387188L195.992173393 512.155309533L196.142192163 513.669551245L196.321249783 515.181373204L196.529555664 516.690036289L196.767319216 518.194801381L197.034749849 519.69492936L197.332056973 521.189681107L197.65945 522.6783175L198.017138339 524.160099421L198.405331401 525.634287749L198.824238597 527.100143365L199.274069336 528.556927148L199.755033029 530.00389998L200.267339087 531.440322739L200.81119692 532.865456307L201.386815937 534.278561563L201.994405551 535.678899387L202.634175171 537.065730659L203.306334207 538.43831626L204.01109207 539.79591707L204.748658171 541.137793969L205.519241919 542.463207837L206.323052725 543.771419554L207.1603 545.06169L207.1623 545.06569L207.992742788 546.281800181L208.846122537 547.483330981L209.721852575 548.670139348L210.61934623 549.842082227L211.538016832 550.999016566L212.477277708 552.140799312L213.436542185 553.267287411L214.415223594 554.378337813L215.412735261 555.473807462L216.428490515 556.553553306L217.461902685 557.617432292L218.512385098 558.665301367L219.579351082 559.697017479L220.662213967 560.712437573L221.76038708 561.711418598L222.87328375 562.6938175L224.000317304 563.659491226L225.140901072 564.608296724L226.29444838 565.540090939L227.460372559 566.45473082L228.638086935 567.352073314L229.827004836 568.231975366L231.026539593 569.094293925L232.236104531 569.938885937L233.455112981 570.76560835L234.682978269 571.57431811L235.919113725 572.364872165L237.162932676 573.137127461L238.413848451 573.890940945L239.671274377 574.626169565L240.934623784 575.342670268L242.20331 576.0403L242.20731 576.0423L243.453993459 576.703403071L244.709624661 577.348834917L245.973985471 577.97830699L247.246857754 578.591530742L248.528023374 579.188217624L249.817264197 579.768079087L251.114362086 580.330826583L252.419098906 580.876171562L253.731256523 581.403825478L255.050616799 581.91349978L256.376961601 582.404905921L257.710072793 582.877755352L259.049732239 583.331759523L260.395721804 583.766629888L261.747823353 584.182077896L263.10581875 584.577815L264.46948986 584.953552651L265.838618547 585.3090023L267.212986677 585.643875399L268.592376113 585.957883398L269.976568721 586.250737751L271.365346365 586.522149907L272.758490909 586.771831319L274.155784219 586.999493437L275.557008158 587.204847714L276.961944592 587.387605601L278.370375385 587.547478548L279.782082402 587.684178008L281.196847508 587.797415432L282.614452566 587.886902271L284.034679442 587.952349976L285.45731 587.99347L286.973750431 588.01670213L288.494188489 588.010074187L290.018015569 587.974249048L291.544623066 587.90988959L293.073402378 587.817658689L294.6037449 587.698219221L296.135042027 587.552234064L297.666685156 587.380366094L299.198065683 587.183278187L300.728575002 586.96163322L302.257604511 586.71609407L303.784545605 586.447323613L305.30878968 586.155984726L306.829728132 585.842740286L308.346752357 585.508253168L309.85925375 585.15318625L311.366623708 584.778202408L312.868253625 584.383964519L314.3635349 583.971135459L315.851858926 583.540378105L317.3326171 583.092355334L318.805200818 582.627730022L320.269001476 582.147165045L321.723410469 581.651323281L323.167819193 581.140867606L324.601619045 580.616460896L326.024201421 580.078766028L327.434957715 579.528445879L328.833279324 578.966163325L330.218557644 578.392581243L332.94755 577.21417L332.95755 577.21017L334.389818608 576.53788781L335.798442617 575.818960176L337.183496177 575.055132063L338.545053437 574.248148437L339.88318855 573.399754265L341.197975664 572.511694512L342.489488931 571.585714143L343.7578025 570.623558125L345.002990522 569.626971423L346.225127148 568.597699004L347.424286528 567.537485833L348.600542813 566.448076875L349.753970151 565.331217097L350.884642695 564.188651465L351.992634595 563.022124944L353.07802 561.8333825L354.140873062 560.624169099L355.18126793 559.396229707L356.199278755 558.15130929L357.194979687 556.891152812L358.168444878 555.617505242L359.119748477 554.332111543L360.048964634 553.036716682L360.9561675 551.733065625L361.841431226 550.422903337L362.704829961 549.107974785L363.546437856 547.790024934L364.366329062 546.47079875L365.164577729 545.152041199L365.941258008 543.835497246L366.696444048 542.522911858L367.43021 541.21603L367.43221 541.21003L368.187590287 539.812664439L368.91884269 538.402709456L369.62585702 536.980603539L370.308523086 535.546785176L370.9667307 534.101692856L371.600369673 532.645765066L372.209329815 531.179440295L372.793500937 529.703157031L373.352772851 528.217353763L373.887035366 526.722468977L374.396178294 525.218941163L374.880091445 523.707208809L375.338664631 522.187710402L375.771787661 520.660884431L376.179350347 519.127169384L376.5612425 517.58700375L376.91735393 516.040826016L377.247574448 514.48907467L377.551793865 512.932188202L377.829901992 511.370605098L378.08178864 509.804763847L378.307343618 508.235102937L378.506456739 506.662060857L378.679017812 505.086076094L378.82491665 503.507587137L378.944043062 501.927032473L379.036286859 500.344850592L379.101537852 498.76147998L379.139685851 497.177359128L379.150620669 495.592926521L379.134232115 494.008620649L379.09041 492.42488L379.09041 492.42288L379.03091559 491.082929317L378.95342624 489.736701726L378.857858712 488.384818911L378.744129766 487.027902559L378.612156161 485.666574353L378.461854658 484.301455979L378.293142018 482.933169123L378.105935 481.562335469L377.900150365 480.189576703L377.675704873 478.815514509L377.432515284 477.440770574L377.170498359 476.065966582L376.889570858 474.691724218L376.589649541 473.318665168L376.270651168 471.947411117L375.9324925 470.57858375L375.575090297 469.212804752L375.198361318 467.850695808L374.802222325 466.492878604L374.386590078 465.139974824L373.951381337 463.792606154L373.496512861 462.45139428L373.021901412 461.116960885L372.52746375 459.789927656L372.013116635 458.470916278L371.478776826 457.160548435L370.924361085 455.859445813L370.349786172 454.568230098L369.754968846 453.287522973L369.139825869 452.017946125L368.504274 450.760121239L367.84823 449.51467L367.221651195 448.372305561L366.576735266 447.24183093L365.913445439 446.123778515L365.231744941 445.018680723L364.531597 443.927069959L363.812964841 442.84947863L363.075811693 441.786439144L362.320100781 440.738483906L361.545795334 439.706145324L360.752858577 438.689955803L359.941253737 437.690447751L359.110944043 436.708153574L358.26189272 435.743605679L357.394062996 434.797336472L356.507418097 433.86987836L355.60192125 432.96176375L354.677535683 432.073525048L353.734224622 431.205694661L352.771951294 430.358804995L351.790678926 429.533388457L350.790370745 428.729977454L349.770989978 427.949104392L348.732499852 427.191301678L347.674863594 426.457101719L346.59804443 425.74703692L345.502005588 425.06163969L344.386710295 424.401442434L343.252121777 423.766977559L342.098203262 423.158777471L340.924917976 422.577374578L339.732229146 422.023301285L338.5201 421.49709L339.813766975 420.269317925L341.065421895 419.005382461L342.272691375 417.704784126L342.858939892 417.040580294L343.433202031 416.367023437L343.995181118 415.684051122L344.544580481 414.991600913L345.081103446 414.289610374L345.60445334 413.57801707L346.11433349 412.856758566L346.610447224 412.125772427L347.092497868 411.384996216L347.56018875 410.6343675L348.013223196 409.873823842L348.451304534 409.103302808L348.87413609 408.322741961L349.281421191 407.532078867L349.672863166 406.731251091L350.048165339 405.920196196L350.40703104 405.098851749L350.749163594 404.267155312L351.074266328 403.425044453L351.382042571 402.572456733L351.672195648 401.70932972L351.944428887 400.835600977L352.198445614 399.951208068L352.433949158 399.05608856L352.650642844 398.150180015L352.84823 397.23342L352.85023 397.22742L353.149784805 395.756749609L353.391689688 394.47351125L353.582414102 393.358970391L353.7284275 392.3943925L353.836199336 391.561043047L353.912199063 390.8401875L353.962896133 390.213091328L353.99476 389.66102L355.435893281 389.809456406L356.87799875 389.93767375L357.599350723 389.984451738L358.320867344 390.014476719L359.04252248 390.023849277L359.76429 390.00867L361.185958899 389.927059753L362.602913535 389.795725371L364.013665818 389.614794514L365.416727656 389.384394844L366.810610959 389.104654021L368.193827637 388.775699707L369.564889597 388.397659563L370.92230875 387.97066125L372.264597004 387.494832429L373.59026627 386.970300762L374.897828455 386.397193909L376.185795469 385.775639531L377.452679221 385.105765291L378.696991621 384.387698848L379.917244578 383.621567864L381.11195 382.8075L381.11995 382.8015L381.920915969 382.212252027L382.71511373 381.596073167L383.500798376 380.953697572L384.276225 380.285859395L385.039648694 379.593292787L385.789324551 378.876731902L386.523507664 378.136910891L387.240453125 377.374563906L387.938416028 376.5904251L388.615651465 375.785228625L389.270414529 374.959708634L389.900960312 374.114599277L390.505543909 373.250634709L391.08242041 372.36854908L391.62984491 371.469076543L392.1460725 370.55295125L392.629358274 369.620907354L393.077957324 368.673679006L393.490124744 367.71200036L393.864115625 366.736605566L394.198185061 365.748228778L394.490588145 364.747604148L394.739579968 363.735465827L394.943415625 362.712547969L395.100350208 361.679584724L395.208638809 360.637310247L395.266536521 359.586458687L395.272298437 358.527764199L395.224179651 357.461960934L395.120435254 356.389783044L394.959320339 355.311964682L394.73909 354.22924L394.469140068 353.183009233L394.152939922 352.175564805L393.792069658 351.206933521L393.388109375 350.277142187L392.94263917 349.386217612L392.457239141 348.534186602L391.933489385 347.721075962L391.37297 346.9469125L390.777261084 346.211723022L390.147942734 345.515534336L389.486595049 344.858373247L388.794798125 344.240266562L388.074132061 343.661241089L387.326176953 343.121323633L386.5525129 342.620541001L385.75472 342.15892L384.935312358 341.735010146L384.096471836 341.346743516L383.239274536 340.993226377L382.364796563 340.673565L381.474114019 340.386865654L380.568303008 340.132234609L379.648439634 339.908778135L378.7156 339.7156025L377.77086021 339.551813975L376.815296367 339.416518828L375.849984575 339.30882333L374.876000937 339.22783375L373.894421558 339.172656357L372.906322539 339.142397422L371.912779985 339.136163213L370.91487 339.15306L369.999964111 339.188017534L369.083506479 339.241114963L368.166163724 339.311929212L367.248602461 339.400037207L366.331489308 339.505015873L365.415490884 339.626442136L364.501273804 339.763892922L363.589504687 339.916945156L362.680850151 340.085175764L361.775976812 340.268161672L359.980240195 340.67670709L358.207627778 341.139196814L356.4634725 341.65224625L354.7531073 342.212470803L353.081865117 342.816485879L351.455078892 343.460906882L349.878081562 344.142349219L348.356206069 344.857428293L346.894785352 345.602759512L345.499152349 346.374958279L344.17464 347.17064L343.539199009 345.947948308L342.830475664 344.674613965L342.057503159 343.361856194L341.229314687 342.020894219L340.354943442 340.662947263L339.443422617 339.299234551L338.503785405 337.940975305L337.545065 336.59938875L336.576294595 335.285694109L335.606507383 334.011110605L334.644736558 332.786857463L333.700015312 331.624153906L332.781376841 330.534219158L331.897854336 329.528272441L331.058480991 328.617532981L330.27229 327.81322L330.27029 327.81122L329.61570243 327.178268393L328.957503545 326.565740774L328.295909078 325.972577324L327.631134766 325.397718223L326.292909541 324.298673787L324.94455375 323.260128906L323.587793271 322.273605022L322.224353984 321.330623574L320.855961768 320.422706003L319.4843425 319.54137375L316.738326328 317.824550957L314.0001125 316.112326719L312.638246162 315.236742659L311.283508047 314.336872559L309.937624033 313.404237859L308.60232 312.43036L309.379140635 311.220750895L310.121298677 310.013388955L310.829504577 308.807467557L311.504468789 307.602180078L312.146901766 306.396719894L312.75751396 305.190280381L313.337015825 303.982054916L313.886117812 302.771236875L314.405530377 301.557019635L314.89596397 300.338596572L315.358129045 299.115161063L315.792736055 297.885906484L316.200495452 296.650026212L316.58211769 295.406713623L316.938313222 294.155162094L317.2697925 292.894565L317.577265977 291.624115719L317.861444106 290.343007627L318.123037341 289.0504341L318.362756133 287.745588516L318.581310936 286.427664249L318.779412202 285.095854678L318.957770385 283.749353177L319.117095937 282.387353125L319.258099312 281.009047897L319.381490962 279.613630869L319.48798134 278.200295419L319.578280898 276.768234922L319.653100091 275.316642755L319.71314937 273.844712295L319.79178 270.83661L319.78978 270.69989L319.682289454 268.931867973L319.531704385 267.176266321L319.338325267 265.433510752L319.102452578 263.704026973L318.824386793 261.988240691L318.504428389 260.286577615L318.142877841 258.599463451L317.740035625 256.927323906L317.296202218 255.270584689L316.811678096 253.629671506L316.286763734 252.005010066L315.721759609 250.397026074L315.116966198 248.80614524L314.472683975 247.232793269L313.789213417 245.67739587L313.066855 244.14037875L312.3059092 242.622167616L311.506676494 241.123188176L310.669457357 239.643866137L309.794552266 238.184627207L308.882261696 236.745897093L307.932886123 235.328101501L306.946726024 233.931666141L305.924081875 232.557016719L304.865254152 231.204578942L303.77054333 229.874778518L302.640249886 228.568041154L301.474674297 227.284792559L300.274117037 226.025458438L299.038878584 224.7904645L297.769259413 223.580236451L296.46556 222.3952L295.132741582 217.293466387L293.786239531 212.283676094L292.414418652 207.338889941L291.00564375 202.43216875L289.548279629 197.53657334L288.030691094 192.625164531L286.441242949 187.671003145L284.7683 182.64715L284.566216973 181.958508398L284.322674531 181.221086563L284.037885137 180.444196445L283.71206125 179.63715L283.345415332 178.80925918L282.938159844 177.969835938L282.490507246 177.128192227L282.00267 176.29364L281.476538359 175.470914375L280.9071875 174.667566875L280.604055596 174.278817441L280.287419766 173.901701563L279.956380303 173.538482246L279.6100375 173.1914225L279.24749165 172.862785332L278.867843047 172.55483375L278.470191982 172.269830762L278.05363875 172.010039375L277.617283643 171.777722598L277.160226953 171.575143438L276.681568975 171.404564902L276.18041 171.26825L275.844185156 171.197189316L275.50954375 171.144291406L275.177409219 171.10891748L274.848705 171.09042875L274.524354531 171.088186426L274.20528125 171.101551719L273.892408594 171.12988584L273.58666 171.17255L273.58594 171.17188"
       id="path104-5-5-4"
       style="fill:none;stroke:#000014;stroke-width:0.4378072;stroke-miterlimit:4;stroke-dasharray:none;stroke-opacity:1"
       inkscape:original="M 273.92578 173.23633 C 272.24297 173.51289 270.80078 174.675 269.30078 175.5 C 266.10078 177.2 262.59961 178.29961 259.09961 179.09961 C 244.79961 182.19961 229.9 183.4 215.5 185.5 C 212.3 185.9 212.90066 189.60074 213.71094 194.79688 C 214.35933 199.28734 215.40273 203.44453 216.31836 207.85547 C 208.81836 210.55547 204.00078 217.20039 204.30078 225.40039 C 204.40078 229.10039 206.4 231.20039 210 231.90039 C 215.1 232.80039 218.79219 232.99336 223.99219 232.69336 C 225.53282 236.9168 225.64297 236.82421 227.54297 240.94922 C 222.94297 248.14922 221.29961 256.19961 220.59961 264.59961 C 219.89961 273.19961 219.79961 282.29922 221.59961 290.69922 C 223.34961 298.74922 230.55275 313.64597 245.88477 320.41406 C 236.72095 327.80568 223.98937 347.43372 221.13477 360.25586 C 211.67661 356.12255 201.69922 356.10078 191.69922 357.80078 C 181.89922 359.40078 171.09922 365.49961 170.19922 376.59961 C 169.39922 386.59961 178.00078 393.49961 186.80078 395.59961 C 198.30078 398.39961 209.21203 396.53193 219.40234 391.4707 C 222.80103 405.70404 229.58219 416.71382 240.0918 425.08789 C 227.82732 429.88634 219.77481 441.67639 213.30078 452.80078 C 205.20078 466.80078 199.3 482.39922 198 498.69922 C 196.8 514.29922 200.10039 530.70039 208.90039 543.90039 C 217.40039 556.60039 229.89922 566.99922 243.19922 574.19922 C 256.19922 581.19922 270.7 585.60039 285.5 585.90039 C 301.2 586.30039 317.89961 581.60078 332.09961 575.30078 C 346.79961 568.70078 357.99961 553.89922 365.59961 540.19922 C 373.59961 525.69922 377.6 509 377 492.5 C 375.94452 464.57786 362.82773 431.86779 334.72461 422.20508 C 342.74371 415.6394 348.66804 407.28674 350.80078 396.80078 C 352.20078 390.15078 351.90406 389.01714 351.98242 387.45312 C 354.52479 387.86633 357.11076 388.0203 359.67969 387.91797 C 366.88072 387.63112 373.94279 385.32535 379.90039 381.09961 C 388.00039 375.29961 395.09922 365.09922 392.69922 354.69922 C 387.92976 334.06399 355.97 341.00001 343.38867 350.05273 L 343.33789 350.08789 C 341.10417 344.54919 332.90078 333.35078 328.80078 329.30078 C 321.70078 322.30078 313.57344 319.27656 305.77344 312.97656 C 314.967 299.76971 317.41033 287.62851 317.69922 270.80078 C 316.79922 252.20078 308.59961 235.7 294.59961 223.5 C 290.99961 209.50001 287.4 196.89922 282.75 183.19922 C 281.9 180.09922 279.19922 174.10078 275.69922 173.30078 C 275.07422 173.15078 274.48672 173.14414 273.92578 173.23633 z "
       inkscape:radius="2.0918212"
       sodipodi:type="inkscape:offset"
       transform="matrix(0.22841104,0,0,0.22841104,-13.378865,-37.295663)" />
  </g>
  <g
     id="g826"
     inkscape:groupmode="layer"
     inkscape:label="B.Cu-disabled"
     sodipodi:insensitive="true" />
  <g
     id="g828"
     inkscape:groupmode="layer"
     inkscape:label="B.Mask-disabled" />
  <g
     id="g830"
     inkscape:groupmode="layer"
     inkscape:label="B.Silk-disabled" />
  <g
     id="g832"
     inkscape:groupmode="layer"
     inkscape:label="F.Cu"
     style="display:inline" />
  <g
     id="g834"
     inkscape:groupmode="layer"
     inkscape:label="F.Mask"
     style="display:inline">
    <path
       style="display:inline;fill:#000000;fill-opacity:1;stroke:#000000;stroke-width:0.1;stroke-linecap:butt;stroke-linejoin:miter;stroke-miterlimit:4;stroke-dasharray:none;stroke-opacity:1"
       d="m 52.263237,40.257025 c -1.002225,0.342474 -2.120661,0.565403 -2.852236,0.563759 -1.133539,-0.0025 -2.233017,-0.317933 -3.361655,-0.345703 -2.221219,-0.05465 -4.982641,-0.974181 -4.81186,-1.201889 0.7197,-1.020174 1.786012,-2.128137 2.676148,-2.913574 0,0 3.278148,1.542377 6.988183,1.200714 3.437267,-0.316543 4.546587,-1.965605 4.920765,-2.503485 l 2.230776,1.613436 c -0.09095,-0.125925 -1.209746,0.996857 -2.795113,2.010942 -0.970177,0.620578 -1.927131,1.210892 -2.995008,1.5758 z"
       id="path4008-7"
       inkscape:connector-curvature="0"
       sodipodi:nodetypes="sssccsccss" />
    <path
       style="display:inline;fill:#000000;fill-opacity:1;stroke:#000000;stroke-width:0.1;stroke-linecap:butt;stroke-linejoin:miter;stroke-miterlimit:4;stroke-dasharray:none;stroke-opacity:1"
       d="m 54.111526,39.995809 c 0,0 -0.536454,11.206004 -0.217506,12.709055 0.0204,0.09613 0.04829,0.111276 0.07577,0.122668 0.100987,0.100898 0.165155,0.07261 0.204819,0.202017 0.120248,0.39232 0.194191,0.277466 0.326893,0.302423 0.127157,0.02392 0.190406,-0.06552 0.323918,-0.102428 0.139608,-0.0386 0.254599,0.0558 0.324094,0.08694 0.06949,0.03114 0.101488,0.06657 0.101488,0.06657 l 0.9698,-0.144567 c 0,0 0.06374,-0.210336 0.163966,-0.294554 0.100229,-0.08422 0.423481,-0.147312 0.423481,-0.147312 0,0 0.07142,-0.774106 0.08002,-1.288035 0.0086,-0.513929 -0.02842,-1.795541 -0.02842,-1.795541 l -0.374033,0.119153 c -0.0059,0.01174 0.03284,0.477623 0.05545,0.969891 0.02544,0.554012 0.117842,1.086938 -0.05226,1.257904 -0.169131,0.169985 -0.269998,0.182629 -0.36016,0.195459 -0.105392,0.015 -0.194014,0.01097 -0.327426,-0.0338 -0.07899,-0.02651 -0.266891,-0.325564 -0.27572,-0.437826 -0.07601,-0.966445 -0.0019,-0.601951 -0.08195,-1.392284 -0.01508,-0.148932 -0.03869,-0.367163 -0.04742,-0.565803 -0.009,-0.203702 -0.03101,-0.382146 0.05246,-0.557373 0.06586,-0.138251 0.205425,-0.124839 0.210541,-0.178561 0,0 0.02232,-1.85951 -0.01546,-2.616682 -0.02934,-0.588112 -0.05212,-2.038359 -0.187074,-3.451968 -0.09852,-1.048668 -0.53773,-2.364099 -0.684031,-3.406159 z"
       id="path4094-1"
       inkscape:connector-curvature="0"
       sodipodi:nodetypes="cscssszcczczccssssssssccccc" />
    <path
       style="display:inline;fill:#000000;fill-opacity:1;stroke:#000000;stroke-width:0.1;stroke-linecap:butt;stroke-linejoin:miter;stroke-miterlimit:4;stroke-dasharray:none;stroke-opacity:1"
       d="m 55.249621,39.313115 c 0,0 0.65481,2.502311 0.795127,3.671613 0.140316,1.169305 0.175397,6.080382 0.175397,6.080382 0,0 0.09827,0.138511 0.196768,0.180312 0.09362,0.03973 0.187836,-0.0159 0.183109,-0.06149 -0.01525,-0.147139 0.185739,-0.526885 0.312085,-0.598219 0.182259,-0.102903 0.30123,-0.104033 0.518981,-0.139867 0.161589,-0.02659 0.369653,0.224929 0.502817,0.193756 0.06092,-0.01426 0.206928,-0.125495 0.213839,-0.267314 0.0057,-0.117797 -0.129969,-0.197111 -0.10781,-0.231946 0.0949,-0.149184 0.323086,-0.379252 0.311376,-0.62526 -0.01584,-0.332767 -0.02628,-0.953314 -0.03867,-1.233401 -0.03677,-0.831262 -0.05076,-1.406311 -0.125793,-2.009543 -0.05423,-0.435971 -0.168277,-0.864321 -0.212719,-1.521267 -0.105934,-1.565932 -0.526186,-4.981238 -0.526186,-4.981238 z"
       id="path4096-5"
       inkscape:connector-curvature="0"
       sodipodi:nodetypes="cccssssssssssscc" />
  </g>
  <g
     id="g836"
     inkscape:groupmode="layer"
     inkscape:label="F.Silk"
     style="display:inline;opacity:0.58205689"
     sodipodi:insensitive="true">
    <g
       id="g6-9-2-5"
       transform="matrix(0.22841104,0,0,0.22841104,-13.378865,-37.295663)"
       style="display:inline;fill:none;stroke:#000014;stroke-width:0.4378072;stroke-miterlimit:4;stroke-dasharray:none;stroke-opacity:1">
      <g
         id="g4-1-2-0"
         style="fill:none;stroke:#000014;stroke-width:0.4378072;stroke-miterlimit:4;stroke-dasharray:none;stroke-opacity:1" />
    </g>
    <g
       id="g12-7-5-6"
       transform="matrix(0.22841104,0,0,0.22841104,-13.378865,-37.295663)"
       style="display:inline;fill:none;stroke:#000014;stroke-width:0.4378072;stroke-miterlimit:4;stroke-dasharray:none;stroke-opacity:1">
      <g
         id="g10-0-5-0"
         style="fill:none;stroke:#000014;stroke-width:0.4378072;stroke-miterlimit:4;stroke-dasharray:none;stroke-opacity:1" />
    </g>
    <g
       id="g18-3-9-8"
       transform="matrix(0.22841104,0,0,0.22841104,-13.378865,-37.295663)"
       style="display:inline;fill:none;stroke:#000014;stroke-width:0.4378072;stroke-miterlimit:4;stroke-dasharray:none;stroke-opacity:1">
      <g
         id="g16-6-0-3"
         style="fill:none;stroke:#000014;stroke-width:0.4378072;stroke-miterlimit:4;stroke-dasharray:none;stroke-opacity:1" />
    </g>
    <g
       id="g24-6-8-7"
       transform="matrix(0.22841104,0,0,0.22841104,-13.378865,-37.295663)"
       style="display:inline;fill:none;stroke:#000014;stroke-width:0.4378072;stroke-miterlimit:4;stroke-dasharray:none;stroke-opacity:1">
      <g
         id="g22-2-3-8"
         style="fill:none;stroke:#000014;stroke-width:0.4378072;stroke-miterlimit:4;stroke-dasharray:none;stroke-opacity:1" />
    </g>
    <g
       id="g30-1-0-2"
       transform="matrix(0.22841104,0,0,0.22841104,-13.378865,-37.295663)"
       style="display:inline;fill:none;stroke:#000014;stroke-width:0.4378072;stroke-miterlimit:4;stroke-dasharray:none;stroke-opacity:1">
      <g
         id="g28-8-4-1"
         style="fill:none;stroke:#000014;stroke-width:0.4378072;stroke-miterlimit:4;stroke-dasharray:none;stroke-opacity:1" />
    </g>
    <g
       id="g84-4-9-0"
       transform="matrix(0.22841104,0,0,0.22841104,-13.378865,-37.295663)"
       style="display:inline;fill:none;stroke:#000014;stroke-width:0.4378072;stroke-miterlimit:4;stroke-dasharray:none;stroke-opacity:1">
      <g
         id="g82-5-1-5"
         style="fill:none;stroke:#000014;stroke-width:0.4378072;stroke-miterlimit:4;stroke-dasharray:none;stroke-opacity:1" />
    </g>
    <g
       id="g108-1-6-8"
       transform="matrix(0.22841104,0,0,0.22841104,-13.378865,-37.295663)"
       style="display:inline;fill:none;stroke:#000014;stroke-width:0.4378072;stroke-miterlimit:4;stroke-dasharray:none;stroke-opacity:1">
      <g
         id="g106-5-2-5"
         style="fill:none;stroke:#000014;stroke-width:0.4378072;stroke-miterlimit:4;stroke-dasharray:none;stroke-opacity:1">
        <path
           sodipodi:type="inkscape:offset"
           inkscape:radius="-2.5640943"
           inkscape:original="M 273.92578 173.23633 C 272.24297 173.51289 270.80078 174.675 269.30078 175.5 C 266.10078 177.2 262.59961 178.29961 259.09961 179.09961 C 244.79961 182.19961 229.9 183.4 215.5 185.5 C 212.3 185.9 212.90066 189.60074 213.71094 194.79688 C 214.35933 199.28734 215.40273 203.44453 216.31836 207.85547 C 208.81836 210.55547 204.00078 217.20039 204.30078 225.40039 C 204.40078 229.10039 206.4 231.20039 210 231.90039 C 215.1 232.80039 218.79219 232.99336 223.99219 232.69336 C 225.53282 236.9168 225.64297 236.82421 227.54297 240.94922 C 222.94297 248.14922 221.29961 256.19961 220.59961 264.59961 C 219.89961 273.19961 219.79961 282.29922 221.59961 290.69922 C 223.34961 298.74922 230.55275 313.64597 245.88477 320.41406 C 236.72095 327.80568 223.98937 347.43372 221.13477 360.25586 C 211.67661 356.12255 201.69922 356.10078 191.69922 357.80078 C 181.89922 359.40078 171.09922 365.49961 170.19922 376.59961 C 169.39922 386.59961 178.00078 393.49961 186.80078 395.59961 C 198.30078 398.39961 209.21203 396.53193 219.40234 391.4707 C 222.80103 405.70404 229.58219 416.71382 240.0918 425.08789 C 227.82732 429.88634 219.77481 441.67639 213.30078 452.80078 C 205.20078 466.80078 199.3 482.39922 198 498.69922 C 196.8 514.29922 200.10039 530.70039 208.90039 543.90039 C 217.40039 556.60039 229.89922 566.99922 243.19922 574.19922 C 256.19922 581.19922 270.7 585.60039 285.5 585.90039 C 301.2 586.30039 317.89961 581.60078 332.09961 575.30078 C 346.79961 568.70078 357.99961 553.89922 365.59961 540.19922 C 373.59961 525.69922 377.6 509 377 492.5 C 375.94452 464.57786 362.82773 431.86779 334.72461 422.20508 C 342.74371 415.6394 348.66804 407.28674 350.80078 396.80078 C 352.20078 390.15078 351.90406 389.01714 351.98242 387.45312 C 354.52479 387.86633 357.11076 388.0203 359.67969 387.91797 C 366.88072 387.63112 373.94279 385.32535 379.90039 381.09961 C 388.00039 375.29961 395.09922 365.09922 392.69922 354.69922 C 387.92976 334.06399 355.97 341.00001 343.38867 350.05273 L 343.33789 350.08789 C 341.10417 344.54919 332.90078 333.35078 328.80078 329.30078 C 321.70078 322.30078 313.57344 319.27656 305.77344 312.97656 C 314.967 299.76971 317.41033 287.62851 317.69922 270.80078 C 316.79922 252.20078 308.59961 235.7 294.59961 223.5 C 290.99961 209.50001 287.4 196.89922 282.75 183.19922 C 281.9 180.09922 279.19922 174.10078 275.69922 173.30078 C 275.07422 173.15078 274.48672 173.14414 273.92578 173.23633 z "
           style="fill:none;stroke:#000014;stroke-width:4.37807226;stroke-miterlimit:4;stroke-dasharray:none;stroke-opacity:1"
           id="path104-5-5-5"
           d="m 274.3418,175.76562 c -0.77993,0.12818 -2.02188,0.99993 -3.80469,1.98047 a 2.5643507,2.5643507 0 0 1 -0.0332,0.0176 c -3.47976,1.84862 -7.19659,3.00498 -10.83203,3.83594 a 2.5643507,2.5643507 0 0 1 -0.0293,0.006 c -14.52647,3.14909 -29.48529,4.34795 -43.77344,6.43164 a 2.5643507,2.5643507 0 0 1 -0.0508,0.008 c -0.30734,0.0384 -0.0992,-0.002 -0.0469,-0.0684 0.0523,-0.0665 -0.0693,0.084 -0.11718,0.60742 -0.0957,1.04688 0.18412,3.21655 0.58984,5.81836 a 2.5643507,2.5643507 0 0 1 0.004,0.0273 c 0.62477,4.32691 1.65082,8.42771 2.58007,12.90429 a 2.5643507,2.5643507 0 0 1 -1.64062,2.9336 c -6.56776,2.36439 -10.5857,7.89191 -10.32422,15.03906 a 2.5643507,2.5643507 0 0 1 0,0.0254 c 0.0379,1.40178 0.3777,2.16597 0.88477,2.73242 0.50533,0.56451 1.32369,1.03875 2.73047,1.31446 4.93304,0.86844 8.31066,1.04551 13.36523,0.7539 a 2.5643507,2.5643507 0 0 1 2.55664,1.68164 c 1.52301,4.17514 1.54885,3.89005 3.4707,8.0625 a 2.5643507,2.5643507 0 0 1 -0.16797,2.45313 c -4.2823,6.70274 -5.86514,14.27828 -6.54882,22.48242 -0.68923,8.47002 -0.76329,17.33503 0.95117,25.3418 2.5e-4,0.001 0.002,0.003 0.002,0.004 2.7e-4,0.001 -2.6e-4,0.003 0,0.004 1.58186,7.26643 8.48484,21.58152 22.8125,27.90625 a 2.5643507,2.5643507 0 0 1 0.57422,4.3418 c -8.34061,6.72761 -21.23363,26.61693 -23.85742,38.40234 a 2.5643507,2.5643507 0 0 1 -3.5293,1.79297 c -8.85488,-3.86967 -18.25989,-3.92951 -27.97851,-2.27735 a 2.5643507,2.5643507 0 0 1 -0.0156,0.004 c -4.53651,0.74066 -9.32821,2.55531 -12.93555,5.33594 -3.60683,2.78024 -6.03506,6.37347 -6.42187,11.13672 -0.33801,4.2251 1.24074,7.65125 3.98242,10.46875 2.74169,2.81749 6.69147,4.88542 10.6582,5.83203 a 2.5643507,2.5643507 0 0 1 0.0117,0.002 c 10.88315,2.64981 21.09121,0.91506 30.85352,-3.93359 a 2.5643507,2.5643507 0 0 1 3.63476,1.70117 c 3.28912,13.77447 9.7196,24.18055 19.79297,32.20703 a 2.5643507,2.5643507 0 0 1 -0.66406,4.39453 c -11.29196,4.41796 -19.10255,15.60706 -25.50781,26.61328 -7.9553,13.75127 -13.69968,28.99826 -14.96094,44.8125 -1.16061,15.10277 2.05728,30.94725 10.47656,43.57618 8.21359,12.27052 20.40549,22.43936 33.38672,29.46679 12.69263,6.83342 26.80922,11.10028 41.13281,11.39063 a 2.5643507,2.5643507 0 0 1 0.0117,0.002 c 15.13854,0.3857 31.53587,-4.18995 45.48438,-10.37695 13.83717,-6.21261 24.84693,-20.55524 32.30859,-34.00586 7.7698,-14.0851 11.66191,-30.33713 11.08008,-46.35742 v -0.002 c -0.51428,-13.59767 -3.99247,-28.41988 -10.69141,-40.87695 -6.69925,-12.45765 -16.52921,-22.50787 -29.85547,-27.08984 a 2.5643507,2.5643507 0 0 1 -0.79101,-4.40821 c 7.6733,-6.28255 13.18855,-14.09387 15.18945,-23.93164 a 2.5643507,2.5643507 0 0 1 0.002,-0.0156 c 1.37285,-6.52105 1.03321,-7.00027 1.13086,-8.94922 a 2.5643507,2.5643507 0 0 1 2.97265,-2.40234 c 2.37017,0.38522 4.78526,0.52912 7.18359,0.43359 6.72161,-0.26775 13.30121,-2.42047 18.8379,-6.34766 7.51519,-5.38501 13.8513,-14.77189 11.78515,-23.73047 v -0.002 c -1.04399,-4.51476 -3.36986,-7.2246 -6.67773,-9.03125 -3.30835,-1.80691 -7.70866,-2.57187 -12.47852,-2.4375 -9.53971,0.26875 -20.45104,4.22162 -26.1582,8.32813 a 2.5643507,2.5643507 0 0 1 -0.0391,0.0254 l -0.0508,0.0351 a 2.5643507,2.5643507 0 0 1 -3.8379,-1.14843 C 339.09155,346.41642 330.63602,334.71938 327,331.12695 l -0.002,-0.002 c -6.66589,-6.57101 -14.6715,-9.55994 -22.83594,-16.1543 a 2.5643507,2.5643507 0 0 1 -0.49219,-3.45898 c 8.87853,-12.7543 11.16936,-24.12086 11.46094,-40.67383 -0.8884,-17.88622 -8.72624,-33.64994 -22.21484,-45.4043 a 2.5643507,2.5643507 0 0 1 -0.79883,-1.29492 c -3.58975,-13.96012 -7.16928,-26.48699 -11.79492,-40.11523 a 2.5643507,2.5643507 0 0 1 -0.0449,-0.14649 c -0.35339,-1.28883 -1.19109,-3.43177 -2.24414,-5.14843 -1.05304,-1.71667 -2.37367,-2.80601 -2.90625,-2.92774 a 2.5643507,2.5643507 0 0 1 -0.0254,-0.006 c -0.28713,-0.0689 -0.50097,-0.0718 -0.75976,-0.0293 z" />
      </g>
    </g>
    <g
       id="g114-4-4-0"
       transform="matrix(0.22841104,0,0,0.22841104,-13.378865,-37.295663)"
       style="display:inline;fill:none;stroke:#000014;stroke-width:0.4378072;stroke-miterlimit:4;stroke-dasharray:none;stroke-opacity:1">
      <g
         id="g112-7-4-7"
         style="fill:none;stroke:#000014;stroke-width:0.4378072;stroke-miterlimit:4;stroke-dasharray:none;stroke-opacity:1" />
    </g>
    <g
       id="g120-5-9-3"
       transform="matrix(0.22841104,0,0,0.22841104,-13.378865,-37.295663)"
       style="display:inline;fill:none;stroke:#000014;stroke-width:0.4378072;stroke-miterlimit:4;stroke-dasharray:none;stroke-opacity:1">
      <g
         id="g118-6-3-8"
         style="fill:none;stroke:#000014;stroke-width:0.4378072;stroke-miterlimit:4;stroke-dasharray:none;stroke-opacity:1" />
    </g>
    <path
       style="fill:#000013;fill-opacity:1;stroke:#000000;stroke-width:0.26458332px;stroke-linecap:butt;stroke-linejoin:miter;stroke-opacity:1"
       d="m 35.520312,7.5611989 c 0,0 2.298568,8.9296871 3.042708,10.0872391 0.744141,1.157552 13.592969,-2.017448 14.386719,-2.678906 0.79375,-0.661458 0.892969,-0.760677 0.926042,-1.223698 0.03307,-0.463021 -3.075782,-10.153385 -2.910417,-9.8557288 0.165365,0.2976562 -1.190625,-2.3481771 -2.14974,-1.3559896 -0.959114,0.9921875 -12.468489,2.6458333 -13.129947,2.6458333 -0.661459,0 -0.165365,2.38125 -0.165365,2.38125 z"
       id="path2306"
       inkscape:connector-curvature="0" />
    <path
       style="fill:none;stroke:#000000;stroke-width:1;stroke-linecap:butt;stroke-linejoin:miter;stroke-miterlimit:4;stroke-dasharray:none;stroke-opacity:1"
       d="m 42.048178,34.869757 c 0,0 1.683798,1.286235 3.718388,1.753957 2.034588,0.46772 6.594875,0.912056 8.278672,-0.491108 1.683798,-1.403165 2.291837,-2.595854 2.291837,-2.595854"
       id="path3998"
       inkscape:connector-curvature="0" />
    <path
       style="fill:none;stroke:#000000;stroke-width:1;stroke-linecap:butt;stroke-linejoin:miter;stroke-miterlimit:4;stroke-dasharray:none;stroke-opacity:1"
       d="m 37.438542,52.93724 c 0,0 -1.025261,-4.034896 0.09922,-7.441406"
       id="path4002"
       inkscape:connector-curvature="0" />
    <path
       style="fill:none;stroke:#000000;stroke-width:1;stroke-linecap:butt;stroke-linejoin:miter;stroke-miterlimit:4;stroke-dasharray:none;stroke-opacity:1"
       d="m 64.227603,42.38698 c 0,0 2.745052,5.523177 2.282032,9.491927"
       id="path4004"
       inkscape:connector-curvature="0" />
    <path
       style="fill:none;stroke:#000000;stroke-width:1;stroke-linecap:butt;stroke-linejoin:miter;stroke-miterlimit:4;stroke-dasharray:none;stroke-opacity:1"
       d="m 41.407291,58.890365 c 3.64e-4,-5.92e-4 1.19483,1.920944 4.861719,3.042709 3.193535,0.976957 8.948109,0.690466 11.972395,-0.628385 3.10614,-1.354547 5.986198,-3.73724 5.986198,-3.73724"
       id="path4006"
       inkscape:connector-curvature="0"
       sodipodi:nodetypes="cssc" />
    <path
       style="fill:none;stroke:#000000;stroke-width:0.5;stroke-linecap:butt;stroke-linejoin:miter;stroke-miterlimit:4;stroke-dasharray:none;stroke-opacity:1"
       d="m 40.691784,39.289728 c 0,0 3.040192,1.449937 4.911079,1.449937 1.870887,0 2.38538,0.65481 5.378799,0.187087 2.993419,-0.46772 7.810953,-4.5369 7.810953,-4.5369"
       id="path4008"
       inkscape:connector-curvature="0" />
    <path
       style="fill:none;stroke:#000000;stroke-width:0.5;stroke-linecap:butt;stroke-linejoin:miter;stroke-miterlimit:4;stroke-dasharray:none;stroke-opacity:1"
       d="m 53.811378,39.850993 c 0,0 -0.631425,12.72203 -0.09355,13.423612 0.537882,0.701582 2.876489,0.374176 3.250666,-0.163703 0.374179,-0.537879 0.116932,-3.811931 0.116932,-3.811931"
       id="path4094"
       inkscape:connector-curvature="0" />
    <path
       style="fill:none;stroke:#000000;stroke-width:0.5;stroke-linecap:butt;stroke-linejoin:miter;stroke-miterlimit:4;stroke-dasharray:none;stroke-opacity:1"
       d="m 54.93391,39.196184 c 0,0 0.678196,2.525697 0.818513,3.694999 0.140316,1.169305 0.210476,6.75858 0.210476,6.75858 0,0 2.525696,-0.280633 2.666013,-1.707184 0.140316,-1.426552 -0.350793,-5.07478 -0.350793,-5.07478 L 57.693467,37.41884"
       id="path4096"
       inkscape:connector-curvature="0" />
    <path
       style="fill:none;stroke:#000000;stroke-width:1;stroke-linecap:round;stroke-linejoin:miter;stroke-miterlimit:4;stroke-dasharray:none;stroke-opacity:1"
       d="m 53.694448,53.297991 c 0,0 -0.116932,1.192689 0.02339,2.57247"
       id="path4098"
       inkscape:connector-curvature="0" />
    <path
       style="fill:none;stroke:#000000;stroke-width:1;stroke-linecap:round;stroke-linejoin:miter;stroke-miterlimit:4;stroke-dasharray:none;stroke-opacity:1"
       d="m 54.863751,53.765714 c 0,0 0.678198,1.543481 1.169304,1.870885"
       id="path4100"
       inkscape:connector-curvature="0" />
    <path
       style="fill:none;stroke:#000000;stroke-width:1;stroke-linecap:round;stroke-linejoin:miter;stroke-miterlimit:4;stroke-dasharray:none;stroke-opacity:1"
       d="m 56.758024,53.321378 c 0.09354,0 1.403165,0.04677 1.753958,1.028986"
       id="path4102"
       inkscape:connector-curvature="0" />
    <path
       style="fill:none;stroke:#000000;stroke-width:1;stroke-linecap:round;stroke-linejoin:miter;stroke-miterlimit:4;stroke-dasharray:none;stroke-opacity:1"
       d="m 57.412834,48.994951 c 0,0 1.052375,1.122532 1.426551,1.753957 0.374179,0.631423 0.374179,0.608039 0.374179,0.608039"
       id="path4104"
       inkscape:connector-curvature="0" />
    <path
       style="fill:none;stroke:#000000;stroke-width:1;stroke-linecap:round;stroke-linejoin:miter;stroke-miterlimit:4;stroke-dasharray:none;stroke-opacity:1"
       d="m 58.558752,48.082895 1.894274,1.052373"
       id="path4106"
       inkscape:connector-curvature="0" />
    <path
       style="fill:none;stroke:#000000;stroke-width:1;stroke-linecap:round;stroke-linejoin:miter;stroke-miterlimit:4;stroke-dasharray:none;stroke-opacity:1"
       d="m 55.916126,49.509447 0.140316,2.221677"
       id="path4110"
       inkscape:connector-curvature="0" />
  </g>
  <g
     id="g838"
     inkscape:groupmode="layer"
     inkscape:label="Drill" />
</svg>
