<?xml version="1.0" encoding="UTF-8" standalone="no"?>
<!-- Created with Inkscape (http://www.inkscape.org/) -->

<svg
   xmlns:dc="http://purl.org/dc/elements/1.1/"
   xmlns:cc="http://creativecommons.org/ns#"
   xmlns:rdf="http://www.w3.org/1999/02/22-rdf-syntax-ns#"
   xmlns:svg="http://www.w3.org/2000/svg"
   xmlns="http://www.w3.org/2000/svg"
   xmlns:sodipodi="http://sodipodi.sourceforge.net/DTD/sodipodi-0.dtd"
   xmlns:inkscape="http://www.inkscape.org/namespaces/inkscape"
   width="100mm"
   height="100mm"
   viewBox="0 0 100 100"
   version="1.1"
   id="svg1054"
   inkscape:version="0.92.4 (5da689c313, 2019-01-14)"
   sodipodi:docname="snowman100x100.svg">
  <defs
     id="defs1048" />
  <sodipodi:namedview
     id="base"
     pagecolor="#ffffff"
     bordercolor="#666666"
     borderopacity="1.0"
     inkscape:pageopacity="0.0"
     inkscape:pageshadow="2"
     inkscape:zoom="1.4"
     inkscape:cx="108.59299"
     inkscape:cy="201.23449"
     inkscape:document-units="mm"
     inkscape:current-layer="layer1"
     showgrid="false"
     inkscape:window-width="1920"
     inkscape:window-height="1019"
     inkscape:window-x="0"
     inkscape:window-y="27"
     inkscape:window-maximized="1" />
  <metadata
     id="metadata1051">
    <rdf:RDF>
      <cc:Work
         rdf:about="">
        <dc:format>image/svg+xml</dc:format>
        <dc:type
           rdf:resource="http://purl.org/dc/dcmitype/StillImage" />
        <dc:title></dc:title>
      </cc:Work>
    </rdf:RDF>
  </metadata>
  <g
     inkscape:label="Layer 1"
     inkscape:groupmode="layer"
     id="layer1"
     transform="translate(0,-197)">
    <g
       transform="matrix(0.22841104,0,0,0.22841104,-11.735469,159.66979)"
       id="g6">
      <g
         id="g4">
        <path
           inkscape:connector-curvature="0"
           d="m 212.9,189.6 c 2.6,18 7.2,35.3 14.8,51.8 1.3,2.9 5.7,0.4 4.3,-2.5 -7.4,-16.1 -11.8,-33.1 -14.3,-50.6 -0.4,-3.2 -5.2,-1.8 -4.8,1.3 z"
           id="path2" />
      </g>
    </g>
    <g
       transform="matrix(0.22841104,0,0,0.22841104,-11.735469,159.66979)"
       id="g12">
      <g
         id="g10">
        <path
           inkscape:connector-curvature="0"
           d="m 229.9,242.7 c 21.8,-2.2 43.1,-7.2 63.6,-14.8 1.3,-0.5 2.1,-1.7 1.7,-3.1 -3.6,-14 -7.8,-27.9 -12.4,-41.6 -1,-3 -5.9,-1.7 -4.8,1.3 4.6,13.7 8.8,27.6 12.4,41.6 0.6,-1 1.2,-2.1 1.7,-3.1 -20.1,7.5 -41,12.4 -62.3,14.6 -3.1,0.4 -3.1,5.4 0.1,5.1 z"
           id="path8" />
      </g>
    </g>
    <g
       transform="matrix(0.22841104,0,0,0.22841104,-11.735469,159.66979)"
       id="g18">
      <g
         id="g16">
        <path
           inkscape:connector-curvature="0"
           d="m 216.8,190.3 c 11.8,-1.7 23.6,-3.3 35.4,-5.1 4.9,-0.7 9.9,-1.5 14.5,-3.2 1.9,-0.7 4.7,-2.9 6.5,-3.1 2.6,-0.3 4.2,3.5 4.7,5.6 0.8,3.1 5.6,1.8 4.8,-1.3 -0.8,-3.1 -3.5,-9.1 -7,-9.9 -2.5,-0.6 -4.4,1.1 -6.4,2.2 -3.2,1.7 -6.7,2.8 -10.2,3.6 -14.3,3.1 -29.2,4.3 -43.6,6.4 -3.2,0.4 -1.8,5.2 1.3,4.8 z"
           id="path14" />
      </g>
    </g>
    <g
       transform="matrix(0.22841104,0,0,0.22841104,-11.735469,159.66979)"
       id="g24">
      <g
         id="g22">
        <path
           inkscape:connector-curvature="0"
           d="m 217.2,207.3 c -7.5,2.7 -13.2,9.9 -12.9,18.1 0.1,3.7 2.1,5.8 5.7,6.5 5.1,0.9 10.4,1.1 15.6,0.8 3.2,-0.2 3.2,-5.2 0,-5 -2.7,0.2 -5.4,0.2 -8.1,0 -2.7,-0.2 -7.6,0.3 -8.1,-2.8 -0.9,-5.4 4.6,-11 9.2,-12.7 2.9,-1.2 1.6,-6 -1.4,-4.9 z"
           id="path20" />
      </g>
    </g>
    <g
       transform="matrix(0.22841104,0,0,0.22841104,-11.735469,159.66979)"
       id="g30">
      <g
         id="g28">
        <path
           inkscape:connector-curvature="0"
           d="m 227.7,240.7 c -4.6,7.2 -6.4,15.5 -7.1,23.9 -0.7,8.6 -0.8,17.7 1,26.1 3.5,16.1 16.5,27.4 31.5,32.9 15.3,5.6 37,8.7 48.8,-5.5 10.9,-13 16.5,-30.4 15.8,-47.3 -0.9,-18.6 -9.1,-35.1 -23.1,-47.3 -2.4,-2.1 -6,1.4 -3.5,3.5 22.9,19.9 28.2,52.9 13,79.2 -4.3,7.4 -8.9,12.5 -17.1,15.3 -8.5,2.8 -16.5,1.6 -25,-0.6 -14.3,-3.6 -28.8,-12 -34,-26.6 -2.9,-8.2 -2.9,-17.3 -2.5,-25.9 0.4,-8.8 1.8,-17.8 6.7,-25.4 1.6,-2.4 -2.7,-5 -4.5,-2.3 z"
           id="path26" />
      </g>
    </g>
    <g
       transform="matrix(0.22841104,0,0,0.22841104,-11.735469,159.66979)"
       id="g36">
      <g
         id="g34">
        <path
           inkscape:connector-curvature="0"
           d="m 270,247.1 c -0.1,0.8 -0.2,1.5 -0.2,2.3 1.7,0 3.3,0 5,0 0,-0.1 0,-0.2 0,-0.3 0.3,-3.2 -4.7,-3.2 -5,0 -0.2,2.3 0.2,4.9 0.5,7.1 0.3,2.7 1.3,5.6 3.3,7.5 4.7,4.4 10.6,0.7 12.8,-4.3 2.3,-5.2 2.1,-12.8 -2.9,-16.4 -4.1,-3 -10.9,-2.2 -13.1,2.8 -1.3,2.9 3,5.5 4.3,2.5 1.2,-2.8 5,-2.6 6.7,-0.3 2.2,2.8 1.6,7.7 -0.2,10.6 -2.4,3.9 -5.2,1.3 -5.9,-2.1 -0.3,-1.5 -0.1,-3 -0.3,-4.5 -0.1,-1 -0.4,-1.8 -0.3,-2.9 -1.7,0 -3.3,0 -5,0 0,0.1 0,0.2 0,0.3 -0.3,3.2 4.6,3.1 5,0 0.1,-0.8 0.2,-1.5 0.2,-2.3 0.4,-3.2 -4.6,-3.2 -4.9,0 z"
           id="path32" />
      </g>
    </g>
    <g
       transform="matrix(0.22841104,0,0,0.22841104,-11.735469,159.66979)"
       id="g42">
      <g
         id="g40">
        <path
           inkscape:connector-curvature="0"
           d="m 250.5,246.6 c -11.2,2.4 -11.6,27.5 1.1,25.5 7,-1.1 7.8,-9.4 7.5,-15 -0.1,-2.7 -0.5,-5.9 -2.5,-7.9 -1.3,-1.2 -3,-1.8 -4.6,-2.6 -2.9,-1.3 -5.4,3 -2.5,4.3 1.5,0.7 3.4,1.2 4.2,2.8 1.2,2.4 0.9,7.5 0.2,10 -0.3,1.3 -1,2.4 -2.1,3.2 -2.6,0.1 -4,-1 -4.3,-3.1 -0.3,-1.4 -0.2,-2.8 -0.1,-4.2 0.2,-3.4 0.6,-7.3 4.5,-8.1 3.1,-0.8 1.8,-5.6 -1.4,-4.9 z"
           id="path38" />
      </g>
    </g>
    <g
       transform="matrix(0.22841104,0,0,0.22841104,-11.735469,159.66979)"
       id="g48">
      <g
         id="g46">
        <path
           inkscape:connector-curvature="0"
           d="m 240,293.8 c 4.8,0 4.8,-7.5 0,-7.5 -4.8,0 -4.8,7.5 0,7.5 z"
           id="path44" />
      </g>
    </g>
    <g
       transform="matrix(0.22841104,0,0,0.22841104,-11.735469,159.66979)"
       id="g54">
      <g
         id="g52">
        <path
           inkscape:connector-curvature="0"
           d="m 252.8,300 c 0,-0.3 0,-0.7 0,-1 0,-2 -1.7,-3.8 -3.8,-3.8 -2,0.1 -3.8,1.6 -3.8,3.8 0,0.3 0,0.7 0,1 0,2 1.7,3.8 3.8,3.8 2,-0.1 3.8,-1.7 3.8,-3.8 z"
           id="path50" />
      </g>
    </g>
    <g
       transform="matrix(0.22841104,0,0,0.22841104,-11.735469,159.66979)"
       id="g60">
      <g
         id="g58">
        <path
           inkscape:connector-curvature="0"
           d="m 275.4,307.8 c 4.8,0 4.8,-7.5 0,-7.5 -4.8,0 -4.8,7.5 0,7.5 z"
           id="path56" />
      </g>
    </g>
    <g
       transform="matrix(0.22841104,0,0,0.22841104,-11.735469,159.66979)"
       id="g66">
      <g
         id="g64">
        <path
           inkscape:connector-curvature="0"
           d="m 286.3,303.8 c 4.8,0 4.8,-7.5 0,-7.5 -4.8,0 -4.8,7.5 0,7.5 z"
           id="path62" />
      </g>
    </g>
    <g
       transform="matrix(0.22841104,0,0,0.22841104,-11.735469,159.66979)"
       id="g72">
      <g
         id="g70">
        <path
           inkscape:connector-curvature="0"
           d="m 299,287.8 c 4.8,0 4.8,-7.5 0,-7.5 -4.8,0 -4.8,7.5 0,7.5 z"
           id="path68" />
      </g>
    </g>
    <g
       transform="matrix(0.22841104,0,0,0.22841104,-11.735469,159.66979)"
       id="g78">
      <g
         id="g76">
        <path
           inkscape:connector-curvature="0"
           d="m 266.5,275.4 c 12.4,8.9 24.8,17.8 37.1,26.8 0.6,-1.5 1.3,-3 1.9,-4.6 -13.3,-5.2 -26.6,-10.4 -39.9,-15.5 0.6,0.8 1.2,1.6 1.8,2.4 0.3,-4.1 1.9,-7.2 3.6,-10.8 1.4,-2.9 -3,-5.4 -4.3,-2.5 -2.1,4.5 -3.9,8.3 -4.3,13.3 -0.1,1.2 0.9,2 1.8,2.4 13.3,5.2 26.6,10.4 39.9,15.5 2.8,1.1 4,-3 1.9,-4.6 -12.4,-8.9 -24.8,-17.8 -37.1,-26.8 -2.5,-1.8 -5,2.6 -2.4,4.4 z"
           id="path74" />
      </g>
    </g>
    <g
       transform="matrix(0.22841104,0,0,0.22841104,-11.735469,159.66979)"
       id="g84">
      <g
         id="g82">
        <path
           inkscape:connector-curvature="0"
           d="m 247.8,318.7 c -19,16.5 -31.9,42.7 -29.1,68.2 2.4,22.1 18.7,40.6 39.1,48.5 23.9,9.4 53.2,4 73.8,-10.8 9.6,-6.9 16.8,-16 19.2,-27.8 2.8,-13.3 0.8,-26.7 -4.2,-39.2 -4.2,-10.7 -9.6,-20.2 -17.8,-28.3 -7.1,-7 -17,-11.4 -24.8,-17.7 -2.5,-2 -6,1.5 -3.5,3.5 11.8,9.6 25.9,15.6 34.2,29.1 12.3,19.9 19.7,50.5 1.9,69.5 -30.9,33.1 -98.8,27.9 -111.7,-20.1 -7,-25.8 7,-54.7 26.3,-71.4 2.6,-2 -0.9,-5.6 -3.4,-3.5 z"
           id="path80" />
      </g>
    </g>
    <g
       transform="matrix(0.22841104,0,0,0.22841104,-11.735469,159.66979)"
       id="g90">
      <g
         id="g88">
        <path
           inkscape:connector-curvature="0"
           d="m 236.6,338.3 c 5.3,3.3 11.3,4.3 17.4,5.1 7.4,1 15,1.9 22.5,1.8 14.2,-0.2 26.1,-10.1 37.7,-17.2 2.7,-1.7 0.2,-6 -2.5,-4.3 -10.6,6.5 -22.3,16.4 -35.2,16.5 -6.3,0.1 -12.7,-0.5 -19,-1.3 -6.3,-0.8 -12.9,-1.4 -18.4,-4.9 -2.7,-1.7 -5.2,2.6 -2.5,4.3 z"
           id="path86" />
      </g>
    </g>
    <g
       transform="matrix(0.22841104,0,0,0.22841104,-11.735469,159.66979)"
       id="g96">
      <g
         id="g94">
        <path
           inkscape:connector-curvature="0"
           d="m 291.5,339.5 c -1.1,15.1 -1.5,30.2 -1.1,45.3 0.1,4.1 -1.3,12.9 2.7,15.6 1.8,1.2 3.8,0.6 5.9,0.2 3.4,-0.7 6.8,-1.4 10.3,-2.1 1.1,-0.2 1.7,-1.4 1.8,-2.4 0.4,-5.2 0.5,-10.4 0.3,-15.6 -0.1,-3.2 -5.1,-3.2 -5,0 0.2,5.2 0.1,10.4 -0.3,15.6 0.6,-0.8 1.2,-1.6 1.8,-2.4 -2.6,0.5 -5.1,1.1 -7.7,1.6 -1,0.2 -2.5,0.8 -3.5,0.3 -1.5,-0.7 -1,-2.4 -1.1,-4.1 -0.3,-5.8 -0.4,-11.6 -0.4,-17.4 0,-11.6 0.4,-23.2 1.3,-34.7 0.3,-3.1 -4.7,-3.1 -5,0.1 z"
           id="path92" />
      </g>
    </g>
    <g
       transform="matrix(0.22841104,0,0,0.22841104,-11.735469,159.66979)"
       id="g102">
      <g
         id="g100">
        <path
           inkscape:connector-curvature="0"
           d="m 298,338.2 c 2.3,14.5 3.2,29.2 2.7,43.9 -0.1,1.8 2.2,3.2 3.8,2.2 2.3,-1.5 4.6,-3 6.9,-4.5 1.6,-1.1 4.1,-2.1 5.3,-3.8 2.1,-3 0.6,-9 0.4,-12.5 -0.6,-11.7 -1.6,-23.3 -3,-35 -0.4,-3.2 -5.4,-3.2 -5,0 1.1,9.7 2,19.4 2.6,29.1 0.3,4 1.5,9.7 0.7,13.6 0.6,1.5 0.2,2.4 -1.2,2.6 -1,0.7 -2.1,1.3 -3.1,2 -2.1,1.3 -4.1,2.7 -6.2,4 1.3,0.7 2.5,1.4 3.8,2.2 0.5,-15.1 -0.5,-30.2 -2.9,-45.2 -0.5,-3.1 -5.3,-1.8 -4.8,1.4 z"
           id="path98" />
      </g>
    </g>
    <g
       transform="matrix(0.22841104,0,0,0.22841104,-11.735469,159.66979)"
       id="g108">
      <g
         id="g106">
        <path
           inkscape:connector-curvature="0"
           d="m 222.6,361.1 c -9,-5.6 -20.9,-5 -30.9,-3.3 -9.8,1.6 -20.6,7.7 -21.5,18.8 -0.8,10 7.8,16.9 16.6,19 11.5,2.8 23.6,0.7 33.9,-4.8 2.8,-1.5 0.3,-5.8 -2.5,-4.3 -7.8,4.1 -16.4,6 -25.2,5.1 -8.3,-0.8 -20.1,-5.7 -17.6,-16.2 2.2,-9.4 12.7,-12.4 21,-13.2 8,-0.8 16.6,-1.1 23.7,3.2 2.7,1.7 5.2,-2.6 2.5,-4.3 z"
           id="path104" />
      </g>
    </g>
    <g
       transform="matrix(0.22841104,0,0,0.22841104,-11.735469,159.66979)"
       id="g114">
      <g
         id="g112">
        <path
           inkscape:connector-curvature="0"
           d="m 345.8,354.3 c 8.9,-7 38.8,-15.1 42,2.1 1.6,8.8 -5.3,17.2 -12.3,21.6 -7.2,4.5 -15.8,6.1 -24.1,4.3 -3.1,-0.7 -4.5,4.2 -1.3,4.8 10.3,2.2 21.2,0.1 29.8,-6 8.1,-5.8 15.2,-16 12.8,-26.4 -4.9,-21.2 -38.5,-13.3 -50.3,-3.9 -2.7,1.9 0.9,5.4 3.4,3.5 z"
           id="path110" />
      </g>
    </g>
    <g
       transform="matrix(0.22841104,0,0,0.22841104,-11.735469,159.66979)"
       id="g120">
      <g
         id="g118">
        <path
           inkscape:connector-curvature="0"
           d="m 243.8,423.9 c -14.4,3.7 -23.4,16.7 -30.5,28.9 -8.1,14 -14,29.6 -15.3,45.9 -1.2,15.6 2.1,32 10.9,45.2 8.5,12.7 21,23.1 34.3,30.3 13,7 27.5,11.4 42.3,11.7 15.7,0.4 32.4,-4.3 46.6,-10.6 14.7,-6.6 25.9,-21.4 33.5,-35.1 8,-14.5 12,-31.2 11.4,-47.7 -1.1,-29.1 -15.3,-63.4 -45.9,-71.4 -3.1,-0.8 -4.4,4 -1.3,4.8 25,6.5 37,31.7 41.1,55.2 5.3,30.4 -7,62.7 -30.3,82.8 -6.2,5.4 -13.6,8.2 -21.3,10.7 -7,2.2 -14.1,4.5 -21.5,5.5 -13.8,2 -28.1,-0.2 -41,-5.2 -26.9,-10.4 -50.8,-33.1 -53.7,-62.9 -1.6,-17 2.8,-34 10.3,-49.1 6.7,-13.4 16,-30.2 31.6,-34.2 3.2,-0.8 1.9,-5.6 -1.2,-4.8 z"
           id="path116" />
      </g>
    </g>
    <g
       transform="matrix(0.22841104,0,0,0.22841104,-11.735469,159.66979)"
       id="g126">
      <g
         id="g124">
        <path
           inkscape:connector-curvature="0"
           d="m 261,308.8 c 4.8,0 4.8,-7.5 0,-7.5 -4.8,0 -4.8,7.5 0,7.5 z"
           id="path122" />
      </g>
    </g>
    <g
       transform="matrix(0.22841104,0,0,0.22841104,-11.735469,159.66979)"
       id="g132">
      <g
         id="g130">
        <path
           inkscape:connector-curvature="0"
           d="m 251,268 c 6.4,0 6.4,-10 0,-10 -6.4,0 -6.4,10 0,10 z"
           id="path128" />
      </g>
    </g>
    <g
       transform="matrix(0.22841104,0,0,0.22841104,-11.735469,159.66979)"
       id="g138">
      <g
         id="g136">
        <path
           inkscape:connector-curvature="0"
           d="m 278.5,261 c 6.4,0 6.4,-10 0,-10 -6.4,0 -6.4,10 0,10 z"
           id="path134" />
      </g>
    </g>
    <g
       transform="matrix(0.22841104,0,0,0.22841104,-11.735469,159.66979)"
       id="g144">
      <g
         id="g142">
        <path
           inkscape:connector-curvature="0"
           d="m 277.8,352.3 c -0.2,0.2 -0.3,0.3 -0.5,0.5 -1.4,1.4 -1.5,3.9 0,5.3 1.5,1.4 3.8,1.5 5.3,0 0.2,-0.2 0.3,-0.3 0.5,-0.5 1.4,-1.4 1.5,-3.9 0,-5.3 -1.4,-1.3 -3.8,-1.4 -5.3,0 z"
           id="path140" />
      </g>
    </g>
    <g
       transform="matrix(0.22841104,0,0,0.22841104,-11.735469,159.66979)"
       id="g150">
      <g
         id="g148">
        <path
           inkscape:connector-curvature="0"
           d="m 281,377.3 c 4.8,0 4.8,-7.5 0,-7.5 -4.8,0 -4.8,7.5 0,7.5 z"
           id="path146" />
      </g>
    </g>
    <g
       transform="matrix(0.22841104,0,0,0.22841104,-11.735469,159.66979)"
       id="g156">
      <g
         id="g154">
        <path
           inkscape:connector-curvature="0"
           d="m 286.8,394 c 0,-0.2 0,-0.3 0,-0.5 0,-2 -1.7,-3.8 -3.8,-3.8 -2,0.1 -3.8,1.6 -3.8,3.8 0,0.2 0,0.3 0,0.5 0,2 1.7,3.8 3.8,3.8 2,-0.1 3.8,-1.7 3.8,-3.8 z"
           id="path152" />
      </g>
    </g>
    <g
       transform="matrix(0.22841104,0,0,0.22841104,-11.735469,159.66979)"
       id="g162">
      <g
         id="g160">
        <path
           inkscape:connector-curvature="0"
           d="m 283.5,416.3 c 4.8,0 4.8,-7.5 0,-7.5 -4.8,0 -4.8,7.5 0,7.5 z"
           id="path158" />
      </g>
    </g>
    <g
       transform="matrix(0.22841104,0,0,0.22841104,-11.735469,159.66979)"
       id="g168">
      <g
         id="g166">
        <path
           inkscape:connector-curvature="0"
           d="m 286.5,430.8 c 4.8,0 4.8,-7.5 0,-7.5 -4.8,0 -4.8,7.5 0,7.5 z"
           id="path164" />
      </g>
    </g>
    <g
       transform="matrix(0.22841104,0,0,0.22841104,-11.735469,159.66979)"
       id="g174">
      <g
         id="g172">
        <path
           inkscape:connector-curvature="0"
           d="m 283.3,455.5 c 0,0.3 0,0.7 0,1 0,2 1.7,3.8 3.8,3.8 2,-0.1 3.8,-1.6 3.8,-3.8 0,-0.3 0,-0.7 0,-1 0,-2 -1.7,-3.8 -3.8,-3.8 -2.1,0.1 -3.8,1.7 -3.8,3.8 z"
           id="path170" />
      </g>
    </g>
    <g
       transform="matrix(0.22841104,0,0,0.22841104,-11.735469,159.66979)"
       id="g180">
      <g
         id="g178">
        <path
           inkscape:connector-curvature="0"
           d="m 289,479.8 c 4.8,0 4.8,-7.5 0,-7.5 -4.8,0 -4.8,7.5 0,7.5 z"
           id="path176" />
      </g>
    </g>
    <g
       transform="matrix(0.22841104,0,0,0.22841104,-11.735469,159.66979)"
       id="g186">
      <g
         id="g184">
        <path
           inkscape:connector-curvature="0"
           d="m 284.8,498 c 0,0.3 0,0.7 0,1 0,2 1.7,3.8 3.8,3.8 2,-0.1 3.8,-1.6 3.8,-3.8 0,-0.3 0,-0.7 0,-1 0,-2 -1.7,-3.8 -3.8,-3.8 -2.1,0.1 -3.8,1.7 -3.8,3.8 z"
           id="path182" />
      </g>
    </g>
    <g
       transform="matrix(0.22841104,0,0,0.22841104,-11.735469,159.66979)"
       id="g192">
      <g
         id="g190">
        <path
           inkscape:connector-curvature="0"
           d="m 291,522.8 c -0.2,0 -0.3,0 -0.5,0 -2,0 -3.8,1.7 -3.8,3.8 0.1,2 1.6,3.8 3.8,3.8 0.2,0 0.3,0 0.5,0 2,0 3.8,-1.7 3.8,-3.8 -0.1,-2.1 -1.7,-3.8 -3.8,-3.8 z"
           id="path188" />
      </g>
    </g>
    <g
       transform="matrix(0.22841104,0,0,0.22841104,-11.735469,159.66979)"
       id="g198">
      <g
         id="g196">
        <path
           inkscape:connector-curvature="0"
           d="m 289.3,550.3 c -0.2,0.2 -0.3,0.3 -0.5,0.5 -1.4,1.4 -1.5,3.9 0,5.3 1.5,1.4 3.8,1.5 5.3,0 0.2,-0.2 0.3,-0.3 0.5,-0.5 1.4,-1.4 1.5,-3.9 0,-5.3 -1.4,-1.3 -3.8,-1.4 -5.3,0 z"
           id="path194" />
      </g>
    </g>
    <g
       transform="matrix(0.22841104,0,0,0.22841104,-11.735469,159.66979)"
       id="g204">
      <g
         id="g202">
        <path
           inkscape:connector-curvature="0"
           d="m 291.1,397.3 c 0.1,3.6 0.3,7.1 0.4,10.7 0.1,3.2 5.1,3.2 5,0 -0.1,-3.6 -0.3,-7.1 -0.4,-10.7 -0.1,-3.2 -5.1,-3.2 -5,0 z"
           id="path200" />
      </g>
    </g>
    <g
       transform="matrix(0.22841104,0,0,0.22841104,-11.735469,159.66979)"
       id="g210">
      <g
         id="g208">
        <path
           inkscape:connector-curvature="0"
           d="m 297.6,400.6 c 1.3,3.1 3,5.8 5.1,8.4 2,2.5 5.6,-1.1 3.5,-3.5 -1.8,-2.2 -3.2,-4.7 -4.4,-7.4 -0.5,-1.2 -2.4,-1.5 -3.4,-0.9 -1.2,0.7 -1.4,2.1 -0.8,3.4 z"
           id="path206" />
      </g>
    </g>
    <g
       transform="matrix(0.22841104,0,0,0.22841104,-11.735469,159.66979)"
       id="g216">
      <g
         id="g214">
        <path
           inkscape:connector-curvature="0"
           d="m 308.7,400.1 c 0.9,-0.2 2.3,0.5 2.7,1.5 0.5,1.3 1.7,2.1 3.1,1.7 1.2,-0.3 2.2,-1.8 1.7,-3.1 -1.3,-3.7 -5,-5.7 -8.8,-5 -1.3,0.3 -2.1,1.8 -1.7,3.1 0.3,1.5 1.7,2.1 3,1.8 z"
           id="path212" />
      </g>
    </g>
    <g
       transform="matrix(0.22841104,0,0,0.22841104,-11.735469,159.66979)"
       id="g222">
      <g
         id="g220">
        <path
           inkscape:connector-curvature="0"
           d="m 301.2,382.7 c 0.4,2.8 0.6,5.5 0.7,8.3 0.1,3.2 5.1,3.2 5,0 -0.1,-3.2 -0.4,-6.4 -0.9,-9.7 -0.2,-1.3 -1.9,-2.1 -3.1,-1.7 -1.4,0.4 -1.9,1.7 -1.7,3.1 z"
           id="path218" />
      </g>
    </g>
    <g
       transform="matrix(0.22841104,0,0,0.22841104,-11.735469,159.66979)"
       id="g228">
      <g
         id="g226">
        <path
           inkscape:connector-curvature="0"
           d="m 309,380.8 c 0.6,0 1.8,2 2.2,2.5 0.9,1.3 1.9,2.6 2.8,3.8 1.8,2.6 6.2,0.1 4.3,-2.5 -1.3,-1.9 -2.7,-3.8 -4.1,-5.6 -1.3,-1.7 -2.8,-3.3 -5.2,-3.2 -3.2,0.2 -3.2,5.2 0,5 z"
           id="path224" />
      </g>
    </g>
    <g
       transform="matrix(0.22841104,0,0,0.22841104,-11.735469,159.66979)"
       id="g234">
      <g
         id="g232">
        <path
           inkscape:connector-curvature="0"
           d="m 314.7,376.2 c 2.2,1.3 4.5,2.7 6.7,4 2.8,1.7 5.3,-2.7 2.5,-4.3 -2.2,-1.3 -4.5,-2.7 -6.7,-4 -2.7,-1.7 -5.2,2.6 -2.5,4.3 z"
           id="path230" />
      </g>
    </g>
  </g>
</svg>
