<?xml version="1.0" encoding="utf-8"?>
<!-- Generator: Adobe Illustrator 22.1.0, SVG Export Plug-In . SVG Version: 6.00 Build 0)  -->
<svg version="1.1" id="Ebene_1" xmlns="http://www.w3.org/2000/svg" xmlns:xlink="http://www.w3.org/1999/xlink" x="0px" y="0px"
	 viewBox="0 0 595.3 841.9" style="enable-background:new 0 0 595.3 841.9;" xml:space="preserve">
<style type="text/css">
	.st0{fill:none;stroke:#000000;stroke-width:2;stroke-miterlimit:10;}
</style>
<path class="st0" d="M230.6,331.6c0.2-5.8-0.1-14,1.2-16.8c-6-2.5-13-3.7-21.5-3.7c-19,0-34.3,7.6-34.3,17s15.4,17,34.3,17
	c7.7,0,15.7-1.3,21.5-3.4C231,338.4,230.5,333.9,230.6,331.6z"/>
<path class="st0" d="M406.9,306.8c-2.6-9-19.5-12-37.7-6.8c-4.7,1.4-8.3,2.8-12.1,4.8c4.5,9,4.3,23.2,3.9,30.4
	c5.6,0.1,11.1-0.7,17.6-2.6C396.9,327.4,409.6,315.9,406.9,306.8z"/>
<path class="st0" d="M387.8,449.3c-1.8-32.5-20.2-59.5-47.3-73.2c-3.9,5.8-16,10.8-19.7,12.2c-13.3,5.3-32,7.7-46.6,1.6
	c-5.9-2.4-11.8-5.7-17.3-8.8c-1-0.6-2-1.2-2.9-2c-26.7,16.4-43.8,46.5-41.9,79.9c2.7,48.5,44.2,85.7,92.7,83
	C353.4,539.4,390.5,497.9,387.8,449.3z"/>
<path class="st0" d="M312.4,264.4c-0.6,0.5-2.9,2.9-3.5,3.4c-3,2.5-6.6,5.3-10.3,6.7c-0.8,0.4-1.6,0.8-1.6,0.8l-2.6,1.1
	c-2.8,1.3-5.8,2.1-9.1,2.2c-0.3,0.3-7.4,0-11.4-0.1l-3.1-0.6l-1.5-0.4c0,0-7-2-7.7-2.6c-0.6-0.3-2-0.5-2.5-0.9
	c-17.7,11.7-28.5,31.2-28.5,54c0,36.2,29.3,65.5,65.5,65.5s65.5-29.3,65.5-65.5C361.5,297.8,340.2,271.9,312.4,264.4z"/>
<path class="st0" d="M302.6,179c0,0-0.1-0.4-0.1-0.4c0,0-12.1,3.6-17.1,5c-3.7,1-9.9,3.4-15.1,4.8c-8.4,2.2-24.2,7.2-25.6,7.4
	c-0.8,0.1-3.1,0.7-3.7,0.4c-6.2,8.9-8.6,18.1-8.6,30.2c0,29,21.2,52.2,47.3,52.5c25.3,0.3,47.3-23.5,47.3-52.5
	C326.9,205.8,318.4,187.5,302.6,179z"/>
<rect x="232.4" y="135" transform="matrix(0.9604 -0.2787 0.2787 0.9604 -34.6702 80.0876)" class="st0" width="64" height="54"/>
<path class="st0" d="M237.4,183.1c-27.1,5.1-31.5-10.3-5.6-20.3"/>
<path class="st0" d="M247.8,283.5c10.2,9,41.6,21.9,83.1-10.8"/>
<line class="st0" x1="311.9" y1="285.1" x2="314.7" y2="337.1"/>
<line class="st0" x1="324.7" y1="277.8" x2="327.4" y2="329.7"/>
<line class="st0" x1="314.7" y1="337.1" x2="327.4" y2="329.7"/>
<line class="st0" x1="305" y1="288.1" x2="308.5" y2="353.5"/>
<line class="st0" x1="308.3" y1="353.1" x2="321.1" y2="345.8"/>
<line class="st0" x1="321.1" y1="345.8" x2="321" y2="333.4"/>
<line class="st0" x1="279.6" y1="223.3" x2="321" y2="251.6"/>
<line class="st0" x1="275.3" y1="234.7" x2="321" y2="251.6"/>
<line class="st0" x1="279.8" y1="223" x2="275.2" y2="235.1"/>
<g>
	<g>
		<path d="M253.7,248.8c4.8,0,4.8-7.5,0-7.5C248.8,241.3,248.8,248.8,253.7,248.8L253.7,248.8z"/>
	</g>
</g>
<g>
	<g>
		<path d="M262,256.1c4.8,0,4.8-7.5,0-7.5C257.2,248.6,257.2,256.1,262,256.1L262,256.1z"/>
	</g>
</g>
<g>
	<g>
		<path d="M275.7,258.8c4.8,0,4.8-7.5,0-7.5C270.8,251.3,270.8,258.8,275.7,258.8L275.7,258.8z"/>
	</g>
</g>
<g>
	<g>
		<path d="M288,256.4c4.8,0,4.8-7.5,0-7.5C283.2,248.9,283.2,256.4,288,256.4L288,256.4z"/>
	</g>
</g>
<g>
	<g>
		<path d="M297.7,251.4c4.8,0,4.8-7.5,0-7.5C292.8,243.9,292.8,251.4,297.7,251.4L297.7,251.4z"/>
	</g>
</g>
<g>
	<g>
		<path d="M307.3,238.8c4.8,0,4.8-7.5,0-7.5C302.5,231.3,302.5,238.8,307.3,238.8L307.3,238.8z"/>
	</g>
</g>
<g>
	<g>
		<path d="M262,219.7c6.4,0,6.4-10,0-10C255.6,209.7,255.6,219.7,262,219.7L262,219.7z"/>
	</g>
</g>
<g>
	<g>
		<path d="M289.7,215.7c6.4,0,6.4-10,0-10C283.2,205.7,283.2,215.7,289.7,215.7L289.7,215.7z"/>
	</g>
</g>
<g>
	<g>
		<path d="M292.5,312.3c4.8,0,4.8-7.5,0-7.5C287.7,304.8,287.7,312.3,292.5,312.3L292.5,312.3z"/>
	</g>
</g>
<g>
	<g>
		<path d="M292.5,326.8c4.8,0,4.8-7.5,0-7.5C287.7,319.3,287.7,326.8,292.5,326.8L292.5,326.8z"/>
	</g>
</g>
<g>
	<g>
		<path d="M292.5,345.8c4.8,0,4.8-7.5,0-7.5C287.7,338.3,287.7,345.8,292.5,345.8L292.5,345.8z"/>
	</g>
</g>
<g>
	<g>
		<path d="M294,367.3c4.8,0,4.8-7.5,0-7.5C289.2,359.8,289.2,367.3,294,367.3L294,367.3z"/>
	</g>
</g>
<g>
	<g>
		<path d="M294.5,386.8c4.8,0,4.8-7.5,0-7.5C289.7,379.3,289.7,386.8,294.5,386.8L294.5,386.8z"/>
	</g>
</g>
<g>
	<g>
		<path d="M297,410.8c4.8,0,4.8-7.5,0-7.5C292.2,403.3,292.2,410.8,297,410.8L297,410.8z"/>
	</g>
</g>
<g>
	<g>
		<path d="M297,431.8c4.8,0,4.8-7.5,0-7.5C292.2,424.3,292.2,431.8,297,431.8L297,431.8z"/>
	</g>
</g>
<g>
	<g>
		<path d="M299,457.3c4.8,0,4.8-7.5,0-7.5C294.2,449.8,294.2,457.3,299,457.3L299,457.3z"/>
	</g>
</g>
<g>
	<g>
		<path d="M298,478.3c4.8,0,4.8-7.5,0-7.5C293.2,470.8,293.2,478.3,298,478.3L298,478.3z"/>
	</g>
</g>
<g>
	<g>
		<path d="M295.5,508.3c4.8,0,4.8-7.5,0-7.5C290.7,500.8,290.7,508.3,295.5,508.3L295.5,508.3z"/>
	</g>
</g>
<g>
	<g>
		<path d="M292.8,525c0,0.2,0,0.3,0,0.5c0,2,1.7,3.8,3.8,3.8c2-0.1,3.8-1.6,3.8-3.8c0-0.2,0-0.3,0-0.5c0-2-1.7-3.8-3.8-3.8
			C294.5,521.3,292.8,522.9,292.8,525L292.8,525z"/>
	</g>
</g>
<ellipse class="st0" cx="290.4" cy="208.5" rx="5.5" ry="8.7"/>
<ellipse class="st0" cx="263.1" cy="212.9" rx="5.9" ry="9.2"/>
<line class="st0" x1="308.5" y1="353.5" x2="308.2" y2="357.8"/>
<line class="st0" x1="311.4" y1="351.3" x2="310.7" y2="355.7"/>
<line class="st0" x1="314.1" y1="349.8" x2="314" y2="354.8"/>
<line class="st0" x1="316.5" y1="348.4" x2="317.8" y2="353.5"/>
<line class="st0" x1="319" y1="348" x2="319.8" y2="353.5"/>
<line class="st0" x1="321.1" y1="345.8" x2="321.1" y2="352.3"/>
<line class="st0" x1="314.7" y1="337.1" x2="314.7" y2="342"/>
<line class="st0" x1="317.1" y1="335.6" x2="320.2" y2="340.5"/>
<line class="st0" x1="321" y1="333.4" x2="323.3" y2="339.5"/>
<line class="st0" x1="324.6" y1="331.3" x2="326.9" y2="336.5"/>
<line class="st0" x1="327.4" y1="329.7" x2="330" y2="333.4"/>
</svg>
