<?xml version="1.0" encoding="utf-8"?>
<!-- Generator: Adobe Illustrator 22.1.0, SVG Export Plug-In . SVG Version: 6.00 Build 0)  -->
<svg version="1.1" id="Ebene_2" xmlns="http://www.w3.org/2000/svg" xmlns:xlink="http://www.w3.org/1999/xlink" x="0px" y="0px"
	 viewBox="0 0 595.3 841.9" style="enable-background:new 0 0 595.3 841.9;" xml:space="preserve">
<g>
	<g>
		<path d="M212.9,189.6c2.6,18,7.2,35.3,14.8,51.8c1.3,2.9,5.7,0.4,4.3-2.5c-7.4-16.1-11.8-33.1-14.3-50.6
			C217.3,185.1,212.5,186.5,212.9,189.6L212.9,189.6z"/>
	</g>
</g>
<g>
	<g>
		<path d="M229.9,242.7c21.8-2.2,43.1-7.2,63.6-14.8c1.3-0.5,2.1-1.7,1.7-3.1c-3.6-14-7.8-27.9-12.4-41.6c-1-3-5.9-1.7-4.8,1.3
			c4.6,13.7,8.8,27.6,12.4,41.6c0.6-1,1.2-2.1,1.7-3.1c-20.1,7.5-41,12.4-62.3,14.6C226.7,238,226.7,243,229.9,242.7L229.9,242.7z"
			/>
	</g>
</g>
<g>
	<g>
		<path d="M216.8,190.3c11.8-1.7,23.6-3.3,35.4-5.1c4.9-0.7,9.9-1.5,14.5-3.2c1.9-0.7,4.7-2.9,6.5-3.1c2.6-0.3,4.2,3.5,4.7,5.6
			c0.8,3.1,5.6,1.8,4.8-1.3c-0.8-3.1-3.5-9.1-7-9.9c-2.5-0.6-4.4,1.1-6.4,2.2c-3.2,1.7-6.7,2.8-10.2,3.6
			c-14.3,3.1-29.2,4.3-43.6,6.4C212.3,185.9,213.7,190.7,216.8,190.3L216.8,190.3z"/>
	</g>
</g>
<g>
	<g>
		<path d="M217.2,207.3c-7.5,2.7-13.2,9.9-12.9,18.1c0.1,3.7,2.1,5.8,5.7,6.5c5.1,0.9,10.4,1.1,15.6,0.8c3.2-0.2,3.2-5.2,0-5
			c-2.7,0.2-5.4,0.2-8.1,0c-2.7-0.2-7.6,0.3-8.1-2.8c-0.9-5.4,4.6-11,9.2-12.7C221.5,211,220.2,206.2,217.2,207.3L217.2,207.3z"/>
	</g>
</g>
<g>
	<g>
		<path d="M227.7,240.7c-4.6,7.2-6.4,15.5-7.1,23.9c-0.7,8.6-0.8,17.7,1,26.1c3.5,16.1,16.5,27.4,31.5,32.9
			c15.3,5.6,37,8.7,48.8-5.5c10.9-13,16.5-30.4,15.8-47.3c-0.9-18.6-9.1-35.1-23.1-47.3c-2.4-2.1-6,1.4-3.5,3.5
			c22.9,19.9,28.2,52.9,13,79.2c-4.3,7.4-8.9,12.5-17.1,15.3c-8.5,2.8-16.5,1.6-25-0.6c-14.3-3.6-28.8-12-34-26.6
			c-2.9-8.2-2.9-17.3-2.5-25.9c0.4-8.8,1.8-17.8,6.7-25.4C233.8,240.6,229.5,238,227.7,240.7L227.7,240.7z"/>
	</g>
</g>
<g>
	<g>
		<path d="M270,247.1c-0.1,0.8-0.2,1.5-0.2,2.3c1.7,0,3.3,0,5,0c0-0.1,0-0.2,0-0.3c0.3-3.2-4.7-3.2-5,0c-0.2,2.3,0.2,4.9,0.5,7.1
			c0.3,2.7,1.3,5.6,3.3,7.5c4.7,4.4,10.6,0.7,12.8-4.3c2.3-5.2,2.1-12.8-2.9-16.4c-4.1-3-10.9-2.2-13.1,2.8c-1.3,2.9,3,5.5,4.3,2.5
			c1.2-2.8,5-2.6,6.7-0.3c2.2,2.8,1.6,7.7-0.2,10.6c-2.4,3.9-5.2,1.3-5.9-2.1c-0.3-1.5-0.1-3-0.3-4.5c-0.1-1-0.4-1.8-0.3-2.9
			c-1.7,0-3.3,0-5,0c0,0.1,0,0.2,0,0.3c-0.3,3.2,4.6,3.1,5,0c0.1-0.8,0.2-1.5,0.2-2.3C275.3,243.9,270.3,243.9,270,247.1L270,247.1z
			"/>
	</g>
</g>
<g>
	<g>
		<path d="M250.5,246.6c-11.2,2.4-11.6,27.5,1.1,25.5c7-1.1,7.8-9.4,7.5-15c-0.1-2.7-0.5-5.9-2.5-7.9c-1.3-1.2-3-1.8-4.6-2.6
			c-2.9-1.3-5.4,3-2.5,4.3c1.5,0.7,3.4,1.2,4.2,2.8c1.2,2.4,0.9,7.5,0.2,10c-0.3,1.3-1,2.4-2.1,3.2c-2.6,0.1-4-1-4.3-3.1
			c-0.3-1.4-0.2-2.8-0.1-4.2c0.2-3.4,0.6-7.3,4.5-8.1C255,250.7,253.7,245.9,250.5,246.6L250.5,246.6z"/>
	</g>
</g>
<g>
	<g>
		<path d="M240,293.8c4.8,0,4.8-7.5,0-7.5C235.2,286.3,235.2,293.8,240,293.8L240,293.8z"/>
	</g>
</g>
<g>
	<g>
		<path d="M252.8,300c0-0.3,0-0.7,0-1c0-2-1.7-3.8-3.8-3.8c-2,0.1-3.8,1.6-3.8,3.8c0,0.3,0,0.7,0,1c0,2,1.7,3.8,3.8,3.8
			C251,303.7,252.8,302.1,252.8,300L252.8,300z"/>
	</g>
</g>
<g>
	<g>
		<path d="M275.4,307.8c4.8,0,4.8-7.5,0-7.5C270.6,300.3,270.6,307.8,275.4,307.8L275.4,307.8z"/>
	</g>
</g>
<g>
	<g>
		<path d="M286.3,303.8c4.8,0,4.8-7.5,0-7.5C281.5,296.3,281.5,303.8,286.3,303.8L286.3,303.8z"/>
	</g>
</g>
<g>
	<g>
		<path d="M299,287.8c4.8,0,4.8-7.5,0-7.5C294.2,280.3,294.2,287.8,299,287.8L299,287.8z"/>
	</g>
</g>
<g>
	<g>
		<path d="M266.5,275.4c12.4,8.9,24.8,17.8,37.1,26.8c0.6-1.5,1.3-3,1.9-4.6c-13.3-5.2-26.6-10.4-39.9-15.5c0.6,0.8,1.2,1.6,1.8,2.4
			c0.3-4.1,1.9-7.2,3.6-10.8c1.4-2.9-3-5.4-4.3-2.5c-2.1,4.5-3.9,8.3-4.3,13.3c-0.1,1.2,0.9,2,1.8,2.4c13.3,5.2,26.6,10.4,39.9,15.5
			c2.8,1.1,4-3,1.9-4.6c-12.4-8.9-24.8-17.8-37.1-26.8C266.4,269.2,263.9,273.6,266.5,275.4L266.5,275.4z"/>
	</g>
</g>
<g>
	<g>
		<path d="M247.8,318.7c-19,16.5-31.9,42.7-29.1,68.2c2.4,22.1,18.7,40.6,39.1,48.5c23.9,9.4,53.2,4,73.8-10.8
			c9.6-6.9,16.8-16,19.2-27.8c2.8-13.3,0.8-26.7-4.2-39.2c-4.2-10.7-9.6-20.2-17.8-28.3c-7.1-7-17-11.4-24.8-17.7
			c-2.5-2-6,1.5-3.5,3.5c11.8,9.6,25.9,15.6,34.2,29.1c12.3,19.9,19.7,50.5,1.9,69.5c-30.9,33.1-98.8,27.9-111.7-20.1
			c-7-25.8,7-54.7,26.3-71.4C253.8,320.2,250.3,316.6,247.8,318.7L247.8,318.7z"/>
	</g>
</g>
<g>
	<g>
		<path d="M236.6,338.3c5.3,3.3,11.3,4.3,17.4,5.1c7.4,1,15,1.9,22.5,1.8c14.2-0.2,26.1-10.1,37.7-17.2c2.7-1.7,0.2-6-2.5-4.3
			c-10.6,6.5-22.3,16.4-35.2,16.5c-6.3,0.1-12.7-0.5-19-1.3c-6.3-0.8-12.9-1.4-18.4-4.9C236.4,332.3,233.9,336.6,236.6,338.3
			L236.6,338.3z"/>
	</g>
</g>
<g>
	<g>
		<path d="M291.5,339.5c-1.1,15.1-1.5,30.2-1.1,45.3c0.1,4.1-1.3,12.9,2.7,15.6c1.8,1.2,3.8,0.6,5.9,0.2c3.4-0.7,6.8-1.4,10.3-2.1
			c1.1-0.2,1.7-1.4,1.8-2.4c0.4-5.2,0.5-10.4,0.3-15.6c-0.1-3.2-5.1-3.2-5,0c0.2,5.2,0.1,10.4-0.3,15.6c0.6-0.8,1.2-1.6,1.8-2.4
			c-2.6,0.5-5.1,1.1-7.7,1.6c-1,0.2-2.5,0.8-3.5,0.3c-1.5-0.7-1-2.4-1.1-4.1c-0.3-5.8-0.4-11.6-0.4-17.4c0-11.6,0.4-23.2,1.3-34.7
			C296.8,336.3,291.8,336.3,291.5,339.5L291.5,339.5z"/>
	</g>
</g>
<g>
	<g>
		<path d="M298,338.2c2.3,14.5,3.2,29.2,2.7,43.9c-0.1,1.8,2.2,3.2,3.8,2.2c2.3-1.5,4.6-3,6.9-4.5c1.6-1.1,4.1-2.1,5.3-3.8
			c2.1-3,0.6-9,0.4-12.5c-0.6-11.7-1.6-23.3-3-35c-0.4-3.2-5.4-3.2-5,0c1.1,9.7,2,19.4,2.6,29.1c0.3,4,1.5,9.7,0.7,13.6
			c0.6,1.5,0.2,2.4-1.2,2.6c-1,0.7-2.1,1.3-3.1,2c-2.1,1.3-4.1,2.7-6.2,4c1.3,0.7,2.5,1.4,3.8,2.2c0.5-15.1-0.5-30.2-2.9-45.2
			C302.3,333.7,297.5,335,298,338.2L298,338.2z"/>
	</g>
</g>
<g>
	<g>
		<path d="M222.6,361.1c-9-5.6-20.9-5-30.9-3.3c-9.8,1.6-20.6,7.7-21.5,18.8c-0.8,10,7.8,16.9,16.6,19c11.5,2.8,23.6,0.7,33.9-4.8
			c2.8-1.5,0.3-5.8-2.5-4.3c-7.8,4.1-16.4,6-25.2,5.1c-8.3-0.8-20.1-5.7-17.6-16.2c2.2-9.4,12.7-12.4,21-13.2
			c8-0.8,16.6-1.1,23.7,3.2C222.8,367.1,225.3,362.8,222.6,361.1L222.6,361.1z"/>
	</g>
</g>
<g>
	<g>
		<path d="M345.8,354.3c8.9-7,38.8-15.1,42,2.1c1.6,8.8-5.3,17.2-12.3,21.6c-7.2,4.5-15.8,6.1-24.1,4.3c-3.1-0.7-4.5,4.2-1.3,4.8
			c10.3,2.2,21.2,0.1,29.8-6c8.1-5.8,15.2-16,12.8-26.4c-4.9-21.2-38.5-13.3-50.3-3.9C339.7,352.7,343.3,356.2,345.8,354.3
			L345.8,354.3z"/>
	</g>
</g>
<g>
	<g>
		<path d="M243.8,423.9c-14.4,3.7-23.4,16.7-30.5,28.9c-8.1,14-14,29.6-15.3,45.9c-1.2,15.6,2.1,32,10.9,45.2
			c8.5,12.7,21,23.1,34.3,30.3c13,7,27.5,11.4,42.3,11.7c15.7,0.4,32.4-4.3,46.6-10.6c14.7-6.6,25.9-21.4,33.5-35.1
			c8-14.5,12-31.2,11.4-47.7c-1.1-29.1-15.3-63.4-45.9-71.4c-3.1-0.8-4.4,4-1.3,4.8c25,6.5,37,31.7,41.1,55.2
			c5.3,30.4-7,62.7-30.3,82.8c-6.2,5.4-13.6,8.2-21.3,10.7c-7,2.2-14.1,4.5-21.5,5.5c-13.8,2-28.1-0.2-41-5.2
			c-26.9-10.4-50.8-33.1-53.7-62.9c-1.6-17,2.8-34,10.3-49.1c6.7-13.4,16-30.2,31.6-34.2C248.2,427.9,246.9,423.1,243.8,423.9
			L243.8,423.9z"/>
	</g>
</g>
<g>
	<g>
		<path d="M261,308.8c4.8,0,4.8-7.5,0-7.5C256.2,301.3,256.2,308.8,261,308.8L261,308.8z"/>
	</g>
</g>
<g>
	<g>
		<path d="M251,268c6.4,0,6.4-10,0-10C244.6,258,244.6,268,251,268L251,268z"/>
	</g>
</g>
<g>
	<g>
		<path d="M278.5,261c6.4,0,6.4-10,0-10C272.1,251,272.1,261,278.5,261L278.5,261z"/>
	</g>
</g>
<g>
	<g>
		<path d="M277.8,352.3c-0.2,0.2-0.3,0.3-0.5,0.5c-1.4,1.4-1.5,3.9,0,5.3c1.5,1.4,3.8,1.5,5.3,0c0.2-0.2,0.3-0.3,0.5-0.5
			c1.4-1.4,1.5-3.9,0-5.3C281.7,351,279.3,350.9,277.8,352.3L277.8,352.3z"/>
	</g>
</g>
<g>
	<g>
		<path d="M281,377.3c4.8,0,4.8-7.5,0-7.5C276.2,369.8,276.2,377.3,281,377.3L281,377.3z"/>
	</g>
</g>
<g>
	<g>
		<path d="M286.8,394c0-0.2,0-0.3,0-0.5c0-2-1.7-3.8-3.8-3.8c-2,0.1-3.8,1.6-3.8,3.8c0,0.2,0,0.3,0,0.5c0,2,1.7,3.8,3.8,3.8
			C285,397.7,286.8,396.1,286.8,394L286.8,394z"/>
	</g>
</g>
<g>
	<g>
		<path d="M283.5,416.3c4.8,0,4.8-7.5,0-7.5C278.7,408.8,278.7,416.3,283.5,416.3L283.5,416.3z"/>
	</g>
</g>
<g>
	<g>
		<path d="M286.5,430.8c4.8,0,4.8-7.5,0-7.5C281.7,423.3,281.7,430.8,286.5,430.8L286.5,430.8z"/>
	</g>
</g>
<g>
	<g>
		<path d="M283.3,455.5c0,0.3,0,0.7,0,1c0,2,1.7,3.8,3.8,3.8c2-0.1,3.8-1.6,3.8-3.8c0-0.3,0-0.7,0-1c0-2-1.7-3.8-3.8-3.8
			C285,451.8,283.3,453.4,283.3,455.5L283.3,455.5z"/>
	</g>
</g>
<g>
	<g>
		<path d="M289,479.8c4.8,0,4.8-7.5,0-7.5C284.2,472.3,284.2,479.8,289,479.8L289,479.8z"/>
	</g>
</g>
<g>
	<g>
		<path d="M284.8,498c0,0.3,0,0.7,0,1c0,2,1.7,3.8,3.8,3.8c2-0.1,3.8-1.6,3.8-3.8c0-0.3,0-0.7,0-1c0-2-1.7-3.8-3.8-3.8
			C286.5,494.3,284.8,495.9,284.8,498L284.8,498z"/>
	</g>
</g>
<g>
	<g>
		<path d="M291,522.8c-0.2,0-0.3,0-0.5,0c-2,0-3.8,1.7-3.8,3.8c0.1,2,1.6,3.8,3.8,3.8c0.2,0,0.3,0,0.5,0c2,0,3.8-1.7,3.8-3.8
			C294.7,524.5,293.1,522.8,291,522.8L291,522.8z"/>
	</g>
</g>
<g>
	<g>
		<path d="M289.3,550.3c-0.2,0.2-0.3,0.3-0.5,0.5c-1.4,1.4-1.5,3.9,0,5.3c1.5,1.4,3.8,1.5,5.3,0c0.2-0.2,0.3-0.3,0.5-0.5
			c1.4-1.4,1.5-3.9,0-5.3C293.2,549,290.8,548.9,289.3,550.3L289.3,550.3z"/>
	</g>
</g>
<g>
	<g>
		<path d="M291.1,397.3c0.1,3.6,0.3,7.1,0.4,10.7c0.1,3.2,5.1,3.2,5,0c-0.1-3.6-0.3-7.1-0.4-10.7C296,394.1,291,394.1,291.1,397.3
			L291.1,397.3z"/>
	</g>
</g>
<g>
	<g>
		<path d="M297.6,400.6c1.3,3.1,3,5.8,5.1,8.4c2,2.5,5.6-1.1,3.5-3.5c-1.8-2.2-3.2-4.7-4.4-7.4c-0.5-1.2-2.4-1.5-3.4-0.9
			C297.2,397.9,297,399.3,297.6,400.6L297.6,400.6z"/>
	</g>
</g>
<g>
	<g>
		<path d="M308.7,400.1c0.9-0.2,2.3,0.5,2.7,1.5c0.5,1.3,1.7,2.1,3.1,1.7c1.2-0.3,2.2-1.8,1.7-3.1c-1.3-3.7-5-5.7-8.8-5
			c-1.3,0.3-2.1,1.8-1.7,3.1C306,399.8,307.4,400.4,308.7,400.1L308.7,400.1z"/>
	</g>
</g>
<g>
	<g>
		<path d="M301.2,382.7c0.4,2.8,0.6,5.5,0.7,8.3c0.1,3.2,5.1,3.2,5,0c-0.1-3.2-0.4-6.4-0.9-9.7c-0.2-1.3-1.9-2.1-3.1-1.7
			C301.5,380,301,381.3,301.2,382.7L301.2,382.7z"/>
	</g>
</g>
<g>
	<g>
		<path d="M309,380.8c0.6,0,1.8,2,2.2,2.5c0.9,1.3,1.9,2.6,2.8,3.8c1.8,2.6,6.2,0.1,4.3-2.5c-1.3-1.9-2.7-3.8-4.1-5.6
			c-1.3-1.7-2.8-3.3-5.2-3.2C305.8,376,305.8,381,309,380.8L309,380.8z"/>
	</g>
</g>
<g>
	<g>
		<path d="M314.7,376.2c2.2,1.3,4.5,2.7,6.7,4c2.8,1.7,5.3-2.7,2.5-4.3c-2.2-1.3-4.5-2.7-6.7-4C314.5,370.2,312,374.5,314.7,376.2
			L314.7,376.2z"/>
	</g>
</g>
</svg>
